{"glyphs":{"0":{"ha":3694,"x_min":0,"x_max":0,"o":"m 1713 1143 b 1768 1193 1750 1143 1771 1157 b 1758 1253 1769 1210 1764 1232 b 1719 1364 1750 1285 1742 1332 b 1639 1401 1703 1393 1667 1401 b 1594 1356 1614 1400 1592 1389 b 1618 1242 1593 1325 1608 1279 b 1633 1197 1622 1228 1625 1214 b 1713 1143 1647 1163 1674 1143 z m 1331 -54 b 1347 -6 1358 -54 1353 -26 l 1332 -6 b 1336 -31 1333 -14 1338 -22 b 1310 -35 1335 -42 1318 -43 b 1292 13 1299 -22 1294 3 b 1285 60 1289 24 1279 49 b 1314 57 1288 69 1304 69 b 1321 33 1318 49 1319 39 l 1336 33 b 1300 76 1331 53 1325 76 b 1265 38 1267 82 1260 61 b 1331 -54 1275 4 1281 -54 z m 1399 -37 b 1371 24 1381 -31 1375 10 l 1365 42 b 1389 61 1363 57 1369 69 b 1413 7 1403 57 1408 21 b 1399 -37 1417 -10 1431 -53 z m 1411 -54 b 1429 13 1450 -54 1436 -14 b 1376 76 1422 39 1415 76 b 1357 14 1339 82 1347 49 b 1411 -54 1364 -11 1369 -54 z m 1467 -53 l 1481 -53 l 1454 42 l 1503 -53 l 1517 -53 l 1511 42 l 1538 -53 l 1550 -53 l 1514 76 l 1494 76 l 1504 -26 l 1450 76 l 1432 76 z m 1379 111 l 1399 111 l 1383 171 l 1410 171 l 1406 182 l 1379 182 l 1368 228 l 1400 228 l 1396 240 l 1344 240 z m 1572 -53 l 1585 -53 l 1563 42 l 1606 -53 l 1621 -53 l 1615 42 l 1644 -53 l 1657 -53 l 1617 76 l 1601 76 l 1608 -26 l 1557 76 l 1538 76 z m 1478 111 b 1497 174 1514 111 1504 147 b 1446 243 1490 199 1483 236 b 1422 179 1406 243 1414 210 b 1478 111 1429 151 1438 111 z m 1469 122 b 1440 182 1446 129 1444 171 l 1435 203 b 1454 226 1431 221 1439 235 b 1482 169 1472 221 1478 182 b 1469 122 1486 151 1496 117 z m 1676 -53 l 1729 -53 l 1726 -42 l 1696 -42 l 1682 10 l 1707 10 l 1703 24 l 1678 24 l 1667 65 l 1697 65 l 1694 76 l 1642 76 z m 1497 240 l 1532 111 l 1547 111 l 1532 171 l 1546 171 l 1581 111 l 1600 111 l 1564 174 b 1547 236 1583 182 1569 226 b 1497 240 1531 243 1513 240 z m 1707 76 l 1742 -53 l 1763 -53 l 1746 10 l 1760 10 l 1792 -53 l 1810 -53 l 1772 13 b 1757 74 1790 21 1779 61 b 1707 76 1743 82 1725 76 z m 1528 182 l 1517 228 b 1556 206 1535 228 1550 226 b 1528 182 1561 185 1546 182 z m 1742 24 l 1731 65 b 1764 42 1747 65 1760 61 b 1742 24 1769 24 1758 24 z m 1860 -54 b 1881 -6 1890 -54 1886 -26 l 1863 -6 b 1867 -31 1864 -14 1871 -22 b 1842 -35 1869 -42 1851 -43 b 1824 13 1829 -22 1826 3 b 1817 60 1821 24 1810 49 b 1844 57 1821 69 1839 69 b 1851 33 1851 49 1850 39 l 1869 33 b 1833 76 1864 53 1856 76 b 1799 38 1801 82 1793 61 b 1860 -54 1808 4 1811 -54 z m 1665 111 l 1685 111 l 1654 228 l 1679 228 l 1675 240 l 1608 240 l 1613 228 l 1635 228 z m 1913 -53 l 1931 -53 l 1896 76 l 1878 76 z m 1718 111 l 1735 111 l 1719 171 l 1754 171 l 1769 111 l 1786 111 l 1751 240 l 1735 240 l 1750 182 l 1715 182 l 1700 240 l 1683 240 z m 1943 -53 l 1963 -53 l 1958 -19 l 1985 -19 l 2003 -53 l 2018 -53 l 1954 76 l 1938 76 z m 1960 -10 l 1953 53 l 1981 -10 z m 1807 111 l 1858 111 l 1856 121 l 1825 121 l 1813 171 l 1838 171 l 1833 182 l 1808 182 l 1797 228 l 1828 228 l 1824 240 l 1772 240 z m 2029 -53 l 2085 -53 l 2082 -42 l 2046 -42 l 2014 76 l 1994 76 z m 1914 111 l 1928 111 l 1913 171 l 1935 171 l 1931 182 l 1908 182 l 1897 228 l 1932 228 l 1928 240 l 1879 240 z m 2156 -53 l 2168 -53 l 2164 76 l 2149 76 l 2151 -19 l 2108 76 l 2093 76 z m 2019 111 b 2025 181 2043 121 2031 157 l 2008 240 l 1992 240 l 2007 182 b 2003 121 2011 167 2029 121 b 1969 182 1978 121 1974 167 l 1954 240 l 1939 240 l 1958 171 b 1965 142 1960 163 1961 151 b 2019 111 1975 117 1993 104 z m 2213 -53 l 2267 -53 l 2264 -42 l 2229 -42 l 2215 10 l 2243 10 l 2239 24 l 2211 24 l 2200 65 l 2235 65 l 2232 76 l 2178 76 z m 2064 111 l 2111 111 l 2108 121 l 2079 121 l 2047 240 l 2029 240 z m 2244 76 l 2279 -53 l 2297 -53 l 2281 10 l 2294 10 l 2326 -53 l 2344 -53 l 2307 13 b 2294 74 2329 18 2318 61 b 2244 76 2279 82 2260 76 z m 1363 790 l 1399 656 l 1415 656 l 1399 718 b 1435 726 1414 718 1426 715 b 1425 775 1440 735 1433 760 b 1363 790 1408 796 1379 790 z m 2276 24 l 2265 65 b 2299 42 2283 65 2294 61 b 2276 24 2304 24 2294 24 z m 2124 111 l 2174 111 l 2171 121 l 2139 121 l 2107 240 l 2089 240 z m 1396 729 l 1382 782 b 1415 758 1401 782 1410 782 b 1415 731 1419 746 1421 738 b 1396 729 1411 729 1403 729 z m 2394 -54 b 2410 -14 2418 -54 2424 -35 b 2376 24 2406 4 2386 13 b 2349 57 2363 33 2343 42 b 2365 65 2350 65 2356 69 b 2383 39 2374 61 2376 49 l 2394 46 b 2369 76 2390 60 2385 69 b 2336 69 2361 82 2346 81 b 2358 14 2321 60 2336 31 b 2400 -24 2369 7 2396 -10 b 2382 -37 2403 -35 2396 -43 b 2365 -11 2372 -35 2367 -19 l 2347 -14 b 2394 -54 2354 -37 2369 -54 z m 1481 656 l 1529 656 l 1525 669 l 1486 669 l 1454 790 l 1444 790 z m 1232 853 b 1236 992 1282 869 1249 947 l 1206 1107 l 1171 1107 l 1218 932 b 1185 875 1225 903 1226 864 b 1146 936 1160 886 1151 917 l 1100 1107 l 1068 1107 l 1110 949 b 1136 886 1117 924 1122 904 b 1232 853 1157 853 1204 838 z m 2440 -53 l 2457 -53 l 2422 76 l 2406 76 z m 2222 111 l 2238 111 l 2238 143 l 2263 143 l 2275 111 l 2294 111 l 2232 240 l 2211 240 z m 1542 656 l 1590 656 l 1586 669 l 1553 669 l 1540 718 l 1569 718 l 1567 731 l 1538 731 l 1524 782 l 1557 782 l 1554 790 l 1506 790 z m 2233 156 l 2226 215 l 2254 156 z m 2500 -37 b 2479 24 2482 -31 2483 10 l 2474 42 b 2493 61 2471 57 2471 69 b 2515 7 2507 57 2511 21 b 2500 -37 2519 -10 2532 -53 z m 2513 -54 b 2531 13 2551 -54 2538 -14 b 2482 76 2524 39 2518 76 b 2458 14 2440 82 2449 49 b 2513 -54 2465 -11 2474 -54 z m 1597 656 l 1614 656 l 1610 692 l 1638 692 l 1653 656 l 1672 656 l 1611 790 l 1589 790 z m 2307 111 l 2325 111 l 2301 199 l 2358 111 l 2372 111 l 2338 240 l 2319 240 l 2342 156 l 2283 240 l 2272 240 z m 1607 703 l 1603 769 l 1635 703 z m 1374 849 b 1410 926 1415 849 1429 886 b 1339 996 1399 961 1368 976 b 1283 1060 1315 1014 1281 1032 b 1313 1076 1283 1072 1293 1083 b 1350 1032 1331 1075 1344 1051 l 1376 1043 b 1339 1097 1372 1063 1360 1083 b 1274 1107 1318 1107 1290 1111 b 1271 1011 1238 1094 1243 1043 b 1333 963 1288 992 1315 976 b 1368 933 1350 956 1360 942 b 1381 883 1383 921 1393 892 b 1340 886 1372 872 1354 875 b 1317 932 1328 896 1322 917 l 1285 922 b 1374 849 1299 881 1331 849 z m 2568 -53 l 2578 -53 l 2553 38 l 2621 -53 l 2635 -53 l 2600 76 l 2585 76 l 2607 -10 l 2543 76 l 2533 76 z m 1715 656 b 1735 700 1740 656 1747 676 b 1696 731 1729 714 1710 722 b 1669 769 1685 740 1669 753 b 1704 753 1668 783 1685 789 l 1721 756 b 1692 789 1717 769 1706 783 b 1658 785 1678 794 1664 790 b 1681 726 1642 769 1661 740 b 1722 686 1693 715 1718 703 b 1704 669 1725 675 1718 669 b 1688 700 1694 675 1690 690 l 1672 692 b 1715 656 1678 675 1696 656 z m 2358 240 l 2393 111 b 2443 118 2404 111 2433 108 b 2440 174 2460 128 2444 156 b 2418 231 2436 192 2435 221 b 2358 240 2399 243 2372 240 z m 2408 121 l 2381 228 b 2417 206 2399 228 2410 228 l 2433 142 b 2408 121 2433 121 2422 121 z m 1761 656 l 1815 656 l 1811 669 l 1778 669 l 1765 718 l 1788 718 l 1785 731 l 1763 731 l 1749 782 l 1781 782 l 1778 790 l 1725 790 z m 1056 1146 l 1089 1146 l 1058 1261 b 1126 1275 1081 1261 1115 1258 b 1113 1372 1149 1297 1138 1340 b 1042 1400 1093 1397 1067 1400 l 988 1400 z m 1463 853 l 1560 853 l 1554 875 l 1490 875 l 1464 969 l 1515 969 l 1508 996 l 1457 996 l 1436 1076 l 1500 1076 l 1492 1107 l 1394 1107 z m 1051 1288 l 1028 1374 b 1068 1372 1040 1374 1051 1376 b 1101 1328 1092 1368 1097 1344 b 1090 1290 1107 1310 1108 1294 b 1051 1288 1076 1285 1064 1288 z m 1888 656 l 1906 656 l 1897 790 l 1882 790 l 1888 692 l 1842 790 l 1822 790 z m 1207 1146 l 1307 1146 l 1301 1167 l 1238 1167 l 1213 1261 l 1264 1261 l 1257 1288 l 1206 1288 l 1182 1374 l 1243 1374 l 1236 1400 l 1139 1400 z m 1946 656 l 1965 656 l 1929 790 l 1910 790 z m 2017 656 b 2033 700 2039 656 2047 676 b 1999 731 2029 714 2007 726 b 1969 769 1988 740 1968 753 b 2001 753 1974 783 1989 789 l 2019 756 b 1990 789 2014 769 2004 783 b 1958 785 1981 794 1968 790 b 1979 726 1940 769 1963 740 b 2019 686 1997 715 2018 703 b 2008 669 2022 675 2018 669 b 1986 700 1999 675 1989 690 l 1972 692 b 2017 656 1979 675 1993 656 z m 1731 849 b 1778 901 1764 849 1783 865 b 1764 963 1779 921 1769 940 b 1728 1071 1754 996 1751 1040 b 1653 1107 1713 1099 1683 1107 b 1603 1065 1626 1107 1604 1094 b 1628 956 1606 1032 1618 992 b 1646 903 1633 936 1638 921 b 1731 849 1660 865 1693 849 z m 1701 878 b 1674 932 1683 886 1678 913 l 1661 976 b 1640 1057 1654 1003 1642 1032 b 1660 1076 1640 1071 1646 1076 b 1692 1071 1668 1083 1679 1076 b 1713 1032 1707 1061 1710 1046 l 1738 940 b 1744 913 1740 932 1744 921 b 1732 878 1747 901 1743 886 b 1701 878 1725 875 1714 875 z m 2061 656 l 2083 656 l 2047 790 l 2025 790 z m 1267 1400 l 1335 1146 l 1374 1146 l 1343 1263 l 1368 1263 l 1433 1146 l 1465 1146 l 1400 1271 b 1369 1389 1440 1285 1413 1369 b 1267 1400 1339 1404 1301 1400 z m 2119 656 l 2133 656 l 2100 782 l 2121 782 l 2118 790 l 2057 790 l 2060 782 l 2086 782 z m 1336 1288 l 1313 1374 b 1350 1371 1322 1374 1336 1376 b 1379 1336 1367 1364 1376 1347 b 1372 1290 1386 1317 1385 1297 b 1336 1288 1360 1288 1346 1288 z m 1833 853 l 1860 853 l 1814 1025 l 1935 853 l 1960 853 l 1892 1107 l 1861 1107 l 1907 936 l 1789 1107 l 1765 1107 z m 1563 1143 b 1600 1221 1606 1143 1619 1179 b 1531 1288 1586 1249 1557 1267 b 1471 1353 1507 1301 1472 1325 b 1500 1376 1469 1369 1485 1376 b 1540 1328 1521 1371 1531 1344 l 1564 1338 b 1529 1389 1560 1356 1549 1379 b 1465 1397 1508 1401 1482 1404 b 1461 1299 1424 1389 1429 1338 b 1524 1253 1479 1282 1506 1267 b 1560 1225 1543 1242 1553 1232 b 1574 1175 1574 1210 1583 1186 b 1529 1179 1563 1167 1544 1167 b 1501 1225 1518 1189 1510 1206 l 1469 1215 b 1563 1143 1482 1175 1517 1143 z m 2000 853 l 2096 853 l 2090 875 l 2029 875 l 1967 1107 l 1932 1107 z m 1693 1171 b 1663 1222 1672 1181 1667 1206 l 1650 1267 b 1631 1347 1643 1293 1624 1328 b 1646 1374 1629 1364 1635 1372 b 1676 1364 1657 1376 1667 1376 b 1701 1322 1694 1353 1697 1338 l 1733 1206 b 1724 1171 1736 1193 1738 1179 b 1693 1171 1717 1167 1701 1167 z m 2269 853 l 2306 853 l 2297 886 l 2261 886 z m 2146 904 l 2160 853 l 2197 853 l 2181 914 b 2172 949 2178 924 2172 936 l 2178 1000 b 2183 1107 2182 1036 2183 1071 l 2149 1107 l 2143 985 l 2071 1107 l 2040 1107 l 2106 992 b 2136 942 2118 976 2126 963 b 2146 904 2140 932 2143 917 z m 1821 1146 l 1850 1146 l 1804 1317 l 1921 1146 l 1946 1146 l 1878 1400 l 1846 1400 l 1893 1228 l 1774 1400 l 1753 1400 z m 2267 906 l 2279 906 l 2238 1107 l 2201 1107 z m 1971 1146 l 2003 1146 l 2001 1206 l 2053 1206 l 2081 1146 l 2115 1146 l 1992 1400 l 1958 1400 z m 2000 1232 l 1990 1347 l 2042 1232 z m 2140 1146 l 2242 1146 l 2236 1167 l 2172 1167 l 2110 1400 l 2072 1400 z m 626 299 l 671 299 l 642 419 l 699 299 l 733 299 l 721 422 l 760 299 l 801 299 l 719 597 l 669 597 l 685 410 l 599 597 l 550 597 z m 840 299 l 888 299 l 849 444 l 940 299 l 976 299 l 896 597 l 849 597 l 888 454 l 799 597 l 760 597 z m 1011 299 l 1061 299 l 1046 353 l 996 353 z m 1165 294 b 1201 354 1196 303 1207 329 b 1140 454 1196 393 1175 426 l 1110 482 b 1071 517 1097 492 1082 499 b 1082 554 1064 528 1057 556 b 1117 497 1103 551 1107 517 l 1161 499 b 1097 594 1151 535 1136 578 b 1018 543 1050 614 1007 586 b 1049 474 1021 518 1032 492 b 1085 442 1057 461 1072 454 b 1150 368 1107 422 1143 399 b 1144 343 1154 354 1153 346 b 1124 353 1138 339 1129 346 b 1097 406 1107 368 1101 389 l 1051 403 b 1085 331 1058 376 1068 353 b 1165 294 1103 303 1138 290 z m 1343 307 l 1347 299 l 1386 299 l 1344 454 l 1268 454 l 1279 410 l 1308 410 b 1297 343 1314 393 1336 329 b 1264 406 1272 349 1268 390 l 1235 514 b 1251 554 1229 536 1228 558 b 1285 492 1267 549 1269 544 l 1333 492 b 1274 590 1324 524 1314 569 b 1204 597 1251 603 1225 603 b 1178 535 1181 586 1176 560 b 1200 449 1182 507 1192 478 b 1224 365 1208 419 1213 393 b 1271 304 1232 343 1247 314 b 1343 307 1294 290 1328 290 z m 1407 261 l 1449 261 l 1433 636 l 1386 636 z m 1619 293 b 1656 353 1650 300 1663 326 b 1593 453 1650 392 1626 425 l 1561 479 b 1526 514 1549 490 1536 499 b 1535 553 1519 526 1514 554 b 1568 496 1556 549 1563 514 l 1615 499 b 1550 593 1607 533 1589 578 b 1469 540 1506 611 1461 585 b 1504 471 1474 517 1483 490 b 1536 440 1510 461 1524 453 b 1603 365 1558 421 1594 399 b 1599 340 1606 353 1608 343 b 1578 351 1589 338 1581 343 b 1554 404 1563 368 1558 386 l 1507 401 b 1536 329 1514 375 1521 351 b 1619 293 1558 300 1593 289 z m 1697 296 l 1744 296 l 1719 390 b 1756 394 1739 390 1744 390 b 1783 496 1807 407 1790 471 b 1690 596 1767 560 1725 596 l 1618 596 z m 1735 435 l 1708 435 l 1676 553 l 1696 553 b 1735 435 1726 553 1750 443 z m 1863 296 l 1911 296 l 1876 426 l 1890 426 l 1951 296 l 2001 296 l 1932 435 b 1944 518 1953 453 1951 490 b 1871 596 1929 574 1893 596 l 1783 596 z m 1892 468 l 1865 468 l 1843 553 l 1858 553 b 1892 468 1889 553 1907 478 z m 2029 296 l 2081 296 l 2001 596 l 1950 596 z m 2106 296 l 2153 296 l 2114 443 l 2203 296 l 2242 296 l 2163 596 l 2115 596 l 2153 453 l 2063 596 l 2026 596 z m 2368 307 l 2374 296 l 2414 296 l 2372 453 l 2294 453 l 2307 407 l 2338 407 b 2325 340 2342 392 2363 329 b 2290 404 2301 349 2293 389 l 2271 475 b 2256 538 2265 493 2256 519 b 2276 553 2254 551 2267 556 b 2311 490 2286 550 2297 540 l 2360 490 b 2301 589 2351 522 2342 568 b 2235 596 2281 600 2251 601 b 2207 533 2207 585 2201 558 b 2226 447 2210 506 2219 475 b 2253 363 2235 418 2242 392 b 2299 303 2260 340 2276 314 b 2368 307 2322 290 2357 289 z m 2469 296 l 2522 296 l 2456 544 l 2496 544 l 2483 596 l 2349 596 l 2361 544 l 2403 544 z m 2633 299 b 2699 306 2656 293 2682 293 b 2703 404 2726 325 2711 369 l 2679 490 b 2622 589 2671 522 2661 568 b 2554 596 2600 600 2574 600 b 2528 532 2529 585 2522 558 b 2538 488 2531 517 2535 501 l 2561 404 b 2574 360 2564 390 2568 375 b 2633 299 2582 333 2603 308 z m 2654 340 b 2629 351 2644 339 2632 346 b 2607 410 2617 369 2611 394 l 2589 482 b 2578 543 2583 499 2576 522 b 2597 553 2578 546 2588 553 b 2618 533 2607 549 2614 544 b 2631 490 2625 519 2626 506 l 2654 404 b 2664 360 2657 389 2664 374 b 2654 340 2668 346 2661 346 z m 2778 296 l 2826 296 l 2814 447 l 2881 296 l 2931 296 l 2889 596 l 2840 596 l 2876 400 l 2793 596 l 2760 596 l 2778 400 l 2711 596 l 2664 596 z m 2981 296 l 3028 296 l 2989 443 l 3078 296 l 3117 296 l 3038 596 l 2990 596 l 3028 453 l 2939 596 l 2901 596 z "},"1":{"ha":3694,"x_min":0,"x_max":0,"o":"m 1713 1143 b 1768 1193 1750 1143 1771 1157 b 1758 1253 1769 1210 1764 1232 b 1719 1364 1750 1285 1742 1332 b 1639 1401 1703 1393 1667 1401 b 1594 1356 1614 1400 1592 1389 b 1618 1242 1593 1325 1608 1279 b 1633 1197 1622 1228 1625 1214 b 1713 1143 1647 1163 1674 1143 z m 1331 -54 b 1347 -6 1358 -54 1353 -26 l 1332 -6 b 1336 -31 1333 -14 1338 -22 b 1310 -35 1335 -42 1318 -43 b 1292 13 1299 -22 1294 3 b 1285 60 1289 24 1279 49 b 1314 57 1288 69 1304 69 b 1321 33 1318 49 1319 39 l 1336 33 b 1300 76 1331 53 1325 76 b 1265 38 1267 82 1260 61 b 1331 -54 1275 4 1281 -54 z m 1399 -37 b 1371 24 1381 -31 1375 10 l 1365 42 b 1389 61 1363 57 1369 69 b 1413 7 1403 57 1408 21 b 1399 -37 1417 -10 1431 -53 z m 1411 -54 b 1429 13 1450 -54 1436 -14 b 1376 76 1422 39 1415 76 b 1357 14 1339 82 1347 49 b 1411 -54 1364 -11 1369 -54 z m 1467 -53 l 1481 -53 l 1454 42 l 1503 -53 l 1517 -53 l 1511 42 l 1538 -53 l 1550 -53 l 1514 76 l 1494 76 l 1504 -26 l 1450 76 l 1432 76 z m 1379 111 l 1399 111 l 1383 171 l 1410 171 l 1406 182 l 1379 182 l 1368 228 l 1400 228 l 1396 240 l 1344 240 z m 1572 -53 l 1585 -53 l 1563 42 l 1606 -53 l 1621 -53 l 1615 42 l 1644 -53 l 1657 -53 l 1617 76 l 1601 76 l 1608 -26 l 1557 76 l 1538 76 z m 1478 111 b 1497 174 1514 111 1504 147 b 1446 243 1490 199 1483 236 b 1422 179 1406 243 1414 210 b 1478 111 1429 151 1438 111 z m 1469 122 b 1440 182 1446 129 1444 171 l 1435 203 b 1454 226 1431 221 1439 235 b 1482 169 1472 221 1478 182 b 1469 122 1486 151 1496 117 z m 1676 -53 l 1729 -53 l 1726 -42 l 1696 -42 l 1682 10 l 1707 10 l 1703 24 l 1678 24 l 1667 65 l 1697 65 l 1694 76 l 1642 76 z m 1497 240 l 1532 111 l 1547 111 l 1532 171 l 1546 171 l 1581 111 l 1600 111 l 1564 174 b 1547 236 1583 182 1569 226 b 1497 240 1531 243 1513 240 z m 1707 76 l 1742 -53 l 1763 -53 l 1746 10 l 1760 10 l 1792 -53 l 1810 -53 l 1772 13 b 1757 74 1790 21 1779 61 b 1707 76 1743 82 1725 76 z m 1528 182 l 1517 228 b 1556 206 1535 228 1550 226 b 1528 182 1561 185 1546 182 z m 1742 24 l 1731 65 b 1764 42 1747 65 1760 61 b 1742 24 1769 24 1758 24 z m 1860 -54 b 1881 -6 1890 -54 1886 -26 l 1863 -6 b 1867 -31 1864 -14 1871 -22 b 1842 -35 1869 -42 1851 -43 b 1824 13 1829 -22 1826 3 b 1817 60 1821 24 1810 49 b 1844 57 1821 69 1839 69 b 1851 33 1851 49 1850 39 l 1869 33 b 1833 76 1864 53 1856 76 b 1799 38 1801 82 1793 61 b 1860 -54 1808 4 1811 -54 z m 1665 111 l 1685 111 l 1654 228 l 1679 228 l 1675 240 l 1608 240 l 1613 228 l 1635 228 z m 1913 -53 l 1931 -53 l 1896 76 l 1878 76 z m 1718 111 l 1735 111 l 1719 171 l 1754 171 l 1769 111 l 1786 111 l 1751 240 l 1735 240 l 1750 182 l 1715 182 l 1700 240 l 1683 240 z m 1943 -53 l 1963 -53 l 1958 -19 l 1985 -19 l 2003 -53 l 2018 -53 l 1954 76 l 1938 76 z m 1960 -10 l 1953 53 l 1981 -10 z m 1807 111 l 1858 111 l 1856 121 l 1825 121 l 1813 171 l 1838 171 l 1833 182 l 1808 182 l 1797 228 l 1828 228 l 1824 240 l 1772 240 z m 2029 -53 l 2085 -53 l 2082 -42 l 2046 -42 l 2014 76 l 1994 76 z m 1914 111 l 1928 111 l 1913 171 l 1935 171 l 1931 182 l 1908 182 l 1897 228 l 1932 228 l 1928 240 l 1879 240 z m 2156 -53 l 2168 -53 l 2164 76 l 2149 76 l 2151 -19 l 2108 76 l 2093 76 z m 2019 111 b 2025 181 2043 121 2031 157 l 2008 240 l 1992 240 l 2007 182 b 2003 121 2011 167 2029 121 b 1969 182 1978 121 1974 167 l 1954 240 l 1939 240 l 1958 171 b 1965 142 1960 163 1961 151 b 2019 111 1975 117 1993 104 z m 2213 -53 l 2267 -53 l 2264 -42 l 2229 -42 l 2215 10 l 2243 10 l 2239 24 l 2211 24 l 2200 65 l 2235 65 l 2232 76 l 2178 76 z m 2064 111 l 2111 111 l 2108 121 l 2079 121 l 2047 240 l 2029 240 z m 2244 76 l 2279 -53 l 2297 -53 l 2281 10 l 2294 10 l 2326 -53 l 2344 -53 l 2307 13 b 2294 74 2329 18 2318 61 b 2244 76 2279 82 2260 76 z m 1363 790 l 1399 656 l 1415 656 l 1399 718 b 1435 726 1414 718 1426 715 b 1425 775 1440 735 1433 760 b 1363 790 1408 796 1379 790 z m 2276 24 l 2265 65 b 2299 42 2283 65 2294 61 b 2276 24 2304 24 2294 24 z m 2124 111 l 2174 111 l 2171 121 l 2139 121 l 2107 240 l 2089 240 z m 1396 729 l 1382 782 b 1415 758 1401 782 1410 782 b 1415 731 1419 746 1421 738 b 1396 729 1411 729 1403 729 z m 2394 -54 b 2410 -14 2418 -54 2424 -35 b 2376 24 2406 4 2386 13 b 2349 57 2363 33 2343 42 b 2365 65 2350 65 2356 69 b 2383 39 2374 61 2376 49 l 2394 46 b 2369 76 2390 60 2385 69 b 2336 69 2361 82 2346 81 b 2358 14 2321 60 2336 31 b 2400 -24 2369 7 2396 -10 b 2382 -37 2403 -35 2396 -43 b 2365 -11 2372 -35 2367 -19 l 2347 -14 b 2394 -54 2354 -37 2369 -54 z m 1481 656 l 1529 656 l 1525 669 l 1486 669 l 1454 790 l 1444 790 z m 1232 853 b 1236 992 1282 869 1249 947 l 1206 1107 l 1171 1107 l 1218 932 b 1185 875 1225 903 1226 864 b 1146 936 1160 886 1151 917 l 1100 1107 l 1068 1107 l 1110 949 b 1136 886 1117 924 1122 904 b 1232 853 1157 853 1204 838 z m 2440 -53 l 2457 -53 l 2422 76 l 2406 76 z m 2222 111 l 2238 111 l 2238 143 l 2263 143 l 2275 111 l 2294 111 l 2232 240 l 2211 240 z m 1542 656 l 1590 656 l 1586 669 l 1553 669 l 1540 718 l 1569 718 l 1567 731 l 1538 731 l 1524 782 l 1557 782 l 1554 790 l 1506 790 z m 2233 156 l 2226 215 l 2254 156 z m 2500 -37 b 2479 24 2482 -31 2483 10 l 2474 42 b 2493 61 2471 57 2471 69 b 2515 7 2507 57 2511 21 b 2500 -37 2519 -10 2532 -53 z m 2513 -54 b 2531 13 2551 -54 2538 -14 b 2482 76 2524 39 2518 76 b 2458 14 2440 82 2449 49 b 2513 -54 2465 -11 2474 -54 z m 1597 656 l 1614 656 l 1610 692 l 1638 692 l 1653 656 l 1672 656 l 1611 790 l 1589 790 z m 2307 111 l 2325 111 l 2301 199 l 2358 111 l 2372 111 l 2338 240 l 2319 240 l 2342 156 l 2283 240 l 2272 240 z m 1607 703 l 1603 769 l 1635 703 z m 1374 849 b 1410 926 1415 849 1429 886 b 1339 996 1399 961 1368 976 b 1283 1060 1315 1014 1281 1032 b 1313 1076 1283 1072 1293 1083 b 1350 1032 1331 1075 1344 1051 l 1376 1043 b 1339 1097 1372 1063 1360 1083 b 1274 1107 1318 1107 1290 1111 b 1271 1011 1238 1094 1243 1043 b 1333 963 1288 992 1315 976 b 1368 933 1350 956 1360 942 b 1381 883 1383 921 1393 892 b 1340 886 1372 872 1354 875 b 1317 932 1328 896 1322 917 l 1285 922 b 1374 849 1299 881 1331 849 z m 2568 -53 l 2578 -53 l 2553 38 l 2621 -53 l 2635 -53 l 2600 76 l 2585 76 l 2607 -10 l 2543 76 l 2533 76 z m 1715 656 b 1735 700 1740 656 1747 676 b 1696 731 1729 714 1710 722 b 1669 769 1685 740 1669 753 b 1704 753 1668 783 1685 789 l 1721 756 b 1692 789 1717 769 1706 783 b 1658 785 1678 794 1664 790 b 1681 726 1642 769 1661 740 b 1722 686 1693 715 1718 703 b 1704 669 1725 675 1718 669 b 1688 700 1694 675 1690 690 l 1672 692 b 1715 656 1678 675 1696 656 z m 2358 240 l 2393 111 b 2443 118 2404 111 2433 108 b 2440 174 2460 128 2444 156 b 2418 231 2436 192 2435 221 b 2358 240 2399 243 2372 240 z m 2408 121 l 2381 228 b 2417 206 2399 228 2410 228 l 2433 142 b 2408 121 2433 121 2422 121 z m 1761 656 l 1815 656 l 1811 669 l 1778 669 l 1765 718 l 1788 718 l 1785 731 l 1763 731 l 1749 782 l 1781 782 l 1778 790 l 1725 790 z m 1056 1146 l 1089 1146 l 1058 1261 b 1126 1275 1081 1261 1115 1258 b 1113 1372 1149 1297 1138 1340 b 1042 1400 1093 1397 1067 1400 l 988 1400 z m 1463 853 l 1560 853 l 1554 875 l 1490 875 l 1464 969 l 1515 969 l 1508 996 l 1457 996 l 1436 1076 l 1500 1076 l 1492 1107 l 1394 1107 z m 1051 1288 l 1028 1374 b 1068 1372 1040 1374 1051 1376 b 1101 1328 1092 1368 1097 1344 b 1090 1290 1107 1310 1108 1294 b 1051 1288 1076 1285 1064 1288 z m 1888 656 l 1906 656 l 1897 790 l 1882 790 l 1888 692 l 1842 790 l 1822 790 z m 1207 1146 l 1307 1146 l 1301 1167 l 1238 1167 l 1213 1261 l 1264 1261 l 1257 1288 l 1206 1288 l 1182 1374 l 1243 1374 l 1236 1400 l 1139 1400 z m 1946 656 l 1965 656 l 1929 790 l 1910 790 z m 2017 656 b 2033 700 2039 656 2047 676 b 1999 731 2029 714 2007 726 b 1969 769 1988 740 1968 753 b 2001 753 1974 783 1989 789 l 2019 756 b 1990 789 2014 769 2004 783 b 1958 785 1981 794 1968 790 b 1979 726 1940 769 1963 740 b 2019 686 1997 715 2018 703 b 2008 669 2022 675 2018 669 b 1986 700 1999 675 1989 690 l 1972 692 b 2017 656 1979 675 1993 656 z m 1731 849 b 1778 901 1764 849 1783 865 b 1764 963 1779 921 1769 940 b 1728 1071 1754 996 1751 1040 b 1653 1107 1713 1099 1683 1107 b 1603 1065 1626 1107 1604 1094 b 1628 956 1606 1032 1618 992 b 1646 903 1633 936 1638 921 b 1731 849 1660 865 1693 849 z m 1701 878 b 1674 932 1683 886 1678 913 l 1661 976 b 1640 1057 1654 1003 1642 1032 b 1660 1076 1640 1071 1646 1076 b 1692 1071 1668 1083 1679 1076 b 1713 1032 1707 1061 1710 1046 l 1738 940 b 1744 913 1740 932 1744 921 b 1732 878 1747 901 1743 886 b 1701 878 1725 875 1714 875 z m 2061 656 l 2083 656 l 2047 790 l 2025 790 z m 1267 1400 l 1335 1146 l 1374 1146 l 1343 1263 l 1368 1263 l 1433 1146 l 1465 1146 l 1400 1271 b 1369 1389 1440 1285 1413 1369 b 1267 1400 1339 1404 1301 1400 z m 2119 656 l 2133 656 l 2100 782 l 2121 782 l 2118 790 l 2057 790 l 2060 782 l 2086 782 z m 1336 1288 l 1313 1374 b 1350 1371 1322 1374 1336 1376 b 1379 1336 1367 1364 1376 1347 b 1372 1290 1386 1317 1385 1297 b 1336 1288 1360 1288 1346 1288 z m 1833 853 l 1860 853 l 1814 1025 l 1935 853 l 1960 853 l 1892 1107 l 1861 1107 l 1907 936 l 1789 1107 l 1765 1107 z m 1563 1143 b 1600 1221 1606 1143 1619 1179 b 1531 1288 1586 1249 1557 1267 b 1471 1353 1507 1301 1472 1325 b 1500 1376 1469 1369 1485 1376 b 1540 1328 1521 1371 1531 1344 l 1564 1338 b 1529 1389 1560 1356 1549 1379 b 1465 1397 1508 1401 1482 1404 b 1461 1299 1424 1389 1429 1338 b 1524 1253 1479 1282 1506 1267 b 1560 1225 1543 1242 1553 1232 b 1574 1175 1574 1210 1583 1186 b 1529 1179 1563 1167 1544 1167 b 1501 1225 1518 1189 1510 1206 l 1469 1215 b 1563 1143 1482 1175 1517 1143 z m 2000 853 l 2096 853 l 2090 875 l 2029 875 l 1967 1107 l 1932 1107 z m 1693 1171 b 1663 1222 1672 1181 1667 1206 l 1650 1267 b 1631 1347 1643 1293 1624 1328 b 1646 1374 1629 1364 1635 1372 b 1676 1364 1657 1376 1667 1376 b 1701 1322 1694 1353 1697 1338 l 1733 1206 b 1724 1171 1736 1193 1738 1179 b 1693 1171 1717 1167 1701 1167 z m 2269 853 l 2306 853 l 2297 886 l 2261 886 z m 2146 904 l 2160 853 l 2197 853 l 2181 914 b 2172 949 2178 924 2172 936 l 2178 1000 b 2183 1107 2182 1036 2183 1071 l 2149 1107 l 2143 985 l 2071 1107 l 2040 1107 l 2106 992 b 2136 942 2118 976 2126 963 b 2146 904 2140 932 2143 917 z m 1821 1146 l 1850 1146 l 1804 1317 l 1921 1146 l 1946 1146 l 1878 1400 l 1846 1400 l 1893 1228 l 1774 1400 l 1753 1400 z m 2267 906 l 2279 906 l 2238 1107 l 2201 1107 z m 1971 1146 l 2003 1146 l 2001 1206 l 2053 1206 l 2081 1146 l 2115 1146 l 1992 1400 l 1958 1400 z m 2000 1232 l 1990 1347 l 2042 1232 z m 2140 1146 l 2242 1146 l 2236 1167 l 2172 1167 l 2110 1400 l 2072 1400 z m 626 299 l 671 299 l 642 419 l 699 299 l 733 299 l 721 422 l 760 299 l 801 299 l 719 597 l 669 597 l 685 410 l 599 597 l 550 597 z m 840 299 l 888 299 l 849 444 l 940 299 l 976 299 l 896 597 l 849 597 l 888 454 l 799 597 l 760 597 z m 1011 299 l 1061 299 l 1046 353 l 996 353 z m 1165 294 b 1201 354 1196 303 1207 329 b 1140 454 1196 393 1175 426 l 1110 482 b 1071 517 1097 492 1082 499 b 1082 554 1064 528 1057 556 b 1117 497 1103 551 1107 517 l 1161 499 b 1097 594 1151 535 1136 578 b 1018 543 1050 614 1007 586 b 1049 474 1021 518 1032 492 b 1085 442 1057 461 1072 454 b 1150 368 1107 422 1143 399 b 1144 343 1154 354 1153 346 b 1124 353 1138 339 1129 346 b 1097 406 1107 368 1101 389 l 1051 403 b 1085 331 1058 376 1068 353 b 1165 294 1103 303 1138 290 z m 1343 307 l 1347 299 l 1386 299 l 1344 454 l 1268 454 l 1279 410 l 1308 410 b 1297 343 1314 393 1336 329 b 1264 406 1272 349 1268 390 l 1235 514 b 1251 554 1229 536 1228 558 b 1285 492 1267 549 1269 544 l 1333 492 b 1274 590 1324 524 1314 569 b 1204 597 1251 603 1225 603 b 1178 535 1181 586 1176 560 b 1200 449 1182 507 1192 478 b 1224 365 1208 419 1213 393 b 1271 304 1232 343 1247 314 b 1343 307 1294 290 1328 290 z m 1407 261 l 1449 261 l 1433 636 l 1386 636 z m 1619 293 b 1656 353 1650 300 1663 326 b 1593 453 1650 392 1626 425 l 1561 479 b 1526 514 1549 490 1536 499 b 1535 553 1519 526 1514 554 b 1568 496 1556 549 1563 514 l 1615 499 b 1550 593 1607 533 1589 578 b 1469 540 1506 611 1461 585 b 1504 471 1474 517 1483 490 b 1536 440 1510 461 1524 453 b 1603 365 1558 421 1594 399 b 1599 340 1606 353 1608 343 b 1578 351 1589 338 1581 343 b 1554 404 1563 368 1558 386 l 1507 401 b 1536 329 1514 375 1521 351 b 1619 293 1558 300 1593 289 z m 1697 296 l 1744 296 l 1719 390 b 1756 394 1739 390 1744 390 b 1783 496 1807 407 1790 471 b 1690 596 1767 560 1725 596 l 1618 596 z m 1735 435 l 1708 435 l 1676 553 l 1696 553 b 1735 435 1726 553 1750 443 z m 1863 296 l 1911 296 l 1876 426 l 1890 426 l 1951 296 l 2001 296 l 1932 435 b 1944 518 1953 453 1951 490 b 1871 596 1929 574 1893 596 l 1783 596 z m 1892 468 l 1865 468 l 1843 553 l 1858 553 b 1892 468 1889 553 1907 478 z m 2029 296 l 2081 296 l 2001 596 l 1950 596 z m 2106 296 l 2153 296 l 2114 443 l 2203 296 l 2242 296 l 2163 596 l 2115 596 l 2153 453 l 2063 596 l 2026 596 z m 2368 307 l 2374 296 l 2414 296 l 2372 453 l 2294 453 l 2307 407 l 2338 407 b 2325 340 2342 392 2363 329 b 2290 404 2301 349 2293 389 l 2271 475 b 2256 538 2265 493 2256 519 b 2276 553 2254 551 2267 556 b 2311 490 2286 550 2297 540 l 2360 490 b 2301 589 2351 522 2342 568 b 2235 596 2281 600 2251 601 b 2207 533 2207 585 2201 558 b 2226 447 2210 506 2219 475 b 2253 363 2235 418 2242 392 b 2299 303 2260 340 2276 314 b 2368 307 2322 290 2357 289 z m 2469 296 l 2522 296 l 2456 544 l 2496 544 l 2483 596 l 2349 596 l 2361 544 l 2403 544 z m 2633 299 b 2699 306 2656 293 2682 293 b 2703 404 2726 325 2711 369 l 2679 490 b 2622 589 2671 522 2661 568 b 2554 596 2600 600 2574 600 b 2528 532 2529 585 2522 558 b 2538 488 2531 517 2535 501 l 2561 404 b 2574 360 2564 390 2568 375 b 2633 299 2582 333 2603 308 z m 2654 340 b 2629 351 2644 339 2632 346 b 2607 410 2617 369 2611 394 l 2589 482 b 2578 543 2583 499 2576 522 b 2597 553 2578 546 2588 553 b 2618 533 2607 549 2614 544 b 2631 490 2625 519 2626 506 l 2654 404 b 2664 360 2657 389 2664 374 b 2654 340 2668 346 2661 346 z m 2778 296 l 2826 296 l 2814 447 l 2881 296 l 2931 296 l 2889 596 l 2840 596 l 2876 400 l 2793 596 l 2760 596 l 2778 400 l 2711 596 l 2664 596 z m 2981 296 l 3028 296 l 2989 443 l 3078 296 l 3117 296 l 3038 596 l 2990 596 l 3028 453 l 2939 596 l 2901 596 z "},"2":{"ha":3694,"x_min":0,"x_max":0,"o":"m 1713 1143 b 1768 1193 1750 1143 1771 1157 b 1758 1253 1769 1210 1764 1232 b 1719 1364 1750 1285 1742 1332 b 1639 1401 1703 1393 1667 1401 b 1594 1356 1614 1400 1592 1389 b 1618 1242 1593 1325 1608 1279 b 1633 1197 1622 1228 1625 1214 b 1713 1143 1647 1163 1674 1143 z m 1331 -54 b 1347 -6 1358 -54 1353 -26 l 1332 -6 b 1336 -31 1333 -14 1338 -22 b 1310 -35 1335 -42 1318 -43 b 1292 13 1299 -22 1294 3 b 1285 60 1289 24 1279 49 b 1314 57 1288 69 1304 69 b 1321 33 1318 49 1319 39 l 1336 33 b 1300 76 1331 53 1325 76 b 1265 38 1267 82 1260 61 b 1331 -54 1275 4 1281 -54 z m 1399 -37 b 1371 24 1381 -31 1375 10 l 1365 42 b 1389 61 1363 57 1369 69 b 1413 7 1403 57 1408 21 b 1399 -37 1417 -10 1431 -53 z m 1411 -54 b 1429 13 1450 -54 1436 -14 b 1376 76 1422 39 1415 76 b 1357 14 1339 82 1347 49 b 1411 -54 1364 -11 1369 -54 z m 1467 -53 l 1481 -53 l 1454 42 l 1503 -53 l 1517 -53 l 1511 42 l 1538 -53 l 1550 -53 l 1514 76 l 1494 76 l 1504 -26 l 1450 76 l 1432 76 z m 1379 111 l 1399 111 l 1383 171 l 1410 171 l 1406 182 l 1379 182 l 1368 228 l 1400 228 l 1396 240 l 1344 240 z m 1572 -53 l 1585 -53 l 1563 42 l 1606 -53 l 1621 -53 l 1615 42 l 1644 -53 l 1657 -53 l 1617 76 l 1601 76 l 1608 -26 l 1557 76 l 1538 76 z m 1478 111 b 1497 174 1514 111 1504 147 b 1446 243 1490 199 1483 236 b 1422 179 1406 243 1414 210 b 1478 111 1429 151 1438 111 z m 1469 122 b 1440 182 1446 129 1444 171 l 1435 203 b 1454 226 1431 221 1439 235 b 1482 169 1472 221 1478 182 b 1469 122 1486 151 1496 117 z m 1676 -53 l 1729 -53 l 1726 -42 l 1696 -42 l 1682 10 l 1707 10 l 1703 24 l 1678 24 l 1667 65 l 1697 65 l 1694 76 l 1642 76 z m 1497 240 l 1532 111 l 1547 111 l 1532 171 l 1546 171 l 1581 111 l 1600 111 l 1564 174 b 1547 236 1583 182 1569 226 b 1497 240 1531 243 1513 240 z m 1707 76 l 1742 -53 l 1763 -53 l 1746 10 l 1760 10 l 1792 -53 l 1810 -53 l 1772 13 b 1757 74 1790 21 1779 61 b 1707 76 1743 82 1725 76 z m 1528 182 l 1517 228 b 1556 206 1535 228 1550 226 b 1528 182 1561 185 1546 182 z m 1742 24 l 1731 65 b 1764 42 1747 65 1760 61 b 1742 24 1769 24 1758 24 z m 1860 -54 b 1881 -6 1890 -54 1886 -26 l 1863 -6 b 1867 -31 1864 -14 1871 -22 b 1842 -35 1869 -42 1851 -43 b 1824 13 1829 -22 1826 3 b 1817 60 1821 24 1810 49 b 1844 57 1821 69 1839 69 b 1851 33 1851 49 1850 39 l 1869 33 b 1833 76 1864 53 1856 76 b 1799 38 1801 82 1793 61 b 1860 -54 1808 4 1811 -54 z m 1665 111 l 1685 111 l 1654 228 l 1679 228 l 1675 240 l 1608 240 l 1613 228 l 1635 228 z m 1913 -53 l 1931 -53 l 1896 76 l 1878 76 z m 1718 111 l 1735 111 l 1719 171 l 1754 171 l 1769 111 l 1786 111 l 1751 240 l 1735 240 l 1750 182 l 1715 182 l 1700 240 l 1683 240 z m 1943 -53 l 1963 -53 l 1958 -19 l 1985 -19 l 2003 -53 l 2018 -53 l 1954 76 l 1938 76 z m 1960 -10 l 1953 53 l 1981 -10 z m 1807 111 l 1858 111 l 1856 121 l 1825 121 l 1813 171 l 1838 171 l 1833 182 l 1808 182 l 1797 228 l 1828 228 l 1824 240 l 1772 240 z m 2029 -53 l 2085 -53 l 2082 -42 l 2046 -42 l 2014 76 l 1994 76 z m 1914 111 l 1928 111 l 1913 171 l 1935 171 l 1931 182 l 1908 182 l 1897 228 l 1932 228 l 1928 240 l 1879 240 z m 2156 -53 l 2168 -53 l 2164 76 l 2149 76 l 2151 -19 l 2108 76 l 2093 76 z m 2019 111 b 2025 181 2043 121 2031 157 l 2008 240 l 1992 240 l 2007 182 b 2003 121 2011 167 2029 121 b 1969 182 1978 121 1974 167 l 1954 240 l 1939 240 l 1958 171 b 1965 142 1960 163 1961 151 b 2019 111 1975 117 1993 104 z m 2213 -53 l 2267 -53 l 2264 -42 l 2229 -42 l 2215 10 l 2243 10 l 2239 24 l 2211 24 l 2200 65 l 2235 65 l 2232 76 l 2178 76 z m 2064 111 l 2111 111 l 2108 121 l 2079 121 l 2047 240 l 2029 240 z m 2244 76 l 2279 -53 l 2297 -53 l 2281 10 l 2294 10 l 2326 -53 l 2344 -53 l 2307 13 b 2294 74 2329 18 2318 61 b 2244 76 2279 82 2260 76 z m 1363 790 l 1399 656 l 1415 656 l 1399 718 b 1435 726 1414 718 1426 715 b 1425 775 1440 735 1433 760 b 1363 790 1408 796 1379 790 z m 2276 24 l 2265 65 b 2299 42 2283 65 2294 61 b 2276 24 2304 24 2294 24 z m 2124 111 l 2174 111 l 2171 121 l 2139 121 l 2107 240 l 2089 240 z m 1396 729 l 1382 782 b 1415 758 1401 782 1410 782 b 1415 731 1419 746 1421 738 b 1396 729 1411 729 1403 729 z m 2394 -54 b 2410 -14 2418 -54 2424 -35 b 2376 24 2406 4 2386 13 b 2349 57 2363 33 2343 42 b 2365 65 2350 65 2356 69 b 2383 39 2374 61 2376 49 l 2394 46 b 2369 76 2390 60 2385 69 b 2336 69 2361 82 2346 81 b 2358 14 2321 60 2336 31 b 2400 -24 2369 7 2396 -10 b 2382 -37 2403 -35 2396 -43 b 2365 -11 2372 -35 2367 -19 l 2347 -14 b 2394 -54 2354 -37 2369 -54 z m 1481 656 l 1529 656 l 1525 669 l 1486 669 l 1454 790 l 1444 790 z m 1232 853 b 1236 992 1282 869 1249 947 l 1206 1107 l 1171 1107 l 1218 932 b 1185 875 1225 903 1226 864 b 1146 936 1160 886 1151 917 l 1100 1107 l 1068 1107 l 1110 949 b 1136 886 1117 924 1122 904 b 1232 853 1157 853 1204 838 z m 2440 -53 l 2457 -53 l 2422 76 l 2406 76 z m 2222 111 l 2238 111 l 2238 143 l 2263 143 l 2275 111 l 2294 111 l 2232 240 l 2211 240 z m 1542 656 l 1590 656 l 1586 669 l 1553 669 l 1540 718 l 1569 718 l 1567 731 l 1538 731 l 1524 782 l 1557 782 l 1554 790 l 1506 790 z m 2233 156 l 2226 215 l 2254 156 z m 2500 -37 b 2479 24 2482 -31 2483 10 l 2474 42 b 2493 61 2471 57 2471 69 b 2515 7 2507 57 2511 21 b 2500 -37 2519 -10 2532 -53 z m 2513 -54 b 2531 13 2551 -54 2538 -14 b 2482 76 2524 39 2518 76 b 2458 14 2440 82 2449 49 b 2513 -54 2465 -11 2474 -54 z m 1597 656 l 1614 656 l 1610 692 l 1638 692 l 1653 656 l 1672 656 l 1611 790 l 1589 790 z m 2307 111 l 2325 111 l 2301 199 l 2358 111 l 2372 111 l 2338 240 l 2319 240 l 2342 156 l 2283 240 l 2272 240 z m 1607 703 l 1603 769 l 1635 703 z m 1374 849 b 1410 926 1415 849 1429 886 b 1339 996 1399 961 1368 976 b 1283 1060 1315 1014 1281 1032 b 1313 1076 1283 1072 1293 1083 b 1350 1032 1331 1075 1344 1051 l 1376 1043 b 1339 1097 1372 1063 1360 1083 b 1274 1107 1318 1107 1290 1111 b 1271 1011 1238 1094 1243 1043 b 1333 963 1288 992 1315 976 b 1368 933 1350 956 1360 942 b 1381 883 1383 921 1393 892 b 1340 886 1372 872 1354 875 b 1317 932 1328 896 1322 917 l 1285 922 b 1374 849 1299 881 1331 849 z m 2568 -53 l 2578 -53 l 2553 38 l 2621 -53 l 2635 -53 l 2600 76 l 2585 76 l 2607 -10 l 2543 76 l 2533 76 z m 1715 656 b 1735 700 1740 656 1747 676 b 1696 731 1729 714 1710 722 b 1669 769 1685 740 1669 753 b 1704 753 1668 783 1685 789 l 1721 756 b 1692 789 1717 769 1706 783 b 1658 785 1678 794 1664 790 b 1681 726 1642 769 1661 740 b 1722 686 1693 715 1718 703 b 1704 669 1725 675 1718 669 b 1688 700 1694 675 1690 690 l 1672 692 b 1715 656 1678 675 1696 656 z m 2358 240 l 2393 111 b 2443 118 2404 111 2433 108 b 2440 174 2460 128 2444 156 b 2418 231 2436 192 2435 221 b 2358 240 2399 243 2372 240 z m 2408 121 l 2381 228 b 2417 206 2399 228 2410 228 l 2433 142 b 2408 121 2433 121 2422 121 z m 1761 656 l 1815 656 l 1811 669 l 1778 669 l 1765 718 l 1788 718 l 1785 731 l 1763 731 l 1749 782 l 1781 782 l 1778 790 l 1725 790 z m 1056 1146 l 1089 1146 l 1058 1261 b 1126 1275 1081 1261 1115 1258 b 1113 1372 1149 1297 1138 1340 b 1042 1400 1093 1397 1067 1400 l 988 1400 z m 1463 853 l 1560 853 l 1554 875 l 1490 875 l 1464 969 l 1515 969 l 1508 996 l 1457 996 l 1436 1076 l 1500 1076 l 1492 1107 l 1394 1107 z m 1051 1288 l 1028 1374 b 1068 1372 1040 1374 1051 1376 b 1101 1328 1092 1368 1097 1344 b 1090 1290 1107 1310 1108 1294 b 1051 1288 1076 1285 1064 1288 z m 1888 656 l 1906 656 l 1897 790 l 1882 790 l 1888 692 l 1842 790 l 1822 790 z m 1207 1146 l 1307 1146 l 1301 1167 l 1238 1167 l 1213 1261 l 1264 1261 l 1257 1288 l 1206 1288 l 1182 1374 l 1243 1374 l 1236 1400 l 1139 1400 z m 1946 656 l 1965 656 l 1929 790 l 1910 790 z m 2017 656 b 2033 700 2039 656 2047 676 b 1999 731 2029 714 2007 726 b 1969 769 1988 740 1968 753 b 2001 753 1974 783 1989 789 l 2019 756 b 1990 789 2014 769 2004 783 b 1958 785 1981 794 1968 790 b 1979 726 1940 769 1963 740 b 2019 686 1997 715 2018 703 b 2008 669 2022 675 2018 669 b 1986 700 1999 675 1989 690 l 1972 692 b 2017 656 1979 675 1993 656 z m 1731 849 b 1778 901 1764 849 1783 865 b 1764 963 1779 921 1769 940 b 1728 1071 1754 996 1751 1040 b 1653 1107 1713 1099 1683 1107 b 1603 1065 1626 1107 1604 1094 b 1628 956 1606 1032 1618 992 b 1646 903 1633 936 1638 921 b 1731 849 1660 865 1693 849 z m 1701 878 b 1674 932 1683 886 1678 913 l 1661 976 b 1640 1057 1654 1003 1642 1032 b 1660 1076 1640 1071 1646 1076 b 1692 1071 1668 1083 1679 1076 b 1713 1032 1707 1061 1710 1046 l 1738 940 b 1744 913 1740 932 1744 921 b 1732 878 1747 901 1743 886 b 1701 878 1725 875 1714 875 z m 2061 656 l 2083 656 l 2047 790 l 2025 790 z m 1267 1400 l 1335 1146 l 1374 1146 l 1343 1263 l 1368 1263 l 1433 1146 l 1465 1146 l 1400 1271 b 1369 1389 1440 1285 1413 1369 b 1267 1400 1339 1404 1301 1400 z m 2119 656 l 2133 656 l 2100 782 l 2121 782 l 2118 790 l 2057 790 l 2060 782 l 2086 782 z m 1336 1288 l 1313 1374 b 1350 1371 1322 1374 1336 1376 b 1379 1336 1367 1364 1376 1347 b 1372 1290 1386 1317 1385 1297 b 1336 1288 1360 1288 1346 1288 z m 1833 853 l 1860 853 l 1814 1025 l 1935 853 l 1960 853 l 1892 1107 l 1861 1107 l 1907 936 l 1789 1107 l 1765 1107 z m 1563 1143 b 1600 1221 1606 1143 1619 1179 b 1531 1288 1586 1249 1557 1267 b 1471 1353 1507 1301 1472 1325 b 1500 1376 1469 1369 1485 1376 b 1540 1328 1521 1371 1531 1344 l 1564 1338 b 1529 1389 1560 1356 1549 1379 b 1465 1397 1508 1401 1482 1404 b 1461 1299 1424 1389 1429 1338 b 1524 1253 1479 1282 1506 1267 b 1560 1225 1543 1242 1553 1232 b 1574 1175 1574 1210 1583 1186 b 1529 1179 1563 1167 1544 1167 b 1501 1225 1518 1189 1510 1206 l 1469 1215 b 1563 1143 1482 1175 1517 1143 z m 2000 853 l 2096 853 l 2090 875 l 2029 875 l 1967 1107 l 1932 1107 z m 1693 1171 b 1663 1222 1672 1181 1667 1206 l 1650 1267 b 1631 1347 1643 1293 1624 1328 b 1646 1374 1629 1364 1635 1372 b 1676 1364 1657 1376 1667 1376 b 1701 1322 1694 1353 1697 1338 l 1733 1206 b 1724 1171 1736 1193 1738 1179 b 1693 1171 1717 1167 1701 1167 z m 2269 853 l 2306 853 l 2297 886 l 2261 886 z m 2146 904 l 2160 853 l 2197 853 l 2181 914 b 2172 949 2178 924 2172 936 l 2178 1000 b 2183 1107 2182 1036 2183 1071 l 2149 1107 l 2143 985 l 2071 1107 l 2040 1107 l 2106 992 b 2136 942 2118 976 2126 963 b 2146 904 2140 932 2143 917 z m 1821 1146 l 1850 1146 l 1804 1317 l 1921 1146 l 1946 1146 l 1878 1400 l 1846 1400 l 1893 1228 l 1774 1400 l 1753 1400 z m 2267 906 l 2279 906 l 2238 1107 l 2201 1107 z m 1971 1146 l 2003 1146 l 2001 1206 l 2053 1206 l 2081 1146 l 2115 1146 l 1992 1400 l 1958 1400 z m 2000 1232 l 1990 1347 l 2042 1232 z m 2140 1146 l 2242 1146 l 2236 1167 l 2172 1167 l 2110 1400 l 2072 1400 z m 626 299 l 671 299 l 642 419 l 699 299 l 733 299 l 721 422 l 760 299 l 801 299 l 719 597 l 669 597 l 685 410 l 599 597 l 550 597 z m 840 299 l 888 299 l 849 444 l 940 299 l 976 299 l 896 597 l 849 597 l 888 454 l 799 597 l 760 597 z m 1011 299 l 1061 299 l 1046 353 l 996 353 z m 1165 294 b 1201 354 1196 303 1207 329 b 1140 454 1196 393 1175 426 l 1110 482 b 1071 517 1097 492 1082 499 b 1082 554 1064 528 1057 556 b 1117 497 1103 551 1107 517 l 1161 499 b 1097 594 1151 535 1136 578 b 1018 543 1050 614 1007 586 b 1049 474 1021 518 1032 492 b 1085 442 1057 461 1072 454 b 1150 368 1107 422 1143 399 b 1144 343 1154 354 1153 346 b 1124 353 1138 339 1129 346 b 1097 406 1107 368 1101 389 l 1051 403 b 1085 331 1058 376 1068 353 b 1165 294 1103 303 1138 290 z m 1343 307 l 1347 299 l 1386 299 l 1344 454 l 1268 454 l 1279 410 l 1308 410 b 1297 343 1314 393 1336 329 b 1264 406 1272 349 1268 390 l 1235 514 b 1251 554 1229 536 1228 558 b 1285 492 1267 549 1269 544 l 1333 492 b 1274 590 1324 524 1314 569 b 1204 597 1251 603 1225 603 b 1178 535 1181 586 1176 560 b 1200 449 1182 507 1192 478 b 1224 365 1208 419 1213 393 b 1271 304 1232 343 1247 314 b 1343 307 1294 290 1328 290 z m 1407 261 l 1449 261 l 1433 636 l 1386 636 z m 1619 293 b 1656 353 1650 300 1663 326 b 1593 453 1650 392 1626 425 l 1561 479 b 1526 514 1549 490 1536 499 b 1535 553 1519 526 1514 554 b 1568 496 1556 549 1563 514 l 1615 499 b 1550 593 1607 533 1589 578 b 1469 540 1506 611 1461 585 b 1504 471 1474 517 1483 490 b 1536 440 1510 461 1524 453 b 1603 365 1558 421 1594 399 b 1599 340 1606 353 1608 343 b 1578 351 1589 338 1581 343 b 1554 404 1563 368 1558 386 l 1507 401 b 1536 329 1514 375 1521 351 b 1619 293 1558 300 1593 289 z m 1697 296 l 1744 296 l 1719 390 b 1756 394 1739 390 1744 390 b 1783 496 1807 407 1790 471 b 1690 596 1767 560 1725 596 l 1618 596 z m 1735 435 l 1708 435 l 1676 553 l 1696 553 b 1735 435 1726 553 1750 443 z m 1863 296 l 1911 296 l 1876 426 l 1890 426 l 1951 296 l 2001 296 l 1932 435 b 1944 518 1953 453 1951 490 b 1871 596 1929 574 1893 596 l 1783 596 z m 1892 468 l 1865 468 l 1843 553 l 1858 553 b 1892 468 1889 553 1907 478 z m 2029 296 l 2081 296 l 2001 596 l 1950 596 z m 2106 296 l 2153 296 l 2114 443 l 2203 296 l 2242 296 l 2163 596 l 2115 596 l 2153 453 l 2063 596 l 2026 596 z m 2368 307 l 2374 296 l 2414 296 l 2372 453 l 2294 453 l 2307 407 l 2338 407 b 2325 340 2342 392 2363 329 b 2290 404 2301 349 2293 389 l 2271 475 b 2256 538 2265 493 2256 519 b 2276 553 2254 551 2267 556 b 2311 490 2286 550 2297 540 l 2360 490 b 2301 589 2351 522 2342 568 b 2235 596 2281 600 2251 601 b 2207 533 2207 585 2201 558 b 2226 447 2210 506 2219 475 b 2253 363 2235 418 2242 392 b 2299 303 2260 340 2276 314 b 2368 307 2322 290 2357 289 z m 2469 296 l 2522 296 l 2456 544 l 2496 544 l 2483 596 l 2349 596 l 2361 544 l 2403 544 z m 2633 299 b 2699 306 2656 293 2682 293 b 2703 404 2726 325 2711 369 l 2679 490 b 2622 589 2671 522 2661 568 b 2554 596 2600 600 2574 600 b 2528 532 2529 585 2522 558 b 2538 488 2531 517 2535 501 l 2561 404 b 2574 360 2564 390 2568 375 b 2633 299 2582 333 2603 308 z m 2654 340 b 2629 351 2644 339 2632 346 b 2607 410 2617 369 2611 394 l 2589 482 b 2578 543 2583 499 2576 522 b 2597 553 2578 546 2588 553 b 2618 533 2607 549 2614 544 b 2631 490 2625 519 2626 506 l 2654 404 b 2664 360 2657 389 2664 374 b 2654 340 2668 346 2661 346 z m 2778 296 l 2826 296 l 2814 447 l 2881 296 l 2931 296 l 2889 596 l 2840 596 l 2876 400 l 2793 596 l 2760 596 l 2778 400 l 2711 596 l 2664 596 z m 2981 296 l 3028 296 l 2989 443 l 3078 296 l 3117 296 l 3038 596 l 2990 596 l 3028 453 l 2939 596 l 2901 596 z "},"3":{"ha":3694,"x_min":0,"x_max":0,"o":"m 1713 1143 b 1768 1193 1750 1143 1771 1157 b 1758 1253 1769 1210 1764 1232 b 1719 1364 1750 1285 1742 1332 b 1639 1401 1703 1393 1667 1401 b 1594 1356 1614 1400 1592 1389 b 1618 1242 1593 1325 1608 1279 b 1633 1197 1622 1228 1625 1214 b 1713 1143 1647 1163 1674 1143 z m 1331 -54 b 1347 -6 1358 -54 1353 -26 l 1332 -6 b 1336 -31 1333 -14 1338 -22 b 1310 -35 1335 -42 1318 -43 b 1292 13 1299 -22 1294 3 b 1285 60 1289 24 1279 49 b 1314 57 1288 69 1304 69 b 1321 33 1318 49 1319 39 l 1336 33 b 1300 76 1331 53 1325 76 b 1265 38 1267 82 1260 61 b 1331 -54 1275 4 1281 -54 z m 1399 -37 b 1371 24 1381 -31 1375 10 l 1365 42 b 1389 61 1363 57 1369 69 b 1413 7 1403 57 1408 21 b 1399 -37 1417 -10 1431 -53 z m 1411 -54 b 1429 13 1450 -54 1436 -14 b 1376 76 1422 39 1415 76 b 1357 14 1339 82 1347 49 b 1411 -54 1364 -11 1369 -54 z m 1467 -53 l 1481 -53 l 1454 42 l 1503 -53 l 1517 -53 l 1511 42 l 1538 -53 l 1550 -53 l 1514 76 l 1494 76 l 1504 -26 l 1450 76 l 1432 76 z m 1379 111 l 1399 111 l 1383 171 l 1410 171 l 1406 182 l 1379 182 l 1368 228 l 1400 228 l 1396 240 l 1344 240 z m 1572 -53 l 1585 -53 l 1563 42 l 1606 -53 l 1621 -53 l 1615 42 l 1644 -53 l 1657 -53 l 1617 76 l 1601 76 l 1608 -26 l 1557 76 l 1538 76 z m 1478 111 b 1497 174 1514 111 1504 147 b 1446 243 1490 199 1483 236 b 1422 179 1406 243 1414 210 b 1478 111 1429 151 1438 111 z m 1469 122 b 1440 182 1446 129 1444 171 l 1435 203 b 1454 226 1431 221 1439 235 b 1482 169 1472 221 1478 182 b 1469 122 1486 151 1496 117 z m 1676 -53 l 1729 -53 l 1726 -42 l 1696 -42 l 1682 10 l 1707 10 l 1703 24 l 1678 24 l 1667 65 l 1697 65 l 1694 76 l 1642 76 z m 1497 240 l 1532 111 l 1547 111 l 1532 171 l 1546 171 l 1581 111 l 1600 111 l 1564 174 b 1547 236 1583 182 1569 226 b 1497 240 1531 243 1513 240 z m 1707 76 l 1742 -53 l 1763 -53 l 1746 10 l 1760 10 l 1792 -53 l 1810 -53 l 1772 13 b 1757 74 1790 21 1779 61 b 1707 76 1743 82 1725 76 z m 1528 182 l 1517 228 b 1556 206 1535 228 1550 226 b 1528 182 1561 185 1546 182 z m 1742 24 l 1731 65 b 1764 42 1747 65 1760 61 b 1742 24 1769 24 1758 24 z m 1860 -54 b 1881 -6 1890 -54 1886 -26 l 1863 -6 b 1867 -31 1864 -14 1871 -22 b 1842 -35 1869 -42 1851 -43 b 1824 13 1829 -22 1826 3 b 1817 60 1821 24 1810 49 b 1844 57 1821 69 1839 69 b 1851 33 1851 49 1850 39 l 1869 33 b 1833 76 1864 53 1856 76 b 1799 38 1801 82 1793 61 b 1860 -54 1808 4 1811 -54 z m 1665 111 l 1685 111 l 1654 228 l 1679 228 l 1675 240 l 1608 240 l 1613 228 l 1635 228 z m 1913 -53 l 1931 -53 l 1896 76 l 1878 76 z m 1718 111 l 1735 111 l 1719 171 l 1754 171 l 1769 111 l 1786 111 l 1751 240 l 1735 240 l 1750 182 l 1715 182 l 1700 240 l 1683 240 z m 1943 -53 l 1963 -53 l 1958 -19 l 1985 -19 l 2003 -53 l 2018 -53 l 1954 76 l 1938 76 z m 1960 -10 l 1953 53 l 1981 -10 z m 1807 111 l 1858 111 l 1856 121 l 1825 121 l 1813 171 l 1838 171 l 1833 182 l 1808 182 l 1797 228 l 1828 228 l 1824 240 l 1772 240 z m 2029 -53 l 2085 -53 l 2082 -42 l 2046 -42 l 2014 76 l 1994 76 z m 1914 111 l 1928 111 l 1913 171 l 1935 171 l 1931 182 l 1908 182 l 1897 228 l 1932 228 l 1928 240 l 1879 240 z m 2156 -53 l 2168 -53 l 2164 76 l 2149 76 l 2151 -19 l 2108 76 l 2093 76 z m 2019 111 b 2025 181 2043 121 2031 157 l 2008 240 l 1992 240 l 2007 182 b 2003 121 2011 167 2029 121 b 1969 182 1978 121 1974 167 l 1954 240 l 1939 240 l 1958 171 b 1965 142 1960 163 1961 151 b 2019 111 1975 117 1993 104 z m 2213 -53 l 2267 -53 l 2264 -42 l 2229 -42 l 2215 10 l 2243 10 l 2239 24 l 2211 24 l 2200 65 l 2235 65 l 2232 76 l 2178 76 z m 2064 111 l 2111 111 l 2108 121 l 2079 121 l 2047 240 l 2029 240 z m 2244 76 l 2279 -53 l 2297 -53 l 2281 10 l 2294 10 l 2326 -53 l 2344 -53 l 2307 13 b 2294 74 2329 18 2318 61 b 2244 76 2279 82 2260 76 z m 1363 790 l 1399 656 l 1415 656 l 1399 718 b 1435 726 1414 718 1426 715 b 1425 775 1440 735 1433 760 b 1363 790 1408 796 1379 790 z m 2276 24 l 2265 65 b 2299 42 2283 65 2294 61 b 2276 24 2304 24 2294 24 z m 2124 111 l 2174 111 l 2171 121 l 2139 121 l 2107 240 l 2089 240 z m 1396 729 l 1382 782 b 1415 758 1401 782 1410 782 b 1415 731 1419 746 1421 738 b 1396 729 1411 729 1403 729 z m 2394 -54 b 2410 -14 2418 -54 2424 -35 b 2376 24 2406 4 2386 13 b 2349 57 2363 33 2343 42 b 2365 65 2350 65 2356 69 b 2383 39 2374 61 2376 49 l 2394 46 b 2369 76 2390 60 2385 69 b 2336 69 2361 82 2346 81 b 2358 14 2321 60 2336 31 b 2400 -24 2369 7 2396 -10 b 2382 -37 2403 -35 2396 -43 b 2365 -11 2372 -35 2367 -19 l 2347 -14 b 2394 -54 2354 -37 2369 -54 z m 1481 656 l 1529 656 l 1525 669 l 1486 669 l 1454 790 l 1444 790 z m 1232 853 b 1236 992 1282 869 1249 947 l 1206 1107 l 1171 1107 l 1218 932 b 1185 875 1225 903 1226 864 b 1146 936 1160 886 1151 917 l 1100 1107 l 1068 1107 l 1110 949 b 1136 886 1117 924 1122 904 b 1232 853 1157 853 1204 838 z m 2440 -53 l 2457 -53 l 2422 76 l 2406 76 z m 2222 111 l 2238 111 l 2238 143 l 2263 143 l 2275 111 l 2294 111 l 2232 240 l 2211 240 z m 1542 656 l 1590 656 l 1586 669 l 1553 669 l 1540 718 l 1569 718 l 1567 731 l 1538 731 l 1524 782 l 1557 782 l 1554 790 l 1506 790 z m 2233 156 l 2226 215 l 2254 156 z m 2500 -37 b 2479 24 2482 -31 2483 10 l 2474 42 b 2493 61 2471 57 2471 69 b 2515 7 2507 57 2511 21 b 2500 -37 2519 -10 2532 -53 z m 2513 -54 b 2531 13 2551 -54 2538 -14 b 2482 76 2524 39 2518 76 b 2458 14 2440 82 2449 49 b 2513 -54 2465 -11 2474 -54 z m 1597 656 l 1614 656 l 1610 692 l 1638 692 l 1653 656 l 1672 656 l 1611 790 l 1589 790 z m 2307 111 l 2325 111 l 2301 199 l 2358 111 l 2372 111 l 2338 240 l 2319 240 l 2342 156 l 2283 240 l 2272 240 z m 1607 703 l 1603 769 l 1635 703 z m 1374 849 b 1410 926 1415 849 1429 886 b 1339 996 1399 961 1368 976 b 1283 1060 1315 1014 1281 1032 b 1313 1076 1283 1072 1293 1083 b 1350 1032 1331 1075 1344 1051 l 1376 1043 b 1339 1097 1372 1063 1360 1083 b 1274 1107 1318 1107 1290 1111 b 1271 1011 1238 1094 1243 1043 b 1333 963 1288 992 1315 976 b 1368 933 1350 956 1360 942 b 1381 883 1383 921 1393 892 b 1340 886 1372 872 1354 875 b 1317 932 1328 896 1322 917 l 1285 922 b 1374 849 1299 881 1331 849 z m 2568 -53 l 2578 -53 l 2553 38 l 2621 -53 l 2635 -53 l 2600 76 l 2585 76 l 2607 -10 l 2543 76 l 2533 76 z m 1715 656 b 1735 700 1740 656 1747 676 b 1696 731 1729 714 1710 722 b 1669 769 1685 740 1669 753 b 1704 753 1668 783 1685 789 l 1721 756 b 1692 789 1717 769 1706 783 b 1658 785 1678 794 1664 790 b 1681 726 1642 769 1661 740 b 1722 686 1693 715 1718 703 b 1704 669 1725 675 1718 669 b 1688 700 1694 675 1690 690 l 1672 692 b 1715 656 1678 675 1696 656 z m 2358 240 l 2393 111 b 2443 118 2404 111 2433 108 b 2440 174 2460 128 2444 156 b 2418 231 2436 192 2435 221 b 2358 240 2399 243 2372 240 z m 2408 121 l 2381 228 b 2417 206 2399 228 2410 228 l 2433 142 b 2408 121 2433 121 2422 121 z m 1761 656 l 1815 656 l 1811 669 l 1778 669 l 1765 718 l 1788 718 l 1785 731 l 1763 731 l 1749 782 l 1781 782 l 1778 790 l 1725 790 z m 1056 1146 l 1089 1146 l 1058 1261 b 1126 1275 1081 1261 1115 1258 b 1113 1372 1149 1297 1138 1340 b 1042 1400 1093 1397 1067 1400 l 988 1400 z m 1463 853 l 1560 853 l 1554 875 l 1490 875 l 1464 969 l 1515 969 l 1508 996 l 1457 996 l 1436 1076 l 1500 1076 l 1492 1107 l 1394 1107 z m 1051 1288 l 1028 1374 b 1068 1372 1040 1374 1051 1376 b 1101 1328 1092 1368 1097 1344 b 1090 1290 1107 1310 1108 1294 b 1051 1288 1076 1285 1064 1288 z m 1888 656 l 1906 656 l 1897 790 l 1882 790 l 1888 692 l 1842 790 l 1822 790 z m 1207 1146 l 1307 1146 l 1301 1167 l 1238 1167 l 1213 1261 l 1264 1261 l 1257 1288 l 1206 1288 l 1182 1374 l 1243 1374 l 1236 1400 l 1139 1400 z m 1946 656 l 1965 656 l 1929 790 l 1910 790 z m 2017 656 b 2033 700 2039 656 2047 676 b 1999 731 2029 714 2007 726 b 1969 769 1988 740 1968 753 b 2001 753 1974 783 1989 789 l 2019 756 b 1990 789 2014 769 2004 783 b 1958 785 1981 794 1968 790 b 1979 726 1940 769 1963 740 b 2019 686 1997 715 2018 703 b 2008 669 2022 675 2018 669 b 1986 700 1999 675 1989 690 l 1972 692 b 2017 656 1979 675 1993 656 z m 1731 849 b 1778 901 1764 849 1783 865 b 1764 963 1779 921 1769 940 b 1728 1071 1754 996 1751 1040 b 1653 1107 1713 1099 1683 1107 b 1603 1065 1626 1107 1604 1094 b 1628 956 1606 1032 1618 992 b 1646 903 1633 936 1638 921 b 1731 849 1660 865 1693 849 z m 1701 878 b 1674 932 1683 886 1678 913 l 1661 976 b 1640 1057 1654 1003 1642 1032 b 1660 1076 1640 1071 1646 1076 b 1692 1071 1668 1083 1679 1076 b 1713 1032 1707 1061 1710 1046 l 1738 940 b 1744 913 1740 932 1744 921 b 1732 878 1747 901 1743 886 b 1701 878 1725 875 1714 875 z m 2061 656 l 2083 656 l 2047 790 l 2025 790 z m 1267 1400 l 1335 1146 l 1374 1146 l 1343 1263 l 1368 1263 l 1433 1146 l 1465 1146 l 1400 1271 b 1369 1389 1440 1285 1413 1369 b 1267 1400 1339 1404 1301 1400 z m 2119 656 l 2133 656 l 2100 782 l 2121 782 l 2118 790 l 2057 790 l 2060 782 l 2086 782 z m 1336 1288 l 1313 1374 b 1350 1371 1322 1374 1336 1376 b 1379 1336 1367 1364 1376 1347 b 1372 1290 1386 1317 1385 1297 b 1336 1288 1360 1288 1346 1288 z m 1833 853 l 1860 853 l 1814 1025 l 1935 853 l 1960 853 l 1892 1107 l 1861 1107 l 1907 936 l 1789 1107 l 1765 1107 z m 1563 1143 b 1600 1221 1606 1143 1619 1179 b 1531 1288 1586 1249 1557 1267 b 1471 1353 1507 1301 1472 1325 b 1500 1376 1469 1369 1485 1376 b 1540 1328 1521 1371 1531 1344 l 1564 1338 b 1529 1389 1560 1356 1549 1379 b 1465 1397 1508 1401 1482 1404 b 1461 1299 1424 1389 1429 1338 b 1524 1253 1479 1282 1506 1267 b 1560 1225 1543 1242 1553 1232 b 1574 1175 1574 1210 1583 1186 b 1529 1179 1563 1167 1544 1167 b 1501 1225 1518 1189 1510 1206 l 1469 1215 b 1563 1143 1482 1175 1517 1143 z m 2000 853 l 2096 853 l 2090 875 l 2029 875 l 1967 1107 l 1932 1107 z m 1693 1171 b 1663 1222 1672 1181 1667 1206 l 1650 1267 b 1631 1347 1643 1293 1624 1328 b 1646 1374 1629 1364 1635 1372 b 1676 1364 1657 1376 1667 1376 b 1701 1322 1694 1353 1697 1338 l 1733 1206 b 1724 1171 1736 1193 1738 1179 b 1693 1171 1717 1167 1701 1167 z m 2269 853 l 2306 853 l 2297 886 l 2261 886 z m 2146 904 l 2160 853 l 2197 853 l 2181 914 b 2172 949 2178 924 2172 936 l 2178 1000 b 2183 1107 2182 1036 2183 1071 l 2149 1107 l 2143 985 l 2071 1107 l 2040 1107 l 2106 992 b 2136 942 2118 976 2126 963 b 2146 904 2140 932 2143 917 z m 1821 1146 l 1850 1146 l 1804 1317 l 1921 1146 l 1946 1146 l 1878 1400 l 1846 1400 l 1893 1228 l 1774 1400 l 1753 1400 z m 2267 906 l 2279 906 l 2238 1107 l 2201 1107 z m 1971 1146 l 2003 1146 l 2001 1206 l 2053 1206 l 2081 1146 l 2115 1146 l 1992 1400 l 1958 1400 z m 2000 1232 l 1990 1347 l 2042 1232 z m 2140 1146 l 2242 1146 l 2236 1167 l 2172 1167 l 2110 1400 l 2072 1400 z m 626 299 l 671 299 l 642 419 l 699 299 l 733 299 l 721 422 l 760 299 l 801 299 l 719 597 l 669 597 l 685 410 l 599 597 l 550 597 z m 840 299 l 888 299 l 849 444 l 940 299 l 976 299 l 896 597 l 849 597 l 888 454 l 799 597 l 760 597 z m 1011 299 l 1061 299 l 1046 353 l 996 353 z m 1165 294 b 1201 354 1196 303 1207 329 b 1140 454 1196 393 1175 426 l 1110 482 b 1071 517 1097 492 1082 499 b 1082 554 1064 528 1057 556 b 1117 497 1103 551 1107 517 l 1161 499 b 1097 594 1151 535 1136 578 b 1018 543 1050 614 1007 586 b 1049 474 1021 518 1032 492 b 1085 442 1057 461 1072 454 b 1150 368 1107 422 1143 399 b 1144 343 1154 354 1153 346 b 1124 353 1138 339 1129 346 b 1097 406 1107 368 1101 389 l 1051 403 b 1085 331 1058 376 1068 353 b 1165 294 1103 303 1138 290 z m 1343 307 l 1347 299 l 1386 299 l 1344 454 l 1268 454 l 1279 410 l 1308 410 b 1297 343 1314 393 1336 329 b 1264 406 1272 349 1268 390 l 1235 514 b 1251 554 1229 536 1228 558 b 1285 492 1267 549 1269 544 l 1333 492 b 1274 590 1324 524 1314 569 b 1204 597 1251 603 1225 603 b 1178 535 1181 586 1176 560 b 1200 449 1182 507 1192 478 b 1224 365 1208 419 1213 393 b 1271 304 1232 343 1247 314 b 1343 307 1294 290 1328 290 z m 1407 261 l 1449 261 l 1433 636 l 1386 636 z m 1619 293 b 1656 353 1650 300 1663 326 b 1593 453 1650 392 1626 425 l 1561 479 b 1526 514 1549 490 1536 499 b 1535 553 1519 526 1514 554 b 1568 496 1556 549 1563 514 l 1615 499 b 1550 593 1607 533 1589 578 b 1469 540 1506 611 1461 585 b 1504 471 1474 517 1483 490 b 1536 440 1510 461 1524 453 b 1603 365 1558 421 1594 399 b 1599 340 1606 353 1608 343 b 1578 351 1589 338 1581 343 b 1554 404 1563 368 1558 386 l 1507 401 b 1536 329 1514 375 1521 351 b 1619 293 1558 300 1593 289 z m 1697 296 l 1744 296 l 1719 390 b 1756 394 1739 390 1744 390 b 1783 496 1807 407 1790 471 b 1690 596 1767 560 1725 596 l 1618 596 z m 1735 435 l 1708 435 l 1676 553 l 1696 553 b 1735 435 1726 553 1750 443 z m 1863 296 l 1911 296 l 1876 426 l 1890 426 l 1951 296 l 2001 296 l 1932 435 b 1944 518 1953 453 1951 490 b 1871 596 1929 574 1893 596 l 1783 596 z m 1892 468 l 1865 468 l 1843 553 l 1858 553 b 1892 468 1889 553 1907 478 z m 2029 296 l 2081 296 l 2001 596 l 1950 596 z m 2106 296 l 2153 296 l 2114 443 l 2203 296 l 2242 296 l 2163 596 l 2115 596 l 2153 453 l 2063 596 l 2026 596 z m 2368 307 l 2374 296 l 2414 296 l 2372 453 l 2294 453 l 2307 407 l 2338 407 b 2325 340 2342 392 2363 329 b 2290 404 2301 349 2293 389 l 2271 475 b 2256 538 2265 493 2256 519 b 2276 553 2254 551 2267 556 b 2311 490 2286 550 2297 540 l 2360 490 b 2301 589 2351 522 2342 568 b 2235 596 2281 600 2251 601 b 2207 533 2207 585 2201 558 b 2226 447 2210 506 2219 475 b 2253 363 2235 418 2242 392 b 2299 303 2260 340 2276 314 b 2368 307 2322 290 2357 289 z m 2469 296 l 2522 296 l 2456 544 l 2496 544 l 2483 596 l 2349 596 l 2361 544 l 2403 544 z m 2633 299 b 2699 306 2656 293 2682 293 b 2703 404 2726 325 2711 369 l 2679 490 b 2622 589 2671 522 2661 568 b 2554 596 2600 600 2574 600 b 2528 532 2529 585 2522 558 b 2538 488 2531 517 2535 501 l 2561 404 b 2574 360 2564 390 2568 375 b 2633 299 2582 333 2603 308 z m 2654 340 b 2629 351 2644 339 2632 346 b 2607 410 2617 369 2611 394 l 2589 482 b 2578 543 2583 499 2576 522 b 2597 553 2578 546 2588 553 b 2618 533 2607 549 2614 544 b 2631 490 2625 519 2626 506 l 2654 404 b 2664 360 2657 389 2664 374 b 2654 340 2668 346 2661 346 z m 2778 296 l 2826 296 l 2814 447 l 2881 296 l 2931 296 l 2889 596 l 2840 596 l 2876 400 l 2793 596 l 2760 596 l 2778 400 l 2711 596 l 2664 596 z m 2981 296 l 3028 296 l 2989 443 l 3078 296 l 3117 296 l 3038 596 l 2990 596 l 3028 453 l 2939 596 l 2901 596 z "},"4":{"ha":3694,"x_min":0,"x_max":0,"o":"m 1713 1143 b 1768 1193 1750 1143 1771 1157 b 1758 1253 1769 1210 1764 1232 b 1719 1364 1750 1285 1742 1332 b 1639 1401 1703 1393 1667 1401 b 1594 1356 1614 1400 1592 1389 b 1618 1242 1593 1325 1608 1279 b 1633 1197 1622 1228 1625 1214 b 1713 1143 1647 1163 1674 1143 z m 1331 -54 b 1347 -6 1358 -54 1353 -26 l 1332 -6 b 1336 -31 1333 -14 1338 -22 b 1310 -35 1335 -42 1318 -43 b 1292 13 1299 -22 1294 3 b 1285 60 1289 24 1279 49 b 1314 57 1288 69 1304 69 b 1321 33 1318 49 1319 39 l 1336 33 b 1300 76 1331 53 1325 76 b 1265 38 1267 82 1260 61 b 1331 -54 1275 4 1281 -54 z m 1399 -37 b 1371 24 1381 -31 1375 10 l 1365 42 b 1389 61 1363 57 1369 69 b 1413 7 1403 57 1408 21 b 1399 -37 1417 -10 1431 -53 z m 1411 -54 b 1429 13 1450 -54 1436 -14 b 1376 76 1422 39 1415 76 b 1357 14 1339 82 1347 49 b 1411 -54 1364 -11 1369 -54 z m 1467 -53 l 1481 -53 l 1454 42 l 1503 -53 l 1517 -53 l 1511 42 l 1538 -53 l 1550 -53 l 1514 76 l 1494 76 l 1504 -26 l 1450 76 l 1432 76 z m 1379 111 l 1399 111 l 1383 171 l 1410 171 l 1406 182 l 1379 182 l 1368 228 l 1400 228 l 1396 240 l 1344 240 z m 1572 -53 l 1585 -53 l 1563 42 l 1606 -53 l 1621 -53 l 1615 42 l 1644 -53 l 1657 -53 l 1617 76 l 1601 76 l 1608 -26 l 1557 76 l 1538 76 z m 1478 111 b 1497 174 1514 111 1504 147 b 1446 243 1490 199 1483 236 b 1422 179 1406 243 1414 210 b 1478 111 1429 151 1438 111 z m 1469 122 b 1440 182 1446 129 1444 171 l 1435 203 b 1454 226 1431 221 1439 235 b 1482 169 1472 221 1478 182 b 1469 122 1486 151 1496 117 z m 1676 -53 l 1729 -53 l 1726 -42 l 1696 -42 l 1682 10 l 1707 10 l 1703 24 l 1678 24 l 1667 65 l 1697 65 l 1694 76 l 1642 76 z m 1497 240 l 1532 111 l 1547 111 l 1532 171 l 1546 171 l 1581 111 l 1600 111 l 1564 174 b 1547 236 1583 182 1569 226 b 1497 240 1531 243 1513 240 z m 1707 76 l 1742 -53 l 1763 -53 l 1746 10 l 1760 10 l 1792 -53 l 1810 -53 l 1772 13 b 1757 74 1790 21 1779 61 b 1707 76 1743 82 1725 76 z m 1528 182 l 1517 228 b 1556 206 1535 228 1550 226 b 1528 182 1561 185 1546 182 z m 1742 24 l 1731 65 b 1764 42 1747 65 1760 61 b 1742 24 1769 24 1758 24 z m 1860 -54 b 1881 -6 1890 -54 1886 -26 l 1863 -6 b 1867 -31 1864 -14 1871 -22 b 1842 -35 1869 -42 1851 -43 b 1824 13 1829 -22 1826 3 b 1817 60 1821 24 1810 49 b 1844 57 1821 69 1839 69 b 1851 33 1851 49 1850 39 l 1869 33 b 1833 76 1864 53 1856 76 b 1799 38 1801 82 1793 61 b 1860 -54 1808 4 1811 -54 z m 1665 111 l 1685 111 l 1654 228 l 1679 228 l 1675 240 l 1608 240 l 1613 228 l 1635 228 z m 1913 -53 l 1931 -53 l 1896 76 l 1878 76 z m 1718 111 l 1735 111 l 1719 171 l 1754 171 l 1769 111 l 1786 111 l 1751 240 l 1735 240 l 1750 182 l 1715 182 l 1700 240 l 1683 240 z m 1943 -53 l 1963 -53 l 1958 -19 l 1985 -19 l 2003 -53 l 2018 -53 l 1954 76 l 1938 76 z m 1960 -10 l 1953 53 l 1981 -10 z m 1807 111 l 1858 111 l 1856 121 l 1825 121 l 1813 171 l 1838 171 l 1833 182 l 1808 182 l 1797 228 l 1828 228 l 1824 240 l 1772 240 z m 2029 -53 l 2085 -53 l 2082 -42 l 2046 -42 l 2014 76 l 1994 76 z m 1914 111 l 1928 111 l 1913 171 l 1935 171 l 1931 182 l 1908 182 l 1897 228 l 1932 228 l 1928 240 l 1879 240 z m 2156 -53 l 2168 -53 l 2164 76 l 2149 76 l 2151 -19 l 2108 76 l 2093 76 z m 2019 111 b 2025 181 2043 121 2031 157 l 2008 240 l 1992 240 l 2007 182 b 2003 121 2011 167 2029 121 b 1969 182 1978 121 1974 167 l 1954 240 l 1939 240 l 1958 171 b 1965 142 1960 163 1961 151 b 2019 111 1975 117 1993 104 z m 2213 -53 l 2267 -53 l 2264 -42 l 2229 -42 l 2215 10 l 2243 10 l 2239 24 l 2211 24 l 2200 65 l 2235 65 l 2232 76 l 2178 76 z m 2064 111 l 2111 111 l 2108 121 l 2079 121 l 2047 240 l 2029 240 z m 2244 76 l 2279 -53 l 2297 -53 l 2281 10 l 2294 10 l 2326 -53 l 2344 -53 l 2307 13 b 2294 74 2329 18 2318 61 b 2244 76 2279 82 2260 76 z m 1363 790 l 1399 656 l 1415 656 l 1399 718 b 1435 726 1414 718 1426 715 b 1425 775 1440 735 1433 760 b 1363 790 1408 796 1379 790 z m 2276 24 l 2265 65 b 2299 42 2283 65 2294 61 b 2276 24 2304 24 2294 24 z m 2124 111 l 2174 111 l 2171 121 l 2139 121 l 2107 240 l 2089 240 z m 1396 729 l 1382 782 b 1415 758 1401 782 1410 782 b 1415 731 1419 746 1421 738 b 1396 729 1411 729 1403 729 z m 2394 -54 b 2410 -14 2418 -54 2424 -35 b 2376 24 2406 4 2386 13 b 2349 57 2363 33 2343 42 b 2365 65 2350 65 2356 69 b 2383 39 2374 61 2376 49 l 2394 46 b 2369 76 2390 60 2385 69 b 2336 69 2361 82 2346 81 b 2358 14 2321 60 2336 31 b 2400 -24 2369 7 2396 -10 b 2382 -37 2403 -35 2396 -43 b 2365 -11 2372 -35 2367 -19 l 2347 -14 b 2394 -54 2354 -37 2369 -54 z m 1481 656 l 1529 656 l 1525 669 l 1486 669 l 1454 790 l 1444 790 z m 1232 853 b 1236 992 1282 869 1249 947 l 1206 1107 l 1171 1107 l 1218 932 b 1185 875 1225 903 1226 864 b 1146 936 1160 886 1151 917 l 1100 1107 l 1068 1107 l 1110 949 b 1136 886 1117 924 1122 904 b 1232 853 1157 853 1204 838 z m 2440 -53 l 2457 -53 l 2422 76 l 2406 76 z m 2222 111 l 2238 111 l 2238 143 l 2263 143 l 2275 111 l 2294 111 l 2232 240 l 2211 240 z m 1542 656 l 1590 656 l 1586 669 l 1553 669 l 1540 718 l 1569 718 l 1567 731 l 1538 731 l 1524 782 l 1557 782 l 1554 790 l 1506 790 z m 2233 156 l 2226 215 l 2254 156 z m 2500 -37 b 2479 24 2482 -31 2483 10 l 2474 42 b 2493 61 2471 57 2471 69 b 2515 7 2507 57 2511 21 b 2500 -37 2519 -10 2532 -53 z m 2513 -54 b 2531 13 2551 -54 2538 -14 b 2482 76 2524 39 2518 76 b 2458 14 2440 82 2449 49 b 2513 -54 2465 -11 2474 -54 z m 1597 656 l 1614 656 l 1610 692 l 1638 692 l 1653 656 l 1672 656 l 1611 790 l 1589 790 z m 2307 111 l 2325 111 l 2301 199 l 2358 111 l 2372 111 l 2338 240 l 2319 240 l 2342 156 l 2283 240 l 2272 240 z m 1607 703 l 1603 769 l 1635 703 z m 1374 849 b 1410 926 1415 849 1429 886 b 1339 996 1399 961 1368 976 b 1283 1060 1315 1014 1281 1032 b 1313 1076 1283 1072 1293 1083 b 1350 1032 1331 1075 1344 1051 l 1376 1043 b 1339 1097 1372 1063 1360 1083 b 1274 1107 1318 1107 1290 1111 b 1271 1011 1238 1094 1243 1043 b 1333 963 1288 992 1315 976 b 1368 933 1350 956 1360 942 b 1381 883 1383 921 1393 892 b 1340 886 1372 872 1354 875 b 1317 932 1328 896 1322 917 l 1285 922 b 1374 849 1299 881 1331 849 z m 2568 -53 l 2578 -53 l 2553 38 l 2621 -53 l 2635 -53 l 2600 76 l 2585 76 l 2607 -10 l 2543 76 l 2533 76 z m 1715 656 b 1735 700 1740 656 1747 676 b 1696 731 1729 714 1710 722 b 1669 769 1685 740 1669 753 b 1704 753 1668 783 1685 789 l 1721 756 b 1692 789 1717 769 1706 783 b 1658 785 1678 794 1664 790 b 1681 726 1642 769 1661 740 b 1722 686 1693 715 1718 703 b 1704 669 1725 675 1718 669 b 1688 700 1694 675 1690 690 l 1672 692 b 1715 656 1678 675 1696 656 z m 2358 240 l 2393 111 b 2443 118 2404 111 2433 108 b 2440 174 2460 128 2444 156 b 2418 231 2436 192 2435 221 b 2358 240 2399 243 2372 240 z m 2408 121 l 2381 228 b 2417 206 2399 228 2410 228 l 2433 142 b 2408 121 2433 121 2422 121 z m 1761 656 l 1815 656 l 1811 669 l 1778 669 l 1765 718 l 1788 718 l 1785 731 l 1763 731 l 1749 782 l 1781 782 l 1778 790 l 1725 790 z m 1056 1146 l 1089 1146 l 1058 1261 b 1126 1275 1081 1261 1115 1258 b 1113 1372 1149 1297 1138 1340 b 1042 1400 1093 1397 1067 1400 l 988 1400 z m 1463 853 l 1560 853 l 1554 875 l 1490 875 l 1464 969 l 1515 969 l 1508 996 l 1457 996 l 1436 1076 l 1500 1076 l 1492 1107 l 1394 1107 z m 1051 1288 l 1028 1374 b 1068 1372 1040 1374 1051 1376 b 1101 1328 1092 1368 1097 1344 b 1090 1290 1107 1310 1108 1294 b 1051 1288 1076 1285 1064 1288 z m 1888 656 l 1906 656 l 1897 790 l 1882 790 l 1888 692 l 1842 790 l 1822 790 z m 1207 1146 l 1307 1146 l 1301 1167 l 1238 1167 l 1213 1261 l 1264 1261 l 1257 1288 l 1206 1288 l 1182 1374 l 1243 1374 l 1236 1400 l 1139 1400 z m 1946 656 l 1965 656 l 1929 790 l 1910 790 z m 2017 656 b 2033 700 2039 656 2047 676 b 1999 731 2029 714 2007 726 b 1969 769 1988 740 1968 753 b 2001 753 1974 783 1989 789 l 2019 756 b 1990 789 2014 769 2004 783 b 1958 785 1981 794 1968 790 b 1979 726 1940 769 1963 740 b 2019 686 1997 715 2018 703 b 2008 669 2022 675 2018 669 b 1986 700 1999 675 1989 690 l 1972 692 b 2017 656 1979 675 1993 656 z m 1731 849 b 1778 901 1764 849 1783 865 b 1764 963 1779 921 1769 940 b 1728 1071 1754 996 1751 1040 b 1653 1107 1713 1099 1683 1107 b 1603 1065 1626 1107 1604 1094 b 1628 956 1606 1032 1618 992 b 1646 903 1633 936 1638 921 b 1731 849 1660 865 1693 849 z m 1701 878 b 1674 932 1683 886 1678 913 l 1661 976 b 1640 1057 1654 1003 1642 1032 b 1660 1076 1640 1071 1646 1076 b 1692 1071 1668 1083 1679 1076 b 1713 1032 1707 1061 1710 1046 l 1738 940 b 1744 913 1740 932 1744 921 b 1732 878 1747 901 1743 886 b 1701 878 1725 875 1714 875 z m 2061 656 l 2083 656 l 2047 790 l 2025 790 z m 1267 1400 l 1335 1146 l 1374 1146 l 1343 1263 l 1368 1263 l 1433 1146 l 1465 1146 l 1400 1271 b 1369 1389 1440 1285 1413 1369 b 1267 1400 1339 1404 1301 1400 z m 2119 656 l 2133 656 l 2100 782 l 2121 782 l 2118 790 l 2057 790 l 2060 782 l 2086 782 z m 1336 1288 l 1313 1374 b 1350 1371 1322 1374 1336 1376 b 1379 1336 1367 1364 1376 1347 b 1372 1290 1386 1317 1385 1297 b 1336 1288 1360 1288 1346 1288 z m 1833 853 l 1860 853 l 1814 1025 l 1935 853 l 1960 853 l 1892 1107 l 1861 1107 l 1907 936 l 1789 1107 l 1765 1107 z m 1563 1143 b 1600 1221 1606 1143 1619 1179 b 1531 1288 1586 1249 1557 1267 b 1471 1353 1507 1301 1472 1325 b 1500 1376 1469 1369 1485 1376 b 1540 1328 1521 1371 1531 1344 l 1564 1338 b 1529 1389 1560 1356 1549 1379 b 1465 1397 1508 1401 1482 1404 b 1461 1299 1424 1389 1429 1338 b 1524 1253 1479 1282 1506 1267 b 1560 1225 1543 1242 1553 1232 b 1574 1175 1574 1210 1583 1186 b 1529 1179 1563 1167 1544 1167 b 1501 1225 1518 1189 1510 1206 l 1469 1215 b 1563 1143 1482 1175 1517 1143 z m 2000 853 l 2096 853 l 2090 875 l 2029 875 l 1967 1107 l 1932 1107 z m 1693 1171 b 1663 1222 1672 1181 1667 1206 l 1650 1267 b 1631 1347 1643 1293 1624 1328 b 1646 1374 1629 1364 1635 1372 b 1676 1364 1657 1376 1667 1376 b 1701 1322 1694 1353 1697 1338 l 1733 1206 b 1724 1171 1736 1193 1738 1179 b 1693 1171 1717 1167 1701 1167 z m 2269 853 l 2306 853 l 2297 886 l 2261 886 z m 2146 904 l 2160 853 l 2197 853 l 2181 914 b 2172 949 2178 924 2172 936 l 2178 1000 b 2183 1107 2182 1036 2183 1071 l 2149 1107 l 2143 985 l 2071 1107 l 2040 1107 l 2106 992 b 2136 942 2118 976 2126 963 b 2146 904 2140 932 2143 917 z m 1821 1146 l 1850 1146 l 1804 1317 l 1921 1146 l 1946 1146 l 1878 1400 l 1846 1400 l 1893 1228 l 1774 1400 l 1753 1400 z m 2267 906 l 2279 906 l 2238 1107 l 2201 1107 z m 1971 1146 l 2003 1146 l 2001 1206 l 2053 1206 l 2081 1146 l 2115 1146 l 1992 1400 l 1958 1400 z m 2000 1232 l 1990 1347 l 2042 1232 z m 2140 1146 l 2242 1146 l 2236 1167 l 2172 1167 l 2110 1400 l 2072 1400 z m 626 299 l 671 299 l 642 419 l 699 299 l 733 299 l 721 422 l 760 299 l 801 299 l 719 597 l 669 597 l 685 410 l 599 597 l 550 597 z m 840 299 l 888 299 l 849 444 l 940 299 l 976 299 l 896 597 l 849 597 l 888 454 l 799 597 l 760 597 z m 1011 299 l 1061 299 l 1046 353 l 996 353 z m 1165 294 b 1201 354 1196 303 1207 329 b 1140 454 1196 393 1175 426 l 1110 482 b 1071 517 1097 492 1082 499 b 1082 554 1064 528 1057 556 b 1117 497 1103 551 1107 517 l 1161 499 b 1097 594 1151 535 1136 578 b 1018 543 1050 614 1007 586 b 1049 474 1021 518 1032 492 b 1085 442 1057 461 1072 454 b 1150 368 1107 422 1143 399 b 1144 343 1154 354 1153 346 b 1124 353 1138 339 1129 346 b 1097 406 1107 368 1101 389 l 1051 403 b 1085 331 1058 376 1068 353 b 1165 294 1103 303 1138 290 z m 1343 307 l 1347 299 l 1386 299 l 1344 454 l 1268 454 l 1279 410 l 1308 410 b 1297 343 1314 393 1336 329 b 1264 406 1272 349 1268 390 l 1235 514 b 1251 554 1229 536 1228 558 b 1285 492 1267 549 1269 544 l 1333 492 b 1274 590 1324 524 1314 569 b 1204 597 1251 603 1225 603 b 1178 535 1181 586 1176 560 b 1200 449 1182 507 1192 478 b 1224 365 1208 419 1213 393 b 1271 304 1232 343 1247 314 b 1343 307 1294 290 1328 290 z m 1407 261 l 1449 261 l 1433 636 l 1386 636 z m 1619 293 b 1656 353 1650 300 1663 326 b 1593 453 1650 392 1626 425 l 1561 479 b 1526 514 1549 490 1536 499 b 1535 553 1519 526 1514 554 b 1568 496 1556 549 1563 514 l 1615 499 b 1550 593 1607 533 1589 578 b 1469 540 1506 611 1461 585 b 1504 471 1474 517 1483 490 b 1536 440 1510 461 1524 453 b 1603 365 1558 421 1594 399 b 1599 340 1606 353 1608 343 b 1578 351 1589 338 1581 343 b 1554 404 1563 368 1558 386 l 1507 401 b 1536 329 1514 375 1521 351 b 1619 293 1558 300 1593 289 z m 1697 296 l 1744 296 l 1719 390 b 1756 394 1739 390 1744 390 b 1783 496 1807 407 1790 471 b 1690 596 1767 560 1725 596 l 1618 596 z m 1735 435 l 1708 435 l 1676 553 l 1696 553 b 1735 435 1726 553 1750 443 z m 1863 296 l 1911 296 l 1876 426 l 1890 426 l 1951 296 l 2001 296 l 1932 435 b 1944 518 1953 453 1951 490 b 1871 596 1929 574 1893 596 l 1783 596 z m 1892 468 l 1865 468 l 1843 553 l 1858 553 b 1892 468 1889 553 1907 478 z m 2029 296 l 2081 296 l 2001 596 l 1950 596 z m 2106 296 l 2153 296 l 2114 443 l 2203 296 l 2242 296 l 2163 596 l 2115 596 l 2153 453 l 2063 596 l 2026 596 z m 2368 307 l 2374 296 l 2414 296 l 2372 453 l 2294 453 l 2307 407 l 2338 407 b 2325 340 2342 392 2363 329 b 2290 404 2301 349 2293 389 l 2271 475 b 2256 538 2265 493 2256 519 b 2276 553 2254 551 2267 556 b 2311 490 2286 550 2297 540 l 2360 490 b 2301 589 2351 522 2342 568 b 2235 596 2281 600 2251 601 b 2207 533 2207 585 2201 558 b 2226 447 2210 506 2219 475 b 2253 363 2235 418 2242 392 b 2299 303 2260 340 2276 314 b 2368 307 2322 290 2357 289 z m 2469 296 l 2522 296 l 2456 544 l 2496 544 l 2483 596 l 2349 596 l 2361 544 l 2403 544 z m 2633 299 b 2699 306 2656 293 2682 293 b 2703 404 2726 325 2711 369 l 2679 490 b 2622 589 2671 522 2661 568 b 2554 596 2600 600 2574 600 b 2528 532 2529 585 2522 558 b 2538 488 2531 517 2535 501 l 2561 404 b 2574 360 2564 390 2568 375 b 2633 299 2582 333 2603 308 z m 2654 340 b 2629 351 2644 339 2632 346 b 2607 410 2617 369 2611 394 l 2589 482 b 2578 543 2583 499 2576 522 b 2597 553 2578 546 2588 553 b 2618 533 2607 549 2614 544 b 2631 490 2625 519 2626 506 l 2654 404 b 2664 360 2657 389 2664 374 b 2654 340 2668 346 2661 346 z m 2778 296 l 2826 296 l 2814 447 l 2881 296 l 2931 296 l 2889 596 l 2840 596 l 2876 400 l 2793 596 l 2760 596 l 2778 400 l 2711 596 l 2664 596 z m 2981 296 l 3028 296 l 2989 443 l 3078 296 l 3117 296 l 3038 596 l 2990 596 l 3028 453 l 2939 596 l 2901 596 z "},"5":{"ha":3694,"x_min":0,"x_max":0,"o":"m 1713 1143 b 1768 1193 1750 1143 1771 1157 b 1758 1253 1769 1210 1764 1232 b 1719 1364 1750 1285 1742 1332 b 1639 1401 1703 1393 1667 1401 b 1594 1356 1614 1400 1592 1389 b 1618 1242 1593 1325 1608 1279 b 1633 1197 1622 1228 1625 1214 b 1713 1143 1647 1163 1674 1143 z m 1331 -54 b 1347 -6 1358 -54 1353 -26 l 1332 -6 b 1336 -31 1333 -14 1338 -22 b 1310 -35 1335 -42 1318 -43 b 1292 13 1299 -22 1294 3 b 1285 60 1289 24 1279 49 b 1314 57 1288 69 1304 69 b 1321 33 1318 49 1319 39 l 1336 33 b 1300 76 1331 53 1325 76 b 1265 38 1267 82 1260 61 b 1331 -54 1275 4 1281 -54 z m 1399 -37 b 1371 24 1381 -31 1375 10 l 1365 42 b 1389 61 1363 57 1369 69 b 1413 7 1403 57 1408 21 b 1399 -37 1417 -10 1431 -53 z m 1411 -54 b 1429 13 1450 -54 1436 -14 b 1376 76 1422 39 1415 76 b 1357 14 1339 82 1347 49 b 1411 -54 1364 -11 1369 -54 z m 1467 -53 l 1481 -53 l 1454 42 l 1503 -53 l 1517 -53 l 1511 42 l 1538 -53 l 1550 -53 l 1514 76 l 1494 76 l 1504 -26 l 1450 76 l 1432 76 z m 1379 111 l 1399 111 l 1383 171 l 1410 171 l 1406 182 l 1379 182 l 1368 228 l 1400 228 l 1396 240 l 1344 240 z m 1572 -53 l 1585 -53 l 1563 42 l 1606 -53 l 1621 -53 l 1615 42 l 1644 -53 l 1657 -53 l 1617 76 l 1601 76 l 1608 -26 l 1557 76 l 1538 76 z m 1478 111 b 1497 174 1514 111 1504 147 b 1446 243 1490 199 1483 236 b 1422 179 1406 243 1414 210 b 1478 111 1429 151 1438 111 z m 1469 122 b 1440 182 1446 129 1444 171 l 1435 203 b 1454 226 1431 221 1439 235 b 1482 169 1472 221 1478 182 b 1469 122 1486 151 1496 117 z m 1676 -53 l 1729 -53 l 1726 -42 l 1696 -42 l 1682 10 l 1707 10 l 1703 24 l 1678 24 l 1667 65 l 1697 65 l 1694 76 l 1642 76 z m 1497 240 l 1532 111 l 1547 111 l 1532 171 l 1546 171 l 1581 111 l 1600 111 l 1564 174 b 1547 236 1583 182 1569 226 b 1497 240 1531 243 1513 240 z m 1707 76 l 1742 -53 l 1763 -53 l 1746 10 l 1760 10 l 1792 -53 l 1810 -53 l 1772 13 b 1757 74 1790 21 1779 61 b 1707 76 1743 82 1725 76 z m 1528 182 l 1517 228 b 1556 206 1535 228 1550 226 b 1528 182 1561 185 1546 182 z m 1742 24 l 1731 65 b 1764 42 1747 65 1760 61 b 1742 24 1769 24 1758 24 z m 1860 -54 b 1881 -6 1890 -54 1886 -26 l 1863 -6 b 1867 -31 1864 -14 1871 -22 b 1842 -35 1869 -42 1851 -43 b 1824 13 1829 -22 1826 3 b 1817 60 1821 24 1810 49 b 1844 57 1821 69 1839 69 b 1851 33 1851 49 1850 39 l 1869 33 b 1833 76 1864 53 1856 76 b 1799 38 1801 82 1793 61 b 1860 -54 1808 4 1811 -54 z m 1665 111 l 1685 111 l 1654 228 l 1679 228 l 1675 240 l 1608 240 l 1613 228 l 1635 228 z m 1913 -53 l 1931 -53 l 1896 76 l 1878 76 z m 1718 111 l 1735 111 l 1719 171 l 1754 171 l 1769 111 l 1786 111 l 1751 240 l 1735 240 l 1750 182 l 1715 182 l 1700 240 l 1683 240 z m 1943 -53 l 1963 -53 l 1958 -19 l 1985 -19 l 2003 -53 l 2018 -53 l 1954 76 l 1938 76 z m 1960 -10 l 1953 53 l 1981 -10 z m 1807 111 l 1858 111 l 1856 121 l 1825 121 l 1813 171 l 1838 171 l 1833 182 l 1808 182 l 1797 228 l 1828 228 l 1824 240 l 1772 240 z m 2029 -53 l 2085 -53 l 2082 -42 l 2046 -42 l 2014 76 l 1994 76 z m 1914 111 l 1928 111 l 1913 171 l 1935 171 l 1931 182 l 1908 182 l 1897 228 l 1932 228 l 1928 240 l 1879 240 z m 2156 -53 l 2168 -53 l 2164 76 l 2149 76 l 2151 -19 l 2108 76 l 2093 76 z m 2019 111 b 2025 181 2043 121 2031 157 l 2008 240 l 1992 240 l 2007 182 b 2003 121 2011 167 2029 121 b 1969 182 1978 121 1974 167 l 1954 240 l 1939 240 l 1958 171 b 1965 142 1960 163 1961 151 b 2019 111 1975 117 1993 104 z m 2213 -53 l 2267 -53 l 2264 -42 l 2229 -42 l 2215 10 l 2243 10 l 2239 24 l 2211 24 l 2200 65 l 2235 65 l 2232 76 l 2178 76 z m 2064 111 l 2111 111 l 2108 121 l 2079 121 l 2047 240 l 2029 240 z m 2244 76 l 2279 -53 l 2297 -53 l 2281 10 l 2294 10 l 2326 -53 l 2344 -53 l 2307 13 b 2294 74 2329 18 2318 61 b 2244 76 2279 82 2260 76 z m 1363 790 l 1399 656 l 1415 656 l 1399 718 b 1435 726 1414 718 1426 715 b 1425 775 1440 735 1433 760 b 1363 790 1408 796 1379 790 z m 2276 24 l 2265 65 b 2299 42 2283 65 2294 61 b 2276 24 2304 24 2294 24 z m 2124 111 l 2174 111 l 2171 121 l 2139 121 l 2107 240 l 2089 240 z m 1396 729 l 1382 782 b 1415 758 1401 782 1410 782 b 1415 731 1419 746 1421 738 b 1396 729 1411 729 1403 729 z m 2394 -54 b 2410 -14 2418 -54 2424 -35 b 2376 24 2406 4 2386 13 b 2349 57 2363 33 2343 42 b 2365 65 2350 65 2356 69 b 2383 39 2374 61 2376 49 l 2394 46 b 2369 76 2390 60 2385 69 b 2336 69 2361 82 2346 81 b 2358 14 2321 60 2336 31 b 2400 -24 2369 7 2396 -10 b 2382 -37 2403 -35 2396 -43 b 2365 -11 2372 -35 2367 -19 l 2347 -14 b 2394 -54 2354 -37 2369 -54 z m 1481 656 l 1529 656 l 1525 669 l 1486 669 l 1454 790 l 1444 790 z m 1232 853 b 1236 992 1282 869 1249 947 l 1206 1107 l 1171 1107 l 1218 932 b 1185 875 1225 903 1226 864 b 1146 936 1160 886 1151 917 l 1100 1107 l 1068 1107 l 1110 949 b 1136 886 1117 924 1122 904 b 1232 853 1157 853 1204 838 z m 2440 -53 l 2457 -53 l 2422 76 l 2406 76 z m 2222 111 l 2238 111 l 2238 143 l 2263 143 l 2275 111 l 2294 111 l 2232 240 l 2211 240 z m 1542 656 l 1590 656 l 1586 669 l 1553 669 l 1540 718 l 1569 718 l 1567 731 l 1538 731 l 1524 782 l 1557 782 l 1554 790 l 1506 790 z m 2233 156 l 2226 215 l 2254 156 z m 2500 -37 b 2479 24 2482 -31 2483 10 l 2474 42 b 2493 61 2471 57 2471 69 b 2515 7 2507 57 2511 21 b 2500 -37 2519 -10 2532 -53 z m 2513 -54 b 2531 13 2551 -54 2538 -14 b 2482 76 2524 39 2518 76 b 2458 14 2440 82 2449 49 b 2513 -54 2465 -11 2474 -54 z m 1597 656 l 1614 656 l 1610 692 l 1638 692 l 1653 656 l 1672 656 l 1611 790 l 1589 790 z m 2307 111 l 2325 111 l 2301 199 l 2358 111 l 2372 111 l 2338 240 l 2319 240 l 2342 156 l 2283 240 l 2272 240 z m 1607 703 l 1603 769 l 1635 703 z m 1374 849 b 1410 926 1415 849 1429 886 b 1339 996 1399 961 1368 976 b 1283 1060 1315 1014 1281 1032 b 1313 1076 1283 1072 1293 1083 b 1350 1032 1331 1075 1344 1051 l 1376 1043 b 1339 1097 1372 1063 1360 1083 b 1274 1107 1318 1107 1290 1111 b 1271 1011 1238 1094 1243 1043 b 1333 963 1288 992 1315 976 b 1368 933 1350 956 1360 942 b 1381 883 1383 921 1393 892 b 1340 886 1372 872 1354 875 b 1317 932 1328 896 1322 917 l 1285 922 b 1374 849 1299 881 1331 849 z m 2568 -53 l 2578 -53 l 2553 38 l 2621 -53 l 2635 -53 l 2600 76 l 2585 76 l 2607 -10 l 2543 76 l 2533 76 z m 1715 656 b 1735 700 1740 656 1747 676 b 1696 731 1729 714 1710 722 b 1669 769 1685 740 1669 753 b 1704 753 1668 783 1685 789 l 1721 756 b 1692 789 1717 769 1706 783 b 1658 785 1678 794 1664 790 b 1681 726 1642 769 1661 740 b 1722 686 1693 715 1718 703 b 1704 669 1725 675 1718 669 b 1688 700 1694 675 1690 690 l 1672 692 b 1715 656 1678 675 1696 656 z m 2358 240 l 2393 111 b 2443 118 2404 111 2433 108 b 2440 174 2460 128 2444 156 b 2418 231 2436 192 2435 221 b 2358 240 2399 243 2372 240 z m 2408 121 l 2381 228 b 2417 206 2399 228 2410 228 l 2433 142 b 2408 121 2433 121 2422 121 z m 1761 656 l 1815 656 l 1811 669 l 1778 669 l 1765 718 l 1788 718 l 1785 731 l 1763 731 l 1749 782 l 1781 782 l 1778 790 l 1725 790 z m 1056 1146 l 1089 1146 l 1058 1261 b 1126 1275 1081 1261 1115 1258 b 1113 1372 1149 1297 1138 1340 b 1042 1400 1093 1397 1067 1400 l 988 1400 z m 1463 853 l 1560 853 l 1554 875 l 1490 875 l 1464 969 l 1515 969 l 1508 996 l 1457 996 l 1436 1076 l 1500 1076 l 1492 1107 l 1394 1107 z m 1051 1288 l 1028 1374 b 1068 1372 1040 1374 1051 1376 b 1101 1328 1092 1368 1097 1344 b 1090 1290 1107 1310 1108 1294 b 1051 1288 1076 1285 1064 1288 z m 1888 656 l 1906 656 l 1897 790 l 1882 790 l 1888 692 l 1842 790 l 1822 790 z m 1207 1146 l 1307 1146 l 1301 1167 l 1238 1167 l 1213 1261 l 1264 1261 l 1257 1288 l 1206 1288 l 1182 1374 l 1243 1374 l 1236 1400 l 1139 1400 z m 1946 656 l 1965 656 l 1929 790 l 1910 790 z m 2017 656 b 2033 700 2039 656 2047 676 b 1999 731 2029 714 2007 726 b 1969 769 1988 740 1968 753 b 2001 753 1974 783 1989 789 l 2019 756 b 1990 789 2014 769 2004 783 b 1958 785 1981 794 1968 790 b 1979 726 1940 769 1963 740 b 2019 686 1997 715 2018 703 b 2008 669 2022 675 2018 669 b 1986 700 1999 675 1989 690 l 1972 692 b 2017 656 1979 675 1993 656 z m 1731 849 b 1778 901 1764 849 1783 865 b 1764 963 1779 921 1769 940 b 1728 1071 1754 996 1751 1040 b 1653 1107 1713 1099 1683 1107 b 1603 1065 1626 1107 1604 1094 b 1628 956 1606 1032 1618 992 b 1646 903 1633 936 1638 921 b 1731 849 1660 865 1693 849 z m 1701 878 b 1674 932 1683 886 1678 913 l 1661 976 b 1640 1057 1654 1003 1642 1032 b 1660 1076 1640 1071 1646 1076 b 1692 1071 1668 1083 1679 1076 b 1713 1032 1707 1061 1710 1046 l 1738 940 b 1744 913 1740 932 1744 921 b 1732 878 1747 901 1743 886 b 1701 878 1725 875 1714 875 z m 2061 656 l 2083 656 l 2047 790 l 2025 790 z m 1267 1400 l 1335 1146 l 1374 1146 l 1343 1263 l 1368 1263 l 1433 1146 l 1465 1146 l 1400 1271 b 1369 1389 1440 1285 1413 1369 b 1267 1400 1339 1404 1301 1400 z m 2119 656 l 2133 656 l 2100 782 l 2121 782 l 2118 790 l 2057 790 l 2060 782 l 2086 782 z m 1336 1288 l 1313 1374 b 1350 1371 1322 1374 1336 1376 b 1379 1336 1367 1364 1376 1347 b 1372 1290 1386 1317 1385 1297 b 1336 1288 1360 1288 1346 1288 z m 1833 853 l 1860 853 l 1814 1025 l 1935 853 l 1960 853 l 1892 1107 l 1861 1107 l 1907 936 l 1789 1107 l 1765 1107 z m 1563 1143 b 1600 1221 1606 1143 1619 1179 b 1531 1288 1586 1249 1557 1267 b 1471 1353 1507 1301 1472 1325 b 1500 1376 1469 1369 1485 1376 b 1540 1328 1521 1371 1531 1344 l 1564 1338 b 1529 1389 1560 1356 1549 1379 b 1465 1397 1508 1401 1482 1404 b 1461 1299 1424 1389 1429 1338 b 1524 1253 1479 1282 1506 1267 b 1560 1225 1543 1242 1553 1232 b 1574 1175 1574 1210 1583 1186 b 1529 1179 1563 1167 1544 1167 b 1501 1225 1518 1189 1510 1206 l 1469 1215 b 1563 1143 1482 1175 1517 1143 z m 2000 853 l 2096 853 l 2090 875 l 2029 875 l 1967 1107 l 1932 1107 z m 1693 1171 b 1663 1222 1672 1181 1667 1206 l 1650 1267 b 1631 1347 1643 1293 1624 1328 b 1646 1374 1629 1364 1635 1372 b 1676 1364 1657 1376 1667 1376 b 1701 1322 1694 1353 1697 1338 l 1733 1206 b 1724 1171 1736 1193 1738 1179 b 1693 1171 1717 1167 1701 1167 z m 2269 853 l 2306 853 l 2297 886 l 2261 886 z m 2146 904 l 2160 853 l 2197 853 l 2181 914 b 2172 949 2178 924 2172 936 l 2178 1000 b 2183 1107 2182 1036 2183 1071 l 2149 1107 l 2143 985 l 2071 1107 l 2040 1107 l 2106 992 b 2136 942 2118 976 2126 963 b 2146 904 2140 932 2143 917 z m 1821 1146 l 1850 1146 l 1804 1317 l 1921 1146 l 1946 1146 l 1878 1400 l 1846 1400 l 1893 1228 l 1774 1400 l 1753 1400 z m 2267 906 l 2279 906 l 2238 1107 l 2201 1107 z m 1971 1146 l 2003 1146 l 2001 1206 l 2053 1206 l 2081 1146 l 2115 1146 l 1992 1400 l 1958 1400 z m 2000 1232 l 1990 1347 l 2042 1232 z m 2140 1146 l 2242 1146 l 2236 1167 l 2172 1167 l 2110 1400 l 2072 1400 z m 626 299 l 671 299 l 642 419 l 699 299 l 733 299 l 721 422 l 760 299 l 801 299 l 719 597 l 669 597 l 685 410 l 599 597 l 550 597 z m 840 299 l 888 299 l 849 444 l 940 299 l 976 299 l 896 597 l 849 597 l 888 454 l 799 597 l 760 597 z m 1011 299 l 1061 299 l 1046 353 l 996 353 z m 1165 294 b 1201 354 1196 303 1207 329 b 1140 454 1196 393 1175 426 l 1110 482 b 1071 517 1097 492 1082 499 b 1082 554 1064 528 1057 556 b 1117 497 1103 551 1107 517 l 1161 499 b 1097 594 1151 535 1136 578 b 1018 543 1050 614 1007 586 b 1049 474 1021 518 1032 492 b 1085 442 1057 461 1072 454 b 1150 368 1107 422 1143 399 b 1144 343 1154 354 1153 346 b 1124 353 1138 339 1129 346 b 1097 406 1107 368 1101 389 l 1051 403 b 1085 331 1058 376 1068 353 b 1165 294 1103 303 1138 290 z m 1343 307 l 1347 299 l 1386 299 l 1344 454 l 1268 454 l 1279 410 l 1308 410 b 1297 343 1314 393 1336 329 b 1264 406 1272 349 1268 390 l 1235 514 b 1251 554 1229 536 1228 558 b 1285 492 1267 549 1269 544 l 1333 492 b 1274 590 1324 524 1314 569 b 1204 597 1251 603 1225 603 b 1178 535 1181 586 1176 560 b 1200 449 1182 507 1192 478 b 1224 365 1208 419 1213 393 b 1271 304 1232 343 1247 314 b 1343 307 1294 290 1328 290 z m 1407 261 l 1449 261 l 1433 636 l 1386 636 z m 1619 293 b 1656 353 1650 300 1663 326 b 1593 453 1650 392 1626 425 l 1561 479 b 1526 514 1549 490 1536 499 b 1535 553 1519 526 1514 554 b 1568 496 1556 549 1563 514 l 1615 499 b 1550 593 1607 533 1589 578 b 1469 540 1506 611 1461 585 b 1504 471 1474 517 1483 490 b 1536 440 1510 461 1524 453 b 1603 365 1558 421 1594 399 b 1599 340 1606 353 1608 343 b 1578 351 1589 338 1581 343 b 1554 404 1563 368 1558 386 l 1507 401 b 1536 329 1514 375 1521 351 b 1619 293 1558 300 1593 289 z m 1697 296 l 1744 296 l 1719 390 b 1756 394 1739 390 1744 390 b 1783 496 1807 407 1790 471 b 1690 596 1767 560 1725 596 l 1618 596 z m 1735 435 l 1708 435 l 1676 553 l 1696 553 b 1735 435 1726 553 1750 443 z m 1863 296 l 1911 296 l 1876 426 l 1890 426 l 1951 296 l 2001 296 l 1932 435 b 1944 518 1953 453 1951 490 b 1871 596 1929 574 1893 596 l 1783 596 z m 1892 468 l 1865 468 l 1843 553 l 1858 553 b 1892 468 1889 553 1907 478 z m 2029 296 l 2081 296 l 2001 596 l 1950 596 z m 2106 296 l 2153 296 l 2114 443 l 2203 296 l 2242 296 l 2163 596 l 2115 596 l 2153 453 l 2063 596 l 2026 596 z m 2368 307 l 2374 296 l 2414 296 l 2372 453 l 2294 453 l 2307 407 l 2338 407 b 2325 340 2342 392 2363 329 b 2290 404 2301 349 2293 389 l 2271 475 b 2256 538 2265 493 2256 519 b 2276 553 2254 551 2267 556 b 2311 490 2286 550 2297 540 l 2360 490 b 2301 589 2351 522 2342 568 b 2235 596 2281 600 2251 601 b 2207 533 2207 585 2201 558 b 2226 447 2210 506 2219 475 b 2253 363 2235 418 2242 392 b 2299 303 2260 340 2276 314 b 2368 307 2322 290 2357 289 z m 2469 296 l 2522 296 l 2456 544 l 2496 544 l 2483 596 l 2349 596 l 2361 544 l 2403 544 z m 2633 299 b 2699 306 2656 293 2682 293 b 2703 404 2726 325 2711 369 l 2679 490 b 2622 589 2671 522 2661 568 b 2554 596 2600 600 2574 600 b 2528 532 2529 585 2522 558 b 2538 488 2531 517 2535 501 l 2561 404 b 2574 360 2564 390 2568 375 b 2633 299 2582 333 2603 308 z m 2654 340 b 2629 351 2644 339 2632 346 b 2607 410 2617 369 2611 394 l 2589 482 b 2578 543 2583 499 2576 522 b 2597 553 2578 546 2588 553 b 2618 533 2607 549 2614 544 b 2631 490 2625 519 2626 506 l 2654 404 b 2664 360 2657 389 2664 374 b 2654 340 2668 346 2661 346 z m 2778 296 l 2826 296 l 2814 447 l 2881 296 l 2931 296 l 2889 596 l 2840 596 l 2876 400 l 2793 596 l 2760 596 l 2778 400 l 2711 596 l 2664 596 z m 2981 296 l 3028 296 l 2989 443 l 3078 296 l 3117 296 l 3038 596 l 2990 596 l 3028 453 l 2939 596 l 2901 596 z "},"6":{"ha":3694,"x_min":0,"x_max":0,"o":"m 1713 1143 b 1768 1193 1750 1143 1771 1157 b 1758 1253 1769 1210 1764 1232 b 1719 1364 1750 1285 1742 1332 b 1639 1401 1703 1393 1667 1401 b 1594 1356 1614 1400 1592 1389 b 1618 1242 1593 1325 1608 1279 b 1633 1197 1622 1228 1625 1214 b 1713 1143 1647 1163 1674 1143 z m 1331 -54 b 1347 -6 1358 -54 1353 -26 l 1332 -6 b 1336 -31 1333 -14 1338 -22 b 1310 -35 1335 -42 1318 -43 b 1292 13 1299 -22 1294 3 b 1285 60 1289 24 1279 49 b 1314 57 1288 69 1304 69 b 1321 33 1318 49 1319 39 l 1336 33 b 1300 76 1331 53 1325 76 b 1265 38 1267 82 1260 61 b 1331 -54 1275 4 1281 -54 z m 1399 -37 b 1371 24 1381 -31 1375 10 l 1365 42 b 1389 61 1363 57 1369 69 b 1413 7 1403 57 1408 21 b 1399 -37 1417 -10 1431 -53 z m 1411 -54 b 1429 13 1450 -54 1436 -14 b 1376 76 1422 39 1415 76 b 1357 14 1339 82 1347 49 b 1411 -54 1364 -11 1369 -54 z m 1467 -53 l 1481 -53 l 1454 42 l 1503 -53 l 1517 -53 l 1511 42 l 1538 -53 l 1550 -53 l 1514 76 l 1494 76 l 1504 -26 l 1450 76 l 1432 76 z m 1379 111 l 1399 111 l 1383 171 l 1410 171 l 1406 182 l 1379 182 l 1368 228 l 1400 228 l 1396 240 l 1344 240 z m 1572 -53 l 1585 -53 l 1563 42 l 1606 -53 l 1621 -53 l 1615 42 l 1644 -53 l 1657 -53 l 1617 76 l 1601 76 l 1608 -26 l 1557 76 l 1538 76 z m 1478 111 b 1497 174 1514 111 1504 147 b 1446 243 1490 199 1483 236 b 1422 179 1406 243 1414 210 b 1478 111 1429 151 1438 111 z m 1469 122 b 1440 182 1446 129 1444 171 l 1435 203 b 1454 226 1431 221 1439 235 b 1482 169 1472 221 1478 182 b 1469 122 1486 151 1496 117 z m 1676 -53 l 1729 -53 l 1726 -42 l 1696 -42 l 1682 10 l 1707 10 l 1703 24 l 1678 24 l 1667 65 l 1697 65 l 1694 76 l 1642 76 z m 1497 240 l 1532 111 l 1547 111 l 1532 171 l 1546 171 l 1581 111 l 1600 111 l 1564 174 b 1547 236 1583 182 1569 226 b 1497 240 1531 243 1513 240 z m 1707 76 l 1742 -53 l 1763 -53 l 1746 10 l 1760 10 l 1792 -53 l 1810 -53 l 1772 13 b 1757 74 1790 21 1779 61 b 1707 76 1743 82 1725 76 z m 1528 182 l 1517 228 b 1556 206 1535 228 1550 226 b 1528 182 1561 185 1546 182 z m 1742 24 l 1731 65 b 1764 42 1747 65 1760 61 b 1742 24 1769 24 1758 24 z m 1860 -54 b 1881 -6 1890 -54 1886 -26 l 1863 -6 b 1867 -31 1864 -14 1871 -22 b 1842 -35 1869 -42 1851 -43 b 1824 13 1829 -22 1826 3 b 1817 60 1821 24 1810 49 b 1844 57 1821 69 1839 69 b 1851 33 1851 49 1850 39 l 1869 33 b 1833 76 1864 53 1856 76 b 1799 38 1801 82 1793 61 b 1860 -54 1808 4 1811 -54 z m 1665 111 l 1685 111 l 1654 228 l 1679 228 l 1675 240 l 1608 240 l 1613 228 l 1635 228 z m 1913 -53 l 1931 -53 l 1896 76 l 1878 76 z m 1718 111 l 1735 111 l 1719 171 l 1754 171 l 1769 111 l 1786 111 l 1751 240 l 1735 240 l 1750 182 l 1715 182 l 1700 240 l 1683 240 z m 1943 -53 l 1963 -53 l 1958 -19 l 1985 -19 l 2003 -53 l 2018 -53 l 1954 76 l 1938 76 z m 1960 -10 l 1953 53 l 1981 -10 z m 1807 111 l 1858 111 l 1856 121 l 1825 121 l 1813 171 l 1838 171 l 1833 182 l 1808 182 l 1797 228 l 1828 228 l 1824 240 l 1772 240 z m 2029 -53 l 2085 -53 l 2082 -42 l 2046 -42 l 2014 76 l 1994 76 z m 1914 111 l 1928 111 l 1913 171 l 1935 171 l 1931 182 l 1908 182 l 1897 228 l 1932 228 l 1928 240 l 1879 240 z m 2156 -53 l 2168 -53 l 2164 76 l 2149 76 l 2151 -19 l 2108 76 l 2093 76 z m 2019 111 b 2025 181 2043 121 2031 157 l 2008 240 l 1992 240 l 2007 182 b 2003 121 2011 167 2029 121 b 1969 182 1978 121 1974 167 l 1954 240 l 1939 240 l 1958 171 b 1965 142 1960 163 1961 151 b 2019 111 1975 117 1993 104 z m 2213 -53 l 2267 -53 l 2264 -42 l 2229 -42 l 2215 10 l 2243 10 l 2239 24 l 2211 24 l 2200 65 l 2235 65 l 2232 76 l 2178 76 z m 2064 111 l 2111 111 l 2108 121 l 2079 121 l 2047 240 l 2029 240 z m 2244 76 l 2279 -53 l 2297 -53 l 2281 10 l 2294 10 l 2326 -53 l 2344 -53 l 2307 13 b 2294 74 2329 18 2318 61 b 2244 76 2279 82 2260 76 z m 1363 790 l 1399 656 l 1415 656 l 1399 718 b 1435 726 1414 718 1426 715 b 1425 775 1440 735 1433 760 b 1363 790 1408 796 1379 790 z m 2276 24 l 2265 65 b 2299 42 2283 65 2294 61 b 2276 24 2304 24 2294 24 z m 2124 111 l 2174 111 l 2171 121 l 2139 121 l 2107 240 l 2089 240 z m 1396 729 l 1382 782 b 1415 758 1401 782 1410 782 b 1415 731 1419 746 1421 738 b 1396 729 1411 729 1403 729 z m 2394 -54 b 2410 -14 2418 -54 2424 -35 b 2376 24 2406 4 2386 13 b 2349 57 2363 33 2343 42 b 2365 65 2350 65 2356 69 b 2383 39 2374 61 2376 49 l 2394 46 b 2369 76 2390 60 2385 69 b 2336 69 2361 82 2346 81 b 2358 14 2321 60 2336 31 b 2400 -24 2369 7 2396 -10 b 2382 -37 2403 -35 2396 -43 b 2365 -11 2372 -35 2367 -19 l 2347 -14 b 2394 -54 2354 -37 2369 -54 z m 1481 656 l 1529 656 l 1525 669 l 1486 669 l 1454 790 l 1444 790 z m 1232 853 b 1236 992 1282 869 1249 947 l 1206 1107 l 1171 1107 l 1218 932 b 1185 875 1225 903 1226 864 b 1146 936 1160 886 1151 917 l 1100 1107 l 1068 1107 l 1110 949 b 1136 886 1117 924 1122 904 b 1232 853 1157 853 1204 838 z m 2440 -53 l 2457 -53 l 2422 76 l 2406 76 z m 2222 111 l 2238 111 l 2238 143 l 2263 143 l 2275 111 l 2294 111 l 2232 240 l 2211 240 z m 1542 656 l 1590 656 l 1586 669 l 1553 669 l 1540 718 l 1569 718 l 1567 731 l 1538 731 l 1524 782 l 1557 782 l 1554 790 l 1506 790 z m 2233 156 l 2226 215 l 2254 156 z m 2500 -37 b 2479 24 2482 -31 2483 10 l 2474 42 b 2493 61 2471 57 2471 69 b 2515 7 2507 57 2511 21 b 2500 -37 2519 -10 2532 -53 z m 2513 -54 b 2531 13 2551 -54 2538 -14 b 2482 76 2524 39 2518 76 b 2458 14 2440 82 2449 49 b 2513 -54 2465 -11 2474 -54 z m 1597 656 l 1614 656 l 1610 692 l 1638 692 l 1653 656 l 1672 656 l 1611 790 l 1589 790 z m 2307 111 l 2325 111 l 2301 199 l 2358 111 l 2372 111 l 2338 240 l 2319 240 l 2342 156 l 2283 240 l 2272 240 z m 1607 703 l 1603 769 l 1635 703 z m 1374 849 b 1410 926 1415 849 1429 886 b 1339 996 1399 961 1368 976 b 1283 1060 1315 1014 1281 1032 b 1313 1076 1283 1072 1293 1083 b 1350 1032 1331 1075 1344 1051 l 1376 1043 b 1339 1097 1372 1063 1360 1083 b 1274 1107 1318 1107 1290 1111 b 1271 1011 1238 1094 1243 1043 b 1333 963 1288 992 1315 976 b 1368 933 1350 956 1360 942 b 1381 883 1383 921 1393 892 b 1340 886 1372 872 1354 875 b 1317 932 1328 896 1322 917 l 1285 922 b 1374 849 1299 881 1331 849 z m 2568 -53 l 2578 -53 l 2553 38 l 2621 -53 l 2635 -53 l 2600 76 l 2585 76 l 2607 -10 l 2543 76 l 2533 76 z m 1715 656 b 1735 700 1740 656 1747 676 b 1696 731 1729 714 1710 722 b 1669 769 1685 740 1669 753 b 1704 753 1668 783 1685 789 l 1721 756 b 1692 789 1717 769 1706 783 b 1658 785 1678 794 1664 790 b 1681 726 1642 769 1661 740 b 1722 686 1693 715 1718 703 b 1704 669 1725 675 1718 669 b 1688 700 1694 675 1690 690 l 1672 692 b 1715 656 1678 675 1696 656 z m 2358 240 l 2393 111 b 2443 118 2404 111 2433 108 b 2440 174 2460 128 2444 156 b 2418 231 2436 192 2435 221 b 2358 240 2399 243 2372 240 z m 2408 121 l 2381 228 b 2417 206 2399 228 2410 228 l 2433 142 b 2408 121 2433 121 2422 121 z m 1761 656 l 1815 656 l 1811 669 l 1778 669 l 1765 718 l 1788 718 l 1785 731 l 1763 731 l 1749 782 l 1781 782 l 1778 790 l 1725 790 z m 1056 1146 l 1089 1146 l 1058 1261 b 1126 1275 1081 1261 1115 1258 b 1113 1372 1149 1297 1138 1340 b 1042 1400 1093 1397 1067 1400 l 988 1400 z m 1463 853 l 1560 853 l 1554 875 l 1490 875 l 1464 969 l 1515 969 l 1508 996 l 1457 996 l 1436 1076 l 1500 1076 l 1492 1107 l 1394 1107 z m 1051 1288 l 1028 1374 b 1068 1372 1040 1374 1051 1376 b 1101 1328 1092 1368 1097 1344 b 1090 1290 1107 1310 1108 1294 b 1051 1288 1076 1285 1064 1288 z m 1888 656 l 1906 656 l 1897 790 l 1882 790 l 1888 692 l 1842 790 l 1822 790 z m 1207 1146 l 1307 1146 l 1301 1167 l 1238 1167 l 1213 1261 l 1264 1261 l 1257 1288 l 1206 1288 l 1182 1374 l 1243 1374 l 1236 1400 l 1139 1400 z m 1946 656 l 1965 656 l 1929 790 l 1910 790 z m 2017 656 b 2033 700 2039 656 2047 676 b 1999 731 2029 714 2007 726 b 1969 769 1988 740 1968 753 b 2001 753 1974 783 1989 789 l 2019 756 b 1990 789 2014 769 2004 783 b 1958 785 1981 794 1968 790 b 1979 726 1940 769 1963 740 b 2019 686 1997 715 2018 703 b 2008 669 2022 675 2018 669 b 1986 700 1999 675 1989 690 l 1972 692 b 2017 656 1979 675 1993 656 z m 1731 849 b 1778 901 1764 849 1783 865 b 1764 963 1779 921 1769 940 b 1728 1071 1754 996 1751 1040 b 1653 1107 1713 1099 1683 1107 b 1603 1065 1626 1107 1604 1094 b 1628 956 1606 1032 1618 992 b 1646 903 1633 936 1638 921 b 1731 849 1660 865 1693 849 z m 1701 878 b 1674 932 1683 886 1678 913 l 1661 976 b 1640 1057 1654 1003 1642 1032 b 1660 1076 1640 1071 1646 1076 b 1692 1071 1668 1083 1679 1076 b 1713 1032 1707 1061 1710 1046 l 1738 940 b 1744 913 1740 932 1744 921 b 1732 878 1747 901 1743 886 b 1701 878 1725 875 1714 875 z m 2061 656 l 2083 656 l 2047 790 l 2025 790 z m 1267 1400 l 1335 1146 l 1374 1146 l 1343 1263 l 1368 1263 l 1433 1146 l 1465 1146 l 1400 1271 b 1369 1389 1440 1285 1413 1369 b 1267 1400 1339 1404 1301 1400 z m 2119 656 l 2133 656 l 2100 782 l 2121 782 l 2118 790 l 2057 790 l 2060 782 l 2086 782 z m 1336 1288 l 1313 1374 b 1350 1371 1322 1374 1336 1376 b 1379 1336 1367 1364 1376 1347 b 1372 1290 1386 1317 1385 1297 b 1336 1288 1360 1288 1346 1288 z m 1833 853 l 1860 853 l 1814 1025 l 1935 853 l 1960 853 l 1892 1107 l 1861 1107 l 1907 936 l 1789 1107 l 1765 1107 z m 1563 1143 b 1600 1221 1606 1143 1619 1179 b 1531 1288 1586 1249 1557 1267 b 1471 1353 1507 1301 1472 1325 b 1500 1376 1469 1369 1485 1376 b 1540 1328 1521 1371 1531 1344 l 1564 1338 b 1529 1389 1560 1356 1549 1379 b 1465 1397 1508 1401 1482 1404 b 1461 1299 1424 1389 1429 1338 b 1524 1253 1479 1282 1506 1267 b 1560 1225 1543 1242 1553 1232 b 1574 1175 1574 1210 1583 1186 b 1529 1179 1563 1167 1544 1167 b 1501 1225 1518 1189 1510 1206 l 1469 1215 b 1563 1143 1482 1175 1517 1143 z m 2000 853 l 2096 853 l 2090 875 l 2029 875 l 1967 1107 l 1932 1107 z m 1693 1171 b 1663 1222 1672 1181 1667 1206 l 1650 1267 b 1631 1347 1643 1293 1624 1328 b 1646 1374 1629 1364 1635 1372 b 1676 1364 1657 1376 1667 1376 b 1701 1322 1694 1353 1697 1338 l 1733 1206 b 1724 1171 1736 1193 1738 1179 b 1693 1171 1717 1167 1701 1167 z m 2269 853 l 2306 853 l 2297 886 l 2261 886 z m 2146 904 l 2160 853 l 2197 853 l 2181 914 b 2172 949 2178 924 2172 936 l 2178 1000 b 2183 1107 2182 1036 2183 1071 l 2149 1107 l 2143 985 l 2071 1107 l 2040 1107 l 2106 992 b 2136 942 2118 976 2126 963 b 2146 904 2140 932 2143 917 z m 1821 1146 l 1850 1146 l 1804 1317 l 1921 1146 l 1946 1146 l 1878 1400 l 1846 1400 l 1893 1228 l 1774 1400 l 1753 1400 z m 2267 906 l 2279 906 l 2238 1107 l 2201 1107 z m 1971 1146 l 2003 1146 l 2001 1206 l 2053 1206 l 2081 1146 l 2115 1146 l 1992 1400 l 1958 1400 z m 2000 1232 l 1990 1347 l 2042 1232 z m 2140 1146 l 2242 1146 l 2236 1167 l 2172 1167 l 2110 1400 l 2072 1400 z m 626 299 l 671 299 l 642 419 l 699 299 l 733 299 l 721 422 l 760 299 l 801 299 l 719 597 l 669 597 l 685 410 l 599 597 l 550 597 z m 840 299 l 888 299 l 849 444 l 940 299 l 976 299 l 896 597 l 849 597 l 888 454 l 799 597 l 760 597 z m 1011 299 l 1061 299 l 1046 353 l 996 353 z m 1165 294 b 1201 354 1196 303 1207 329 b 1140 454 1196 393 1175 426 l 1110 482 b 1071 517 1097 492 1082 499 b 1082 554 1064 528 1057 556 b 1117 497 1103 551 1107 517 l 1161 499 b 1097 594 1151 535 1136 578 b 1018 543 1050 614 1007 586 b 1049 474 1021 518 1032 492 b 1085 442 1057 461 1072 454 b 1150 368 1107 422 1143 399 b 1144 343 1154 354 1153 346 b 1124 353 1138 339 1129 346 b 1097 406 1107 368 1101 389 l 1051 403 b 1085 331 1058 376 1068 353 b 1165 294 1103 303 1138 290 z m 1343 307 l 1347 299 l 1386 299 l 1344 454 l 1268 454 l 1279 410 l 1308 410 b 1297 343 1314 393 1336 329 b 1264 406 1272 349 1268 390 l 1235 514 b 1251 554 1229 536 1228 558 b 1285 492 1267 549 1269 544 l 1333 492 b 1274 590 1324 524 1314 569 b 1204 597 1251 603 1225 603 b 1178 535 1181 586 1176 560 b 1200 449 1182 507 1192 478 b 1224 365 1208 419 1213 393 b 1271 304 1232 343 1247 314 b 1343 307 1294 290 1328 290 z m 1407 261 l 1449 261 l 1433 636 l 1386 636 z m 1619 293 b 1656 353 1650 300 1663 326 b 1593 453 1650 392 1626 425 l 1561 479 b 1526 514 1549 490 1536 499 b 1535 553 1519 526 1514 554 b 1568 496 1556 549 1563 514 l 1615 499 b 1550 593 1607 533 1589 578 b 1469 540 1506 611 1461 585 b 1504 471 1474 517 1483 490 b 1536 440 1510 461 1524 453 b 1603 365 1558 421 1594 399 b 1599 340 1606 353 1608 343 b 1578 351 1589 338 1581 343 b 1554 404 1563 368 1558 386 l 1507 401 b 1536 329 1514 375 1521 351 b 1619 293 1558 300 1593 289 z m 1697 296 l 1744 296 l 1719 390 b 1756 394 1739 390 1744 390 b 1783 496 1807 407 1790 471 b 1690 596 1767 560 1725 596 l 1618 596 z m 1735 435 l 1708 435 l 1676 553 l 1696 553 b 1735 435 1726 553 1750 443 z m 1863 296 l 1911 296 l 1876 426 l 1890 426 l 1951 296 l 2001 296 l 1932 435 b 1944 518 1953 453 1951 490 b 1871 596 1929 574 1893 596 l 1783 596 z m 1892 468 l 1865 468 l 1843 553 l 1858 553 b 1892 468 1889 553 1907 478 z m 2029 296 l 2081 296 l 2001 596 l 1950 596 z m 2106 296 l 2153 296 l 2114 443 l 2203 296 l 2242 296 l 2163 596 l 2115 596 l 2153 453 l 2063 596 l 2026 596 z m 2368 307 l 2374 296 l 2414 296 l 2372 453 l 2294 453 l 2307 407 l 2338 407 b 2325 340 2342 392 2363 329 b 2290 404 2301 349 2293 389 l 2271 475 b 2256 538 2265 493 2256 519 b 2276 553 2254 551 2267 556 b 2311 490 2286 550 2297 540 l 2360 490 b 2301 589 2351 522 2342 568 b 2235 596 2281 600 2251 601 b 2207 533 2207 585 2201 558 b 2226 447 2210 506 2219 475 b 2253 363 2235 418 2242 392 b 2299 303 2260 340 2276 314 b 2368 307 2322 290 2357 289 z m 2469 296 l 2522 296 l 2456 544 l 2496 544 l 2483 596 l 2349 596 l 2361 544 l 2403 544 z m 2633 299 b 2699 306 2656 293 2682 293 b 2703 404 2726 325 2711 369 l 2679 490 b 2622 589 2671 522 2661 568 b 2554 596 2600 600 2574 600 b 2528 532 2529 585 2522 558 b 2538 488 2531 517 2535 501 l 2561 404 b 2574 360 2564 390 2568 375 b 2633 299 2582 333 2603 308 z m 2654 340 b 2629 351 2644 339 2632 346 b 2607 410 2617 369 2611 394 l 2589 482 b 2578 543 2583 499 2576 522 b 2597 553 2578 546 2588 553 b 2618 533 2607 549 2614 544 b 2631 490 2625 519 2626 506 l 2654 404 b 2664 360 2657 389 2664 374 b 2654 340 2668 346 2661 346 z m 2778 296 l 2826 296 l 2814 447 l 2881 296 l 2931 296 l 2889 596 l 2840 596 l 2876 400 l 2793 596 l 2760 596 l 2778 400 l 2711 596 l 2664 596 z m 2981 296 l 3028 296 l 2989 443 l 3078 296 l 3117 296 l 3038 596 l 2990 596 l 3028 453 l 2939 596 l 2901 596 z "},"7":{"ha":3694,"x_min":0,"x_max":0,"o":"m 1713 1143 b 1768 1193 1750 1143 1771 1157 b 1758 1253 1769 1210 1764 1232 b 1719 1364 1750 1285 1742 1332 b 1639 1401 1703 1393 1667 1401 b 1594 1356 1614 1400 1592 1389 b 1618 1242 1593 1325 1608 1279 b 1633 1197 1622 1228 1625 1214 b 1713 1143 1647 1163 1674 1143 z m 1331 -54 b 1347 -6 1358 -54 1353 -26 l 1332 -6 b 1336 -31 1333 -14 1338 -22 b 1310 -35 1335 -42 1318 -43 b 1292 13 1299 -22 1294 3 b 1285 60 1289 24 1279 49 b 1314 57 1288 69 1304 69 b 1321 33 1318 49 1319 39 l 1336 33 b 1300 76 1331 53 1325 76 b 1265 38 1267 82 1260 61 b 1331 -54 1275 4 1281 -54 z m 1399 -37 b 1371 24 1381 -31 1375 10 l 1365 42 b 1389 61 1363 57 1369 69 b 1413 7 1403 57 1408 21 b 1399 -37 1417 -10 1431 -53 z m 1411 -54 b 1429 13 1450 -54 1436 -14 b 1376 76 1422 39 1415 76 b 1357 14 1339 82 1347 49 b 1411 -54 1364 -11 1369 -54 z m 1467 -53 l 1481 -53 l 1454 42 l 1503 -53 l 1517 -53 l 1511 42 l 1538 -53 l 1550 -53 l 1514 76 l 1494 76 l 1504 -26 l 1450 76 l 1432 76 z m 1379 111 l 1399 111 l 1383 171 l 1410 171 l 1406 182 l 1379 182 l 1368 228 l 1400 228 l 1396 240 l 1344 240 z m 1572 -53 l 1585 -53 l 1563 42 l 1606 -53 l 1621 -53 l 1615 42 l 1644 -53 l 1657 -53 l 1617 76 l 1601 76 l 1608 -26 l 1557 76 l 1538 76 z m 1478 111 b 1497 174 1514 111 1504 147 b 1446 243 1490 199 1483 236 b 1422 179 1406 243 1414 210 b 1478 111 1429 151 1438 111 z m 1469 122 b 1440 182 1446 129 1444 171 l 1435 203 b 1454 226 1431 221 1439 235 b 1482 169 1472 221 1478 182 b 1469 122 1486 151 1496 117 z m 1676 -53 l 1729 -53 l 1726 -42 l 1696 -42 l 1682 10 l 1707 10 l 1703 24 l 1678 24 l 1667 65 l 1697 65 l 1694 76 l 1642 76 z m 1497 240 l 1532 111 l 1547 111 l 1532 171 l 1546 171 l 1581 111 l 1600 111 l 1564 174 b 1547 236 1583 182 1569 226 b 1497 240 1531 243 1513 240 z m 1707 76 l 1742 -53 l 1763 -53 l 1746 10 l 1760 10 l 1792 -53 l 1810 -53 l 1772 13 b 1757 74 1790 21 1779 61 b 1707 76 1743 82 1725 76 z m 1528 182 l 1517 228 b 1556 206 1535 228 1550 226 b 1528 182 1561 185 1546 182 z m 1742 24 l 1731 65 b 1764 42 1747 65 1760 61 b 1742 24 1769 24 1758 24 z m 1860 -54 b 1881 -6 1890 -54 1886 -26 l 1863 -6 b 1867 -31 1864 -14 1871 -22 b 1842 -35 1869 -42 1851 -43 b 1824 13 1829 -22 1826 3 b 1817 60 1821 24 1810 49 b 1844 57 1821 69 1839 69 b 1851 33 1851 49 1850 39 l 1869 33 b 1833 76 1864 53 1856 76 b 1799 38 1801 82 1793 61 b 1860 -54 1808 4 1811 -54 z m 1665 111 l 1685 111 l 1654 228 l 1679 228 l 1675 240 l 1608 240 l 1613 228 l 1635 228 z m 1913 -53 l 1931 -53 l 1896 76 l 1878 76 z m 1718 111 l 1735 111 l 1719 171 l 1754 171 l 1769 111 l 1786 111 l 1751 240 l 1735 240 l 1750 182 l 1715 182 l 1700 240 l 1683 240 z m 1943 -53 l 1963 -53 l 1958 -19 l 1985 -19 l 2003 -53 l 2018 -53 l 1954 76 l 1938 76 z m 1960 -10 l 1953 53 l 1981 -10 z m 1807 111 l 1858 111 l 1856 121 l 1825 121 l 1813 171 l 1838 171 l 1833 182 l 1808 182 l 1797 228 l 1828 228 l 1824 240 l 1772 240 z m 2029 -53 l 2085 -53 l 2082 -42 l 2046 -42 l 2014 76 l 1994 76 z m 1914 111 l 1928 111 l 1913 171 l 1935 171 l 1931 182 l 1908 182 l 1897 228 l 1932 228 l 1928 240 l 1879 240 z m 2156 -53 l 2168 -53 l 2164 76 l 2149 76 l 2151 -19 l 2108 76 l 2093 76 z m 2019 111 b 2025 181 2043 121 2031 157 l 2008 240 l 1992 240 l 2007 182 b 2003 121 2011 167 2029 121 b 1969 182 1978 121 1974 167 l 1954 240 l 1939 240 l 1958 171 b 1965 142 1960 163 1961 151 b 2019 111 1975 117 1993 104 z m 2213 -53 l 2267 -53 l 2264 -42 l 2229 -42 l 2215 10 l 2243 10 l 2239 24 l 2211 24 l 2200 65 l 2235 65 l 2232 76 l 2178 76 z m 2064 111 l 2111 111 l 2108 121 l 2079 121 l 2047 240 l 2029 240 z m 2244 76 l 2279 -53 l 2297 -53 l 2281 10 l 2294 10 l 2326 -53 l 2344 -53 l 2307 13 b 2294 74 2329 18 2318 61 b 2244 76 2279 82 2260 76 z m 1363 790 l 1399 656 l 1415 656 l 1399 718 b 1435 726 1414 718 1426 715 b 1425 775 1440 735 1433 760 b 1363 790 1408 796 1379 790 z m 2276 24 l 2265 65 b 2299 42 2283 65 2294 61 b 2276 24 2304 24 2294 24 z m 2124 111 l 2174 111 l 2171 121 l 2139 121 l 2107 240 l 2089 240 z m 1396 729 l 1382 782 b 1415 758 1401 782 1410 782 b 1415 731 1419 746 1421 738 b 1396 729 1411 729 1403 729 z m 2394 -54 b 2410 -14 2418 -54 2424 -35 b 2376 24 2406 4 2386 13 b 2349 57 2363 33 2343 42 b 2365 65 2350 65 2356 69 b 2383 39 2374 61 2376 49 l 2394 46 b 2369 76 2390 60 2385 69 b 2336 69 2361 82 2346 81 b 2358 14 2321 60 2336 31 b 2400 -24 2369 7 2396 -10 b 2382 -37 2403 -35 2396 -43 b 2365 -11 2372 -35 2367 -19 l 2347 -14 b 2394 -54 2354 -37 2369 -54 z m 1481 656 l 1529 656 l 1525 669 l 1486 669 l 1454 790 l 1444 790 z m 1232 853 b 1236 992 1282 869 1249 947 l 1206 1107 l 1171 1107 l 1218 932 b 1185 875 1225 903 1226 864 b 1146 936 1160 886 1151 917 l 1100 1107 l 1068 1107 l 1110 949 b 1136 886 1117 924 1122 904 b 1232 853 1157 853 1204 838 z m 2440 -53 l 2457 -53 l 2422 76 l 2406 76 z m 2222 111 l 2238 111 l 2238 143 l 2263 143 l 2275 111 l 2294 111 l 2232 240 l 2211 240 z m 1542 656 l 1590 656 l 1586 669 l 1553 669 l 1540 718 l 1569 718 l 1567 731 l 1538 731 l 1524 782 l 1557 782 l 1554 790 l 1506 790 z m 2233 156 l 2226 215 l 2254 156 z m 2500 -37 b 2479 24 2482 -31 2483 10 l 2474 42 b 2493 61 2471 57 2471 69 b 2515 7 2507 57 2511 21 b 2500 -37 2519 -10 2532 -53 z m 2513 -54 b 2531 13 2551 -54 2538 -14 b 2482 76 2524 39 2518 76 b 2458 14 2440 82 2449 49 b 2513 -54 2465 -11 2474 -54 z m 1597 656 l 1614 656 l 1610 692 l 1638 692 l 1653 656 l 1672 656 l 1611 790 l 1589 790 z m 2307 111 l 2325 111 l 2301 199 l 2358 111 l 2372 111 l 2338 240 l 2319 240 l 2342 156 l 2283 240 l 2272 240 z m 1607 703 l 1603 769 l 1635 703 z m 1374 849 b 1410 926 1415 849 1429 886 b 1339 996 1399 961 1368 976 b 1283 1060 1315 1014 1281 1032 b 1313 1076 1283 1072 1293 1083 b 1350 1032 1331 1075 1344 1051 l 1376 1043 b 1339 1097 1372 1063 1360 1083 b 1274 1107 1318 1107 1290 1111 b 1271 1011 1238 1094 1243 1043 b 1333 963 1288 992 1315 976 b 1368 933 1350 956 1360 942 b 1381 883 1383 921 1393 892 b 1340 886 1372 872 1354 875 b 1317 932 1328 896 1322 917 l 1285 922 b 1374 849 1299 881 1331 849 z m 2568 -53 l 2578 -53 l 2553 38 l 2621 -53 l 2635 -53 l 2600 76 l 2585 76 l 2607 -10 l 2543 76 l 2533 76 z m 1715 656 b 1735 700 1740 656 1747 676 b 1696 731 1729 714 1710 722 b 1669 769 1685 740 1669 753 b 1704 753 1668 783 1685 789 l 1721 756 b 1692 789 1717 769 1706 783 b 1658 785 1678 794 1664 790 b 1681 726 1642 769 1661 740 b 1722 686 1693 715 1718 703 b 1704 669 1725 675 1718 669 b 1688 700 1694 675 1690 690 l 1672 692 b 1715 656 1678 675 1696 656 z m 2358 240 l 2393 111 b 2443 118 2404 111 2433 108 b 2440 174 2460 128 2444 156 b 2418 231 2436 192 2435 221 b 2358 240 2399 243 2372 240 z m 2408 121 l 2381 228 b 2417 206 2399 228 2410 228 l 2433 142 b 2408 121 2433 121 2422 121 z m 1761 656 l 1815 656 l 1811 669 l 1778 669 l 1765 718 l 1788 718 l 1785 731 l 1763 731 l 1749 782 l 1781 782 l 1778 790 l 1725 790 z m 1056 1146 l 1089 1146 l 1058 1261 b 1126 1275 1081 1261 1115 1258 b 1113 1372 1149 1297 1138 1340 b 1042 1400 1093 1397 1067 1400 l 988 1400 z m 1463 853 l 1560 853 l 1554 875 l 1490 875 l 1464 969 l 1515 969 l 1508 996 l 1457 996 l 1436 1076 l 1500 1076 l 1492 1107 l 1394 1107 z m 1051 1288 l 1028 1374 b 1068 1372 1040 1374 1051 1376 b 1101 1328 1092 1368 1097 1344 b 1090 1290 1107 1310 1108 1294 b 1051 1288 1076 1285 1064 1288 z m 1888 656 l 1906 656 l 1897 790 l 1882 790 l 1888 692 l 1842 790 l 1822 790 z m 1207 1146 l 1307 1146 l 1301 1167 l 1238 1167 l 1213 1261 l 1264 1261 l 1257 1288 l 1206 1288 l 1182 1374 l 1243 1374 l 1236 1400 l 1139 1400 z m 1946 656 l 1965 656 l 1929 790 l 1910 790 z m 2017 656 b 2033 700 2039 656 2047 676 b 1999 731 2029 714 2007 726 b 1969 769 1988 740 1968 753 b 2001 753 1974 783 1989 789 l 2019 756 b 1990 789 2014 769 2004 783 b 1958 785 1981 794 1968 790 b 1979 726 1940 769 1963 740 b 2019 686 1997 715 2018 703 b 2008 669 2022 675 2018 669 b 1986 700 1999 675 1989 690 l 1972 692 b 2017 656 1979 675 1993 656 z m 1731 849 b 1778 901 1764 849 1783 865 b 1764 963 1779 921 1769 940 b 1728 1071 1754 996 1751 1040 b 1653 1107 1713 1099 1683 1107 b 1603 1065 1626 1107 1604 1094 b 1628 956 1606 1032 1618 992 b 1646 903 1633 936 1638 921 b 1731 849 1660 865 1693 849 z m 1701 878 b 1674 932 1683 886 1678 913 l 1661 976 b 1640 1057 1654 1003 1642 1032 b 1660 1076 1640 1071 1646 1076 b 1692 1071 1668 1083 1679 1076 b 1713 1032 1707 1061 1710 1046 l 1738 940 b 1744 913 1740 932 1744 921 b 1732 878 1747 901 1743 886 b 1701 878 1725 875 1714 875 z m 2061 656 l 2083 656 l 2047 790 l 2025 790 z m 1267 1400 l 1335 1146 l 1374 1146 l 1343 1263 l 1368 1263 l 1433 1146 l 1465 1146 l 1400 1271 b 1369 1389 1440 1285 1413 1369 b 1267 1400 1339 1404 1301 1400 z m 2119 656 l 2133 656 l 2100 782 l 2121 782 l 2118 790 l 2057 790 l 2060 782 l 2086 782 z m 1336 1288 l 1313 1374 b 1350 1371 1322 1374 1336 1376 b 1379 1336 1367 1364 1376 1347 b 1372 1290 1386 1317 1385 1297 b 1336 1288 1360 1288 1346 1288 z m 1833 853 l 1860 853 l 1814 1025 l 1935 853 l 1960 853 l 1892 1107 l 1861 1107 l 1907 936 l 1789 1107 l 1765 1107 z m 1563 1143 b 1600 1221 1606 1143 1619 1179 b 1531 1288 1586 1249 1557 1267 b 1471 1353 1507 1301 1472 1325 b 1500 1376 1469 1369 1485 1376 b 1540 1328 1521 1371 1531 1344 l 1564 1338 b 1529 1389 1560 1356 1549 1379 b 1465 1397 1508 1401 1482 1404 b 1461 1299 1424 1389 1429 1338 b 1524 1253 1479 1282 1506 1267 b 1560 1225 1543 1242 1553 1232 b 1574 1175 1574 1210 1583 1186 b 1529 1179 1563 1167 1544 1167 b 1501 1225 1518 1189 1510 1206 l 1469 1215 b 1563 1143 1482 1175 1517 1143 z m 2000 853 l 2096 853 l 2090 875 l 2029 875 l 1967 1107 l 1932 1107 z m 1693 1171 b 1663 1222 1672 1181 1667 1206 l 1650 1267 b 1631 1347 1643 1293 1624 1328 b 1646 1374 1629 1364 1635 1372 b 1676 1364 1657 1376 1667 1376 b 1701 1322 1694 1353 1697 1338 l 1733 1206 b 1724 1171 1736 1193 1738 1179 b 1693 1171 1717 1167 1701 1167 z m 2269 853 l 2306 853 l 2297 886 l 2261 886 z m 2146 904 l 2160 853 l 2197 853 l 2181 914 b 2172 949 2178 924 2172 936 l 2178 1000 b 2183 1107 2182 1036 2183 1071 l 2149 1107 l 2143 985 l 2071 1107 l 2040 1107 l 2106 992 b 2136 942 2118 976 2126 963 b 2146 904 2140 932 2143 917 z m 1821 1146 l 1850 1146 l 1804 1317 l 1921 1146 l 1946 1146 l 1878 1400 l 1846 1400 l 1893 1228 l 1774 1400 l 1753 1400 z m 2267 906 l 2279 906 l 2238 1107 l 2201 1107 z m 1971 1146 l 2003 1146 l 2001 1206 l 2053 1206 l 2081 1146 l 2115 1146 l 1992 1400 l 1958 1400 z m 2000 1232 l 1990 1347 l 2042 1232 z m 2140 1146 l 2242 1146 l 2236 1167 l 2172 1167 l 2110 1400 l 2072 1400 z m 626 299 l 671 299 l 642 419 l 699 299 l 733 299 l 721 422 l 760 299 l 801 299 l 719 597 l 669 597 l 685 410 l 599 597 l 550 597 z m 840 299 l 888 299 l 849 444 l 940 299 l 976 299 l 896 597 l 849 597 l 888 454 l 799 597 l 760 597 z m 1011 299 l 1061 299 l 1046 353 l 996 353 z m 1165 294 b 1201 354 1196 303 1207 329 b 1140 454 1196 393 1175 426 l 1110 482 b 1071 517 1097 492 1082 499 b 1082 554 1064 528 1057 556 b 1117 497 1103 551 1107 517 l 1161 499 b 1097 594 1151 535 1136 578 b 1018 543 1050 614 1007 586 b 1049 474 1021 518 1032 492 b 1085 442 1057 461 1072 454 b 1150 368 1107 422 1143 399 b 1144 343 1154 354 1153 346 b 1124 353 1138 339 1129 346 b 1097 406 1107 368 1101 389 l 1051 403 b 1085 331 1058 376 1068 353 b 1165 294 1103 303 1138 290 z m 1343 307 l 1347 299 l 1386 299 l 1344 454 l 1268 454 l 1279 410 l 1308 410 b 1297 343 1314 393 1336 329 b 1264 406 1272 349 1268 390 l 1235 514 b 1251 554 1229 536 1228 558 b 1285 492 1267 549 1269 544 l 1333 492 b 1274 590 1324 524 1314 569 b 1204 597 1251 603 1225 603 b 1178 535 1181 586 1176 560 b 1200 449 1182 507 1192 478 b 1224 365 1208 419 1213 393 b 1271 304 1232 343 1247 314 b 1343 307 1294 290 1328 290 z m 1407 261 l 1449 261 l 1433 636 l 1386 636 z m 1619 293 b 1656 353 1650 300 1663 326 b 1593 453 1650 392 1626 425 l 1561 479 b 1526 514 1549 490 1536 499 b 1535 553 1519 526 1514 554 b 1568 496 1556 549 1563 514 l 1615 499 b 1550 593 1607 533 1589 578 b 1469 540 1506 611 1461 585 b 1504 471 1474 517 1483 490 b 1536 440 1510 461 1524 453 b 1603 365 1558 421 1594 399 b 1599 340 1606 353 1608 343 b 1578 351 1589 338 1581 343 b 1554 404 1563 368 1558 386 l 1507 401 b 1536 329 1514 375 1521 351 b 1619 293 1558 300 1593 289 z m 1697 296 l 1744 296 l 1719 390 b 1756 394 1739 390 1744 390 b 1783 496 1807 407 1790 471 b 1690 596 1767 560 1725 596 l 1618 596 z m 1735 435 l 1708 435 l 1676 553 l 1696 553 b 1735 435 1726 553 1750 443 z m 1863 296 l 1911 296 l 1876 426 l 1890 426 l 1951 296 l 2001 296 l 1932 435 b 1944 518 1953 453 1951 490 b 1871 596 1929 574 1893 596 l 1783 596 z m 1892 468 l 1865 468 l 1843 553 l 1858 553 b 1892 468 1889 553 1907 478 z m 2029 296 l 2081 296 l 2001 596 l 1950 596 z m 2106 296 l 2153 296 l 2114 443 l 2203 296 l 2242 296 l 2163 596 l 2115 596 l 2153 453 l 2063 596 l 2026 596 z m 2368 307 l 2374 296 l 2414 296 l 2372 453 l 2294 453 l 2307 407 l 2338 407 b 2325 340 2342 392 2363 329 b 2290 404 2301 349 2293 389 l 2271 475 b 2256 538 2265 493 2256 519 b 2276 553 2254 551 2267 556 b 2311 490 2286 550 2297 540 l 2360 490 b 2301 589 2351 522 2342 568 b 2235 596 2281 600 2251 601 b 2207 533 2207 585 2201 558 b 2226 447 2210 506 2219 475 b 2253 363 2235 418 2242 392 b 2299 303 2260 340 2276 314 b 2368 307 2322 290 2357 289 z m 2469 296 l 2522 296 l 2456 544 l 2496 544 l 2483 596 l 2349 596 l 2361 544 l 2403 544 z m 2633 299 b 2699 306 2656 293 2682 293 b 2703 404 2726 325 2711 369 l 2679 490 b 2622 589 2671 522 2661 568 b 2554 596 2600 600 2574 600 b 2528 532 2529 585 2522 558 b 2538 488 2531 517 2535 501 l 2561 404 b 2574 360 2564 390 2568 375 b 2633 299 2582 333 2603 308 z m 2654 340 b 2629 351 2644 339 2632 346 b 2607 410 2617 369 2611 394 l 2589 482 b 2578 543 2583 499 2576 522 b 2597 553 2578 546 2588 553 b 2618 533 2607 549 2614 544 b 2631 490 2625 519 2626 506 l 2654 404 b 2664 360 2657 389 2664 374 b 2654 340 2668 346 2661 346 z m 2778 296 l 2826 296 l 2814 447 l 2881 296 l 2931 296 l 2889 596 l 2840 596 l 2876 400 l 2793 596 l 2760 596 l 2778 400 l 2711 596 l 2664 596 z m 2981 296 l 3028 296 l 2989 443 l 3078 296 l 3117 296 l 3038 596 l 2990 596 l 3028 453 l 2939 596 l 2901 596 z "},"8":{"ha":3694,"x_min":0,"x_max":0,"o":"m 1713 1143 b 1768 1193 1750 1143 1771 1157 b 1758 1253 1769 1210 1764 1232 b 1719 1364 1750 1285 1742 1332 b 1639 1401 1703 1393 1667 1401 b 1594 1356 1614 1400 1592 1389 b 1618 1242 1593 1325 1608 1279 b 1633 1197 1622 1228 1625 1214 b 1713 1143 1647 1163 1674 1143 z m 1331 -54 b 1347 -6 1358 -54 1353 -26 l 1332 -6 b 1336 -31 1333 -14 1338 -22 b 1310 -35 1335 -42 1318 -43 b 1292 13 1299 -22 1294 3 b 1285 60 1289 24 1279 49 b 1314 57 1288 69 1304 69 b 1321 33 1318 49 1319 39 l 1336 33 b 1300 76 1331 53 1325 76 b 1265 38 1267 82 1260 61 b 1331 -54 1275 4 1281 -54 z m 1399 -37 b 1371 24 1381 -31 1375 10 l 1365 42 b 1389 61 1363 57 1369 69 b 1413 7 1403 57 1408 21 b 1399 -37 1417 -10 1431 -53 z m 1411 -54 b 1429 13 1450 -54 1436 -14 b 1376 76 1422 39 1415 76 b 1357 14 1339 82 1347 49 b 1411 -54 1364 -11 1369 -54 z m 1467 -53 l 1481 -53 l 1454 42 l 1503 -53 l 1517 -53 l 1511 42 l 1538 -53 l 1550 -53 l 1514 76 l 1494 76 l 1504 -26 l 1450 76 l 1432 76 z m 1379 111 l 1399 111 l 1383 171 l 1410 171 l 1406 182 l 1379 182 l 1368 228 l 1400 228 l 1396 240 l 1344 240 z m 1572 -53 l 1585 -53 l 1563 42 l 1606 -53 l 1621 -53 l 1615 42 l 1644 -53 l 1657 -53 l 1617 76 l 1601 76 l 1608 -26 l 1557 76 l 1538 76 z m 1478 111 b 1497 174 1514 111 1504 147 b 1446 243 1490 199 1483 236 b 1422 179 1406 243 1414 210 b 1478 111 1429 151 1438 111 z m 1469 122 b 1440 182 1446 129 1444 171 l 1435 203 b 1454 226 1431 221 1439 235 b 1482 169 1472 221 1478 182 b 1469 122 1486 151 1496 117 z m 1676 -53 l 1729 -53 l 1726 -42 l 1696 -42 l 1682 10 l 1707 10 l 1703 24 l 1678 24 l 1667 65 l 1697 65 l 1694 76 l 1642 76 z m 1497 240 l 1532 111 l 1547 111 l 1532 171 l 1546 171 l 1581 111 l 1600 111 l 1564 174 b 1547 236 1583 182 1569 226 b 1497 240 1531 243 1513 240 z m 1707 76 l 1742 -53 l 1763 -53 l 1746 10 l 1760 10 l 1792 -53 l 1810 -53 l 1772 13 b 1757 74 1790 21 1779 61 b 1707 76 1743 82 1725 76 z m 1528 182 l 1517 228 b 1556 206 1535 228 1550 226 b 1528 182 1561 185 1546 182 z m 1742 24 l 1731 65 b 1764 42 1747 65 1760 61 b 1742 24 1769 24 1758 24 z m 1860 -54 b 1881 -6 1890 -54 1886 -26 l 1863 -6 b 1867 -31 1864 -14 1871 -22 b 1842 -35 1869 -42 1851 -43 b 1824 13 1829 -22 1826 3 b 1817 60 1821 24 1810 49 b 1844 57 1821 69 1839 69 b 1851 33 1851 49 1850 39 l 1869 33 b 1833 76 1864 53 1856 76 b 1799 38 1801 82 1793 61 b 1860 -54 1808 4 1811 -54 z m 1665 111 l 1685 111 l 1654 228 l 1679 228 l 1675 240 l 1608 240 l 1613 228 l 1635 228 z m 1913 -53 l 1931 -53 l 1896 76 l 1878 76 z m 1718 111 l 1735 111 l 1719 171 l 1754 171 l 1769 111 l 1786 111 l 1751 240 l 1735 240 l 1750 182 l 1715 182 l 1700 240 l 1683 240 z m 1943 -53 l 1963 -53 l 1958 -19 l 1985 -19 l 2003 -53 l 2018 -53 l 1954 76 l 1938 76 z m 1960 -10 l 1953 53 l 1981 -10 z m 1807 111 l 1858 111 l 1856 121 l 1825 121 l 1813 171 l 1838 171 l 1833 182 l 1808 182 l 1797 228 l 1828 228 l 1824 240 l 1772 240 z m 2029 -53 l 2085 -53 l 2082 -42 l 2046 -42 l 2014 76 l 1994 76 z m 1914 111 l 1928 111 l 1913 171 l 1935 171 l 1931 182 l 1908 182 l 1897 228 l 1932 228 l 1928 240 l 1879 240 z m 2156 -53 l 2168 -53 l 2164 76 l 2149 76 l 2151 -19 l 2108 76 l 2093 76 z m 2019 111 b 2025 181 2043 121 2031 157 l 2008 240 l 1992 240 l 2007 182 b 2003 121 2011 167 2029 121 b 1969 182 1978 121 1974 167 l 1954 240 l 1939 240 l 1958 171 b 1965 142 1960 163 1961 151 b 2019 111 1975 117 1993 104 z m 2213 -53 l 2267 -53 l 2264 -42 l 2229 -42 l 2215 10 l 2243 10 l 2239 24 l 2211 24 l 2200 65 l 2235 65 l 2232 76 l 2178 76 z m 2064 111 l 2111 111 l 2108 121 l 2079 121 l 2047 240 l 2029 240 z m 2244 76 l 2279 -53 l 2297 -53 l 2281 10 l 2294 10 l 2326 -53 l 2344 -53 l 2307 13 b 2294 74 2329 18 2318 61 b 2244 76 2279 82 2260 76 z m 1363 790 l 1399 656 l 1415 656 l 1399 718 b 1435 726 1414 718 1426 715 b 1425 775 1440 735 1433 760 b 1363 790 1408 796 1379 790 z m 2276 24 l 2265 65 b 2299 42 2283 65 2294 61 b 2276 24 2304 24 2294 24 z m 2124 111 l 2174 111 l 2171 121 l 2139 121 l 2107 240 l 2089 240 z m 1396 729 l 1382 782 b 1415 758 1401 782 1410 782 b 1415 731 1419 746 1421 738 b 1396 729 1411 729 1403 729 z m 2394 -54 b 2410 -14 2418 -54 2424 -35 b 2376 24 2406 4 2386 13 b 2349 57 2363 33 2343 42 b 2365 65 2350 65 2356 69 b 2383 39 2374 61 2376 49 l 2394 46 b 2369 76 2390 60 2385 69 b 2336 69 2361 82 2346 81 b 2358 14 2321 60 2336 31 b 2400 -24 2369 7 2396 -10 b 2382 -37 2403 -35 2396 -43 b 2365 -11 2372 -35 2367 -19 l 2347 -14 b 2394 -54 2354 -37 2369 -54 z m 1481 656 l 1529 656 l 1525 669 l 1486 669 l 1454 790 l 1444 790 z m 1232 853 b 1236 992 1282 869 1249 947 l 1206 1107 l 1171 1107 l 1218 932 b 1185 875 1225 903 1226 864 b 1146 936 1160 886 1151 917 l 1100 1107 l 1068 1107 l 1110 949 b 1136 886 1117 924 1122 904 b 1232 853 1157 853 1204 838 z m 2440 -53 l 2457 -53 l 2422 76 l 2406 76 z m 2222 111 l 2238 111 l 2238 143 l 2263 143 l 2275 111 l 2294 111 l 2232 240 l 2211 240 z m 1542 656 l 1590 656 l 1586 669 l 1553 669 l 1540 718 l 1569 718 l 1567 731 l 1538 731 l 1524 782 l 1557 782 l 1554 790 l 1506 790 z m 2233 156 l 2226 215 l 2254 156 z m 2500 -37 b 2479 24 2482 -31 2483 10 l 2474 42 b 2493 61 2471 57 2471 69 b 2515 7 2507 57 2511 21 b 2500 -37 2519 -10 2532 -53 z m 2513 -54 b 2531 13 2551 -54 2538 -14 b 2482 76 2524 39 2518 76 b 2458 14 2440 82 2449 49 b 2513 -54 2465 -11 2474 -54 z m 1597 656 l 1614 656 l 1610 692 l 1638 692 l 1653 656 l 1672 656 l 1611 790 l 1589 790 z m 2307 111 l 2325 111 l 2301 199 l 2358 111 l 2372 111 l 2338 240 l 2319 240 l 2342 156 l 2283 240 l 2272 240 z m 1607 703 l 1603 769 l 1635 703 z m 1374 849 b 1410 926 1415 849 1429 886 b 1339 996 1399 961 1368 976 b 1283 1060 1315 1014 1281 1032 b 1313 1076 1283 1072 1293 1083 b 1350 1032 1331 1075 1344 1051 l 1376 1043 b 1339 1097 1372 1063 1360 1083 b 1274 1107 1318 1107 1290 1111 b 1271 1011 1238 1094 1243 1043 b 1333 963 1288 992 1315 976 b 1368 933 1350 956 1360 942 b 1381 883 1383 921 1393 892 b 1340 886 1372 872 1354 875 b 1317 932 1328 896 1322 917 l 1285 922 b 1374 849 1299 881 1331 849 z m 2568 -53 l 2578 -53 l 2553 38 l 2621 -53 l 2635 -53 l 2600 76 l 2585 76 l 2607 -10 l 2543 76 l 2533 76 z m 1715 656 b 1735 700 1740 656 1747 676 b 1696 731 1729 714 1710 722 b 1669 769 1685 740 1669 753 b 1704 753 1668 783 1685 789 l 1721 756 b 1692 789 1717 769 1706 783 b 1658 785 1678 794 1664 790 b 1681 726 1642 769 1661 740 b 1722 686 1693 715 1718 703 b 1704 669 1725 675 1718 669 b 1688 700 1694 675 1690 690 l 1672 692 b 1715 656 1678 675 1696 656 z m 2358 240 l 2393 111 b 2443 118 2404 111 2433 108 b 2440 174 2460 128 2444 156 b 2418 231 2436 192 2435 221 b 2358 240 2399 243 2372 240 z m 2408 121 l 2381 228 b 2417 206 2399 228 2410 228 l 2433 142 b 2408 121 2433 121 2422 121 z m 1761 656 l 1815 656 l 1811 669 l 1778 669 l 1765 718 l 1788 718 l 1785 731 l 1763 731 l 1749 782 l 1781 782 l 1778 790 l 1725 790 z m 1056 1146 l 1089 1146 l 1058 1261 b 1126 1275 1081 1261 1115 1258 b 1113 1372 1149 1297 1138 1340 b 1042 1400 1093 1397 1067 1400 l 988 1400 z m 1463 853 l 1560 853 l 1554 875 l 1490 875 l 1464 969 l 1515 969 l 1508 996 l 1457 996 l 1436 1076 l 1500 1076 l 1492 1107 l 1394 1107 z m 1051 1288 l 1028 1374 b 1068 1372 1040 1374 1051 1376 b 1101 1328 1092 1368 1097 1344 b 1090 1290 1107 1310 1108 1294 b 1051 1288 1076 1285 1064 1288 z m 1888 656 l 1906 656 l 1897 790 l 1882 790 l 1888 692 l 1842 790 l 1822 790 z m 1207 1146 l 1307 1146 l 1301 1167 l 1238 1167 l 1213 1261 l 1264 1261 l 1257 1288 l 1206 1288 l 1182 1374 l 1243 1374 l 1236 1400 l 1139 1400 z m 1946 656 l 1965 656 l 1929 790 l 1910 790 z m 2017 656 b 2033 700 2039 656 2047 676 b 1999 731 2029 714 2007 726 b 1969 769 1988 740 1968 753 b 2001 753 1974 783 1989 789 l 2019 756 b 1990 789 2014 769 2004 783 b 1958 785 1981 794 1968 790 b 1979 726 1940 769 1963 740 b 2019 686 1997 715 2018 703 b 2008 669 2022 675 2018 669 b 1986 700 1999 675 1989 690 l 1972 692 b 2017 656 1979 675 1993 656 z m 1731 849 b 1778 901 1764 849 1783 865 b 1764 963 1779 921 1769 940 b 1728 1071 1754 996 1751 1040 b 1653 1107 1713 1099 1683 1107 b 1603 1065 1626 1107 1604 1094 b 1628 956 1606 1032 1618 992 b 1646 903 1633 936 1638 921 b 1731 849 1660 865 1693 849 z m 1701 878 b 1674 932 1683 886 1678 913 l 1661 976 b 1640 1057 1654 1003 1642 1032 b 1660 1076 1640 1071 1646 1076 b 1692 1071 1668 1083 1679 1076 b 1713 1032 1707 1061 1710 1046 l 1738 940 b 1744 913 1740 932 1744 921 b 1732 878 1747 901 1743 886 b 1701 878 1725 875 1714 875 z m 2061 656 l 2083 656 l 2047 790 l 2025 790 z m 1267 1400 l 1335 1146 l 1374 1146 l 1343 1263 l 1368 1263 l 1433 1146 l 1465 1146 l 1400 1271 b 1369 1389 1440 1285 1413 1369 b 1267 1400 1339 1404 1301 1400 z m 2119 656 l 2133 656 l 2100 782 l 2121 782 l 2118 790 l 2057 790 l 2060 782 l 2086 782 z m 1336 1288 l 1313 1374 b 1350 1371 1322 1374 1336 1376 b 1379 1336 1367 1364 1376 1347 b 1372 1290 1386 1317 1385 1297 b 1336 1288 1360 1288 1346 1288 z m 1833 853 l 1860 853 l 1814 1025 l 1935 853 l 1960 853 l 1892 1107 l 1861 1107 l 1907 936 l 1789 1107 l 1765 1107 z m 1563 1143 b 1600 1221 1606 1143 1619 1179 b 1531 1288 1586 1249 1557 1267 b 1471 1353 1507 1301 1472 1325 b 1500 1376 1469 1369 1485 1376 b 1540 1328 1521 1371 1531 1344 l 1564 1338 b 1529 1389 1560 1356 1549 1379 b 1465 1397 1508 1401 1482 1404 b 1461 1299 1424 1389 1429 1338 b 1524 1253 1479 1282 1506 1267 b 1560 1225 1543 1242 1553 1232 b 1574 1175 1574 1210 1583 1186 b 1529 1179 1563 1167 1544 1167 b 1501 1225 1518 1189 1510 1206 l 1469 1215 b 1563 1143 1482 1175 1517 1143 z m 2000 853 l 2096 853 l 2090 875 l 2029 875 l 1967 1107 l 1932 1107 z m 1693 1171 b 1663 1222 1672 1181 1667 1206 l 1650 1267 b 1631 1347 1643 1293 1624 1328 b 1646 1374 1629 1364 1635 1372 b 1676 1364 1657 1376 1667 1376 b 1701 1322 1694 1353 1697 1338 l 1733 1206 b 1724 1171 1736 1193 1738 1179 b 1693 1171 1717 1167 1701 1167 z m 2269 853 l 2306 853 l 2297 886 l 2261 886 z m 2146 904 l 2160 853 l 2197 853 l 2181 914 b 2172 949 2178 924 2172 936 l 2178 1000 b 2183 1107 2182 1036 2183 1071 l 2149 1107 l 2143 985 l 2071 1107 l 2040 1107 l 2106 992 b 2136 942 2118 976 2126 963 b 2146 904 2140 932 2143 917 z m 1821 1146 l 1850 1146 l 1804 1317 l 1921 1146 l 1946 1146 l 1878 1400 l 1846 1400 l 1893 1228 l 1774 1400 l 1753 1400 z m 2267 906 l 2279 906 l 2238 1107 l 2201 1107 z m 1971 1146 l 2003 1146 l 2001 1206 l 2053 1206 l 2081 1146 l 2115 1146 l 1992 1400 l 1958 1400 z m 2000 1232 l 1990 1347 l 2042 1232 z m 2140 1146 l 2242 1146 l 2236 1167 l 2172 1167 l 2110 1400 l 2072 1400 z m 626 299 l 671 299 l 642 419 l 699 299 l 733 299 l 721 422 l 760 299 l 801 299 l 719 597 l 669 597 l 685 410 l 599 597 l 550 597 z m 840 299 l 888 299 l 849 444 l 940 299 l 976 299 l 896 597 l 849 597 l 888 454 l 799 597 l 760 597 z m 1011 299 l 1061 299 l 1046 353 l 996 353 z m 1165 294 b 1201 354 1196 303 1207 329 b 1140 454 1196 393 1175 426 l 1110 482 b 1071 517 1097 492 1082 499 b 1082 554 1064 528 1057 556 b 1117 497 1103 551 1107 517 l 1161 499 b 1097 594 1151 535 1136 578 b 1018 543 1050 614 1007 586 b 1049 474 1021 518 1032 492 b 1085 442 1057 461 1072 454 b 1150 368 1107 422 1143 399 b 1144 343 1154 354 1153 346 b 1124 353 1138 339 1129 346 b 1097 406 1107 368 1101 389 l 1051 403 b 1085 331 1058 376 1068 353 b 1165 294 1103 303 1138 290 z m 1343 307 l 1347 299 l 1386 299 l 1344 454 l 1268 454 l 1279 410 l 1308 410 b 1297 343 1314 393 1336 329 b 1264 406 1272 349 1268 390 l 1235 514 b 1251 554 1229 536 1228 558 b 1285 492 1267 549 1269 544 l 1333 492 b 1274 590 1324 524 1314 569 b 1204 597 1251 603 1225 603 b 1178 535 1181 586 1176 560 b 1200 449 1182 507 1192 478 b 1224 365 1208 419 1213 393 b 1271 304 1232 343 1247 314 b 1343 307 1294 290 1328 290 z m 1407 261 l 1449 261 l 1433 636 l 1386 636 z m 1619 293 b 1656 353 1650 300 1663 326 b 1593 453 1650 392 1626 425 l 1561 479 b 1526 514 1549 490 1536 499 b 1535 553 1519 526 1514 554 b 1568 496 1556 549 1563 514 l 1615 499 b 1550 593 1607 533 1589 578 b 1469 540 1506 611 1461 585 b 1504 471 1474 517 1483 490 b 1536 440 1510 461 1524 453 b 1603 365 1558 421 1594 399 b 1599 340 1606 353 1608 343 b 1578 351 1589 338 1581 343 b 1554 404 1563 368 1558 386 l 1507 401 b 1536 329 1514 375 1521 351 b 1619 293 1558 300 1593 289 z m 1697 296 l 1744 296 l 1719 390 b 1756 394 1739 390 1744 390 b 1783 496 1807 407 1790 471 b 1690 596 1767 560 1725 596 l 1618 596 z m 1735 435 l 1708 435 l 1676 553 l 1696 553 b 1735 435 1726 553 1750 443 z m 1863 296 l 1911 296 l 1876 426 l 1890 426 l 1951 296 l 2001 296 l 1932 435 b 1944 518 1953 453 1951 490 b 1871 596 1929 574 1893 596 l 1783 596 z m 1892 468 l 1865 468 l 1843 553 l 1858 553 b 1892 468 1889 553 1907 478 z m 2029 296 l 2081 296 l 2001 596 l 1950 596 z m 2106 296 l 2153 296 l 2114 443 l 2203 296 l 2242 296 l 2163 596 l 2115 596 l 2153 453 l 2063 596 l 2026 596 z m 2368 307 l 2374 296 l 2414 296 l 2372 453 l 2294 453 l 2307 407 l 2338 407 b 2325 340 2342 392 2363 329 b 2290 404 2301 349 2293 389 l 2271 475 b 2256 538 2265 493 2256 519 b 2276 553 2254 551 2267 556 b 2311 490 2286 550 2297 540 l 2360 490 b 2301 589 2351 522 2342 568 b 2235 596 2281 600 2251 601 b 2207 533 2207 585 2201 558 b 2226 447 2210 506 2219 475 b 2253 363 2235 418 2242 392 b 2299 303 2260 340 2276 314 b 2368 307 2322 290 2357 289 z m 2469 296 l 2522 296 l 2456 544 l 2496 544 l 2483 596 l 2349 596 l 2361 544 l 2403 544 z m 2633 299 b 2699 306 2656 293 2682 293 b 2703 404 2726 325 2711 369 l 2679 490 b 2622 589 2671 522 2661 568 b 2554 596 2600 600 2574 600 b 2528 532 2529 585 2522 558 b 2538 488 2531 517 2535 501 l 2561 404 b 2574 360 2564 390 2568 375 b 2633 299 2582 333 2603 308 z m 2654 340 b 2629 351 2644 339 2632 346 b 2607 410 2617 369 2611 394 l 2589 482 b 2578 543 2583 499 2576 522 b 2597 553 2578 546 2588 553 b 2618 533 2607 549 2614 544 b 2631 490 2625 519 2626 506 l 2654 404 b 2664 360 2657 389 2664 374 b 2654 340 2668 346 2661 346 z m 2778 296 l 2826 296 l 2814 447 l 2881 296 l 2931 296 l 2889 596 l 2840 596 l 2876 400 l 2793 596 l 2760 596 l 2778 400 l 2711 596 l 2664 596 z m 2981 296 l 3028 296 l 2989 443 l 3078 296 l 3117 296 l 3038 596 l 2990 596 l 3028 453 l 2939 596 l 2901 596 z "},"9":{"ha":3694,"x_min":0,"x_max":0,"o":"m 1713 1143 b 1768 1193 1750 1143 1771 1157 b 1758 1253 1769 1210 1764 1232 b 1719 1364 1750 1285 1742 1332 b 1639 1401 1703 1393 1667 1401 b 1594 1356 1614 1400 1592 1389 b 1618 1242 1593 1325 1608 1279 b 1633 1197 1622 1228 1625 1214 b 1713 1143 1647 1163 1674 1143 z m 1331 -54 b 1347 -6 1358 -54 1353 -26 l 1332 -6 b 1336 -31 1333 -14 1338 -22 b 1310 -35 1335 -42 1318 -43 b 1292 13 1299 -22 1294 3 b 1285 60 1289 24 1279 49 b 1314 57 1288 69 1304 69 b 1321 33 1318 49 1319 39 l 1336 33 b 1300 76 1331 53 1325 76 b 1265 38 1267 82 1260 61 b 1331 -54 1275 4 1281 -54 z m 1399 -37 b 1371 24 1381 -31 1375 10 l 1365 42 b 1389 61 1363 57 1369 69 b 1413 7 1403 57 1408 21 b 1399 -37 1417 -10 1431 -53 z m 1411 -54 b 1429 13 1450 -54 1436 -14 b 1376 76 1422 39 1415 76 b 1357 14 1339 82 1347 49 b 1411 -54 1364 -11 1369 -54 z m 1467 -53 l 1481 -53 l 1454 42 l 1503 -53 l 1517 -53 l 1511 42 l 1538 -53 l 1550 -53 l 1514 76 l 1494 76 l 1504 -26 l 1450 76 l 1432 76 z m 1379 111 l 1399 111 l 1383 171 l 1410 171 l 1406 182 l 1379 182 l 1368 228 l 1400 228 l 1396 240 l 1344 240 z m 1572 -53 l 1585 -53 l 1563 42 l 1606 -53 l 1621 -53 l 1615 42 l 1644 -53 l 1657 -53 l 1617 76 l 1601 76 l 1608 -26 l 1557 76 l 1538 76 z m 1478 111 b 1497 174 1514 111 1504 147 b 1446 243 1490 199 1483 236 b 1422 179 1406 243 1414 210 b 1478 111 1429 151 1438 111 z m 1469 122 b 1440 182 1446 129 1444 171 l 1435 203 b 1454 226 1431 221 1439 235 b 1482 169 1472 221 1478 182 b 1469 122 1486 151 1496 117 z m 1676 -53 l 1729 -53 l 1726 -42 l 1696 -42 l 1682 10 l 1707 10 l 1703 24 l 1678 24 l 1667 65 l 1697 65 l 1694 76 l 1642 76 z m 1497 240 l 1532 111 l 1547 111 l 1532 171 l 1546 171 l 1581 111 l 1600 111 l 1564 174 b 1547 236 1583 182 1569 226 b 1497 240 1531 243 1513 240 z m 1707 76 l 1742 -53 l 1763 -53 l 1746 10 l 1760 10 l 1792 -53 l 1810 -53 l 1772 13 b 1757 74 1790 21 1779 61 b 1707 76 1743 82 1725 76 z m 1528 182 l 1517 228 b 1556 206 1535 228 1550 226 b 1528 182 1561 185 1546 182 z m 1742 24 l 1731 65 b 1764 42 1747 65 1760 61 b 1742 24 1769 24 1758 24 z m 1860 -54 b 1881 -6 1890 -54 1886 -26 l 1863 -6 b 1867 -31 1864 -14 1871 -22 b 1842 -35 1869 -42 1851 -43 b 1824 13 1829 -22 1826 3 b 1817 60 1821 24 1810 49 b 1844 57 1821 69 1839 69 b 1851 33 1851 49 1850 39 l 1869 33 b 1833 76 1864 53 1856 76 b 1799 38 1801 82 1793 61 b 1860 -54 1808 4 1811 -54 z m 1665 111 l 1685 111 l 1654 228 l 1679 228 l 1675 240 l 1608 240 l 1613 228 l 1635 228 z m 1913 -53 l 1931 -53 l 1896 76 l 1878 76 z m 1718 111 l 1735 111 l 1719 171 l 1754 171 l 1769 111 l 1786 111 l 1751 240 l 1735 240 l 1750 182 l 1715 182 l 1700 240 l 1683 240 z m 1943 -53 l 1963 -53 l 1958 -19 l 1985 -19 l 2003 -53 l 2018 -53 l 1954 76 l 1938 76 z m 1960 -10 l 1953 53 l 1981 -10 z m 1807 111 l 1858 111 l 1856 121 l 1825 121 l 1813 171 l 1838 171 l 1833 182 l 1808 182 l 1797 228 l 1828 228 l 1824 240 l 1772 240 z m 2029 -53 l 2085 -53 l 2082 -42 l 2046 -42 l 2014 76 l 1994 76 z m 1914 111 l 1928 111 l 1913 171 l 1935 171 l 1931 182 l 1908 182 l 1897 228 l 1932 228 l 1928 240 l 1879 240 z m 2156 -53 l 2168 -53 l 2164 76 l 2149 76 l 2151 -19 l 2108 76 l 2093 76 z m 2019 111 b 2025 181 2043 121 2031 157 l 2008 240 l 1992 240 l 2007 182 b 2003 121 2011 167 2029 121 b 1969 182 1978 121 1974 167 l 1954 240 l 1939 240 l 1958 171 b 1965 142 1960 163 1961 151 b 2019 111 1975 117 1993 104 z m 2213 -53 l 2267 -53 l 2264 -42 l 2229 -42 l 2215 10 l 2243 10 l 2239 24 l 2211 24 l 2200 65 l 2235 65 l 2232 76 l 2178 76 z m 2064 111 l 2111 111 l 2108 121 l 2079 121 l 2047 240 l 2029 240 z m 2244 76 l 2279 -53 l 2297 -53 l 2281 10 l 2294 10 l 2326 -53 l 2344 -53 l 2307 13 b 2294 74 2329 18 2318 61 b 2244 76 2279 82 2260 76 z m 1363 790 l 1399 656 l 1415 656 l 1399 718 b 1435 726 1414 718 1426 715 b 1425 775 1440 735 1433 760 b 1363 790 1408 796 1379 790 z m 2276 24 l 2265 65 b 2299 42 2283 65 2294 61 b 2276 24 2304 24 2294 24 z m 2124 111 l 2174 111 l 2171 121 l 2139 121 l 2107 240 l 2089 240 z m 1396 729 l 1382 782 b 1415 758 1401 782 1410 782 b 1415 731 1419 746 1421 738 b 1396 729 1411 729 1403 729 z m 2394 -54 b 2410 -14 2418 -54 2424 -35 b 2376 24 2406 4 2386 13 b 2349 57 2363 33 2343 42 b 2365 65 2350 65 2356 69 b 2383 39 2374 61 2376 49 l 2394 46 b 2369 76 2390 60 2385 69 b 2336 69 2361 82 2346 81 b 2358 14 2321 60 2336 31 b 2400 -24 2369 7 2396 -10 b 2382 -37 2403 -35 2396 -43 b 2365 -11 2372 -35 2367 -19 l 2347 -14 b 2394 -54 2354 -37 2369 -54 z m 1481 656 l 1529 656 l 1525 669 l 1486 669 l 1454 790 l 1444 790 z m 1232 853 b 1236 992 1282 869 1249 947 l 1206 1107 l 1171 1107 l 1218 932 b 1185 875 1225 903 1226 864 b 1146 936 1160 886 1151 917 l 1100 1107 l 1068 1107 l 1110 949 b 1136 886 1117 924 1122 904 b 1232 853 1157 853 1204 838 z m 2440 -53 l 2457 -53 l 2422 76 l 2406 76 z m 2222 111 l 2238 111 l 2238 143 l 2263 143 l 2275 111 l 2294 111 l 2232 240 l 2211 240 z m 1542 656 l 1590 656 l 1586 669 l 1553 669 l 1540 718 l 1569 718 l 1567 731 l 1538 731 l 1524 782 l 1557 782 l 1554 790 l 1506 790 z m 2233 156 l 2226 215 l 2254 156 z m 2500 -37 b 2479 24 2482 -31 2483 10 l 2474 42 b 2493 61 2471 57 2471 69 b 2515 7 2507 57 2511 21 b 2500 -37 2519 -10 2532 -53 z m 2513 -54 b 2531 13 2551 -54 2538 -14 b 2482 76 2524 39 2518 76 b 2458 14 2440 82 2449 49 b 2513 -54 2465 -11 2474 -54 z m 1597 656 l 1614 656 l 1610 692 l 1638 692 l 1653 656 l 1672 656 l 1611 790 l 1589 790 z m 2307 111 l 2325 111 l 2301 199 l 2358 111 l 2372 111 l 2338 240 l 2319 240 l 2342 156 l 2283 240 l 2272 240 z m 1607 703 l 1603 769 l 1635 703 z m 1374 849 b 1410 926 1415 849 1429 886 b 1339 996 1399 961 1368 976 b 1283 1060 1315 1014 1281 1032 b 1313 1076 1283 1072 1293 1083 b 1350 1032 1331 1075 1344 1051 l 1376 1043 b 1339 1097 1372 1063 1360 1083 b 1274 1107 1318 1107 1290 1111 b 1271 1011 1238 1094 1243 1043 b 1333 963 1288 992 1315 976 b 1368 933 1350 956 1360 942 b 1381 883 1383 921 1393 892 b 1340 886 1372 872 1354 875 b 1317 932 1328 896 1322 917 l 1285 922 b 1374 849 1299 881 1331 849 z m 2568 -53 l 2578 -53 l 2553 38 l 2621 -53 l 2635 -53 l 2600 76 l 2585 76 l 2607 -10 l 2543 76 l 2533 76 z m 1715 656 b 1735 700 1740 656 1747 676 b 1696 731 1729 714 1710 722 b 1669 769 1685 740 1669 753 b 1704 753 1668 783 1685 789 l 1721 756 b 1692 789 1717 769 1706 783 b 1658 785 1678 794 1664 790 b 1681 726 1642 769 1661 740 b 1722 686 1693 715 1718 703 b 1704 669 1725 675 1718 669 b 1688 700 1694 675 1690 690 l 1672 692 b 1715 656 1678 675 1696 656 z m 2358 240 l 2393 111 b 2443 118 2404 111 2433 108 b 2440 174 2460 128 2444 156 b 2418 231 2436 192 2435 221 b 2358 240 2399 243 2372 240 z m 2408 121 l 2381 228 b 2417 206 2399 228 2410 228 l 2433 142 b 2408 121 2433 121 2422 121 z m 1761 656 l 1815 656 l 1811 669 l 1778 669 l 1765 718 l 1788 718 l 1785 731 l 1763 731 l 1749 782 l 1781 782 l 1778 790 l 1725 790 z m 1056 1146 l 1089 1146 l 1058 1261 b 1126 1275 1081 1261 1115 1258 b 1113 1372 1149 1297 1138 1340 b 1042 1400 1093 1397 1067 1400 l 988 1400 z m 1463 853 l 1560 853 l 1554 875 l 1490 875 l 1464 969 l 1515 969 l 1508 996 l 1457 996 l 1436 1076 l 1500 1076 l 1492 1107 l 1394 1107 z m 1051 1288 l 1028 1374 b 1068 1372 1040 1374 1051 1376 b 1101 1328 1092 1368 1097 1344 b 1090 1290 1107 1310 1108 1294 b 1051 1288 1076 1285 1064 1288 z m 1888 656 l 1906 656 l 1897 790 l 1882 790 l 1888 692 l 1842 790 l 1822 790 z m 1207 1146 l 1307 1146 l 1301 1167 l 1238 1167 l 1213 1261 l 1264 1261 l 1257 1288 l 1206 1288 l 1182 1374 l 1243 1374 l 1236 1400 l 1139 1400 z m 1946 656 l 1965 656 l 1929 790 l 1910 790 z m 2017 656 b 2033 700 2039 656 2047 676 b 1999 731 2029 714 2007 726 b 1969 769 1988 740 1968 753 b 2001 753 1974 783 1989 789 l 2019 756 b 1990 789 2014 769 2004 783 b 1958 785 1981 794 1968 790 b 1979 726 1940 769 1963 740 b 2019 686 1997 715 2018 703 b 2008 669 2022 675 2018 669 b 1986 700 1999 675 1989 690 l 1972 692 b 2017 656 1979 675 1993 656 z m 1731 849 b 1778 901 1764 849 1783 865 b 1764 963 1779 921 1769 940 b 1728 1071 1754 996 1751 1040 b 1653 1107 1713 1099 1683 1107 b 1603 1065 1626 1107 1604 1094 b 1628 956 1606 1032 1618 992 b 1646 903 1633 936 1638 921 b 1731 849 1660 865 1693 849 z m 1701 878 b 1674 932 1683 886 1678 913 l 1661 976 b 1640 1057 1654 1003 1642 1032 b 1660 1076 1640 1071 1646 1076 b 1692 1071 1668 1083 1679 1076 b 1713 1032 1707 1061 1710 1046 l 1738 940 b 1744 913 1740 932 1744 921 b 1732 878 1747 901 1743 886 b 1701 878 1725 875 1714 875 z m 2061 656 l 2083 656 l 2047 790 l 2025 790 z m 1267 1400 l 1335 1146 l 1374 1146 l 1343 1263 l 1368 1263 l 1433 1146 l 1465 1146 l 1400 1271 b 1369 1389 1440 1285 1413 1369 b 1267 1400 1339 1404 1301 1400 z m 2119 656 l 2133 656 l 2100 782 l 2121 782 l 2118 790 l 2057 790 l 2060 782 l 2086 782 z m 1336 1288 l 1313 1374 b 1350 1371 1322 1374 1336 1376 b 1379 1336 1367 1364 1376 1347 b 1372 1290 1386 1317 1385 1297 b 1336 1288 1360 1288 1346 1288 z m 1833 853 l 1860 853 l 1814 1025 l 1935 853 l 1960 853 l 1892 1107 l 1861 1107 l 1907 936 l 1789 1107 l 1765 1107 z m 1563 1143 b 1600 1221 1606 1143 1619 1179 b 1531 1288 1586 1249 1557 1267 b 1471 1353 1507 1301 1472 1325 b 1500 1376 1469 1369 1485 1376 b 1540 1328 1521 1371 1531 1344 l 1564 1338 b 1529 1389 1560 1356 1549 1379 b 1465 1397 1508 1401 1482 1404 b 1461 1299 1424 1389 1429 1338 b 1524 1253 1479 1282 1506 1267 b 1560 1225 1543 1242 1553 1232 b 1574 1175 1574 1210 1583 1186 b 1529 1179 1563 1167 1544 1167 b 1501 1225 1518 1189 1510 1206 l 1469 1215 b 1563 1143 1482 1175 1517 1143 z m 2000 853 l 2096 853 l 2090 875 l 2029 875 l 1967 1107 l 1932 1107 z m 1693 1171 b 1663 1222 1672 1181 1667 1206 l 1650 1267 b 1631 1347 1643 1293 1624 1328 b 1646 1374 1629 1364 1635 1372 b 1676 1364 1657 1376 1667 1376 b 1701 1322 1694 1353 1697 1338 l 1733 1206 b 1724 1171 1736 1193 1738 1179 b 1693 1171 1717 1167 1701 1167 z m 2269 853 l 2306 853 l 2297 886 l 2261 886 z m 2146 904 l 2160 853 l 2197 853 l 2181 914 b 2172 949 2178 924 2172 936 l 2178 1000 b 2183 1107 2182 1036 2183 1071 l 2149 1107 l 2143 985 l 2071 1107 l 2040 1107 l 2106 992 b 2136 942 2118 976 2126 963 b 2146 904 2140 932 2143 917 z m 1821 1146 l 1850 1146 l 1804 1317 l 1921 1146 l 1946 1146 l 1878 1400 l 1846 1400 l 1893 1228 l 1774 1400 l 1753 1400 z m 2267 906 l 2279 906 l 2238 1107 l 2201 1107 z m 1971 1146 l 2003 1146 l 2001 1206 l 2053 1206 l 2081 1146 l 2115 1146 l 1992 1400 l 1958 1400 z m 2000 1232 l 1990 1347 l 2042 1232 z m 2140 1146 l 2242 1146 l 2236 1167 l 2172 1167 l 2110 1400 l 2072 1400 z m 626 299 l 671 299 l 642 419 l 699 299 l 733 299 l 721 422 l 760 299 l 801 299 l 719 597 l 669 597 l 685 410 l 599 597 l 550 597 z m 840 299 l 888 299 l 849 444 l 940 299 l 976 299 l 896 597 l 849 597 l 888 454 l 799 597 l 760 597 z m 1011 299 l 1061 299 l 1046 353 l 996 353 z m 1165 294 b 1201 354 1196 303 1207 329 b 1140 454 1196 393 1175 426 l 1110 482 b 1071 517 1097 492 1082 499 b 1082 554 1064 528 1057 556 b 1117 497 1103 551 1107 517 l 1161 499 b 1097 594 1151 535 1136 578 b 1018 543 1050 614 1007 586 b 1049 474 1021 518 1032 492 b 1085 442 1057 461 1072 454 b 1150 368 1107 422 1143 399 b 1144 343 1154 354 1153 346 b 1124 353 1138 339 1129 346 b 1097 406 1107 368 1101 389 l 1051 403 b 1085 331 1058 376 1068 353 b 1165 294 1103 303 1138 290 z m 1343 307 l 1347 299 l 1386 299 l 1344 454 l 1268 454 l 1279 410 l 1308 410 b 1297 343 1314 393 1336 329 b 1264 406 1272 349 1268 390 l 1235 514 b 1251 554 1229 536 1228 558 b 1285 492 1267 549 1269 544 l 1333 492 b 1274 590 1324 524 1314 569 b 1204 597 1251 603 1225 603 b 1178 535 1181 586 1176 560 b 1200 449 1182 507 1192 478 b 1224 365 1208 419 1213 393 b 1271 304 1232 343 1247 314 b 1343 307 1294 290 1328 290 z m 1407 261 l 1449 261 l 1433 636 l 1386 636 z m 1619 293 b 1656 353 1650 300 1663 326 b 1593 453 1650 392 1626 425 l 1561 479 b 1526 514 1549 490 1536 499 b 1535 553 1519 526 1514 554 b 1568 496 1556 549 1563 514 l 1615 499 b 1550 593 1607 533 1589 578 b 1469 540 1506 611 1461 585 b 1504 471 1474 517 1483 490 b 1536 440 1510 461 1524 453 b 1603 365 1558 421 1594 399 b 1599 340 1606 353 1608 343 b 1578 351 1589 338 1581 343 b 1554 404 1563 368 1558 386 l 1507 401 b 1536 329 1514 375 1521 351 b 1619 293 1558 300 1593 289 z m 1697 296 l 1744 296 l 1719 390 b 1756 394 1739 390 1744 390 b 1783 496 1807 407 1790 471 b 1690 596 1767 560 1725 596 l 1618 596 z m 1735 435 l 1708 435 l 1676 553 l 1696 553 b 1735 435 1726 553 1750 443 z m 1863 296 l 1911 296 l 1876 426 l 1890 426 l 1951 296 l 2001 296 l 1932 435 b 1944 518 1953 453 1951 490 b 1871 596 1929 574 1893 596 l 1783 596 z m 1892 468 l 1865 468 l 1843 553 l 1858 553 b 1892 468 1889 553 1907 478 z m 2029 296 l 2081 296 l 2001 596 l 1950 596 z m 2106 296 l 2153 296 l 2114 443 l 2203 296 l 2242 296 l 2163 596 l 2115 596 l 2153 453 l 2063 596 l 2026 596 z m 2368 307 l 2374 296 l 2414 296 l 2372 453 l 2294 453 l 2307 407 l 2338 407 b 2325 340 2342 392 2363 329 b 2290 404 2301 349 2293 389 l 2271 475 b 2256 538 2265 493 2256 519 b 2276 553 2254 551 2267 556 b 2311 490 2286 550 2297 540 l 2360 490 b 2301 589 2351 522 2342 568 b 2235 596 2281 600 2251 601 b 2207 533 2207 585 2201 558 b 2226 447 2210 506 2219 475 b 2253 363 2235 418 2242 392 b 2299 303 2260 340 2276 314 b 2368 307 2322 290 2357 289 z m 2469 296 l 2522 296 l 2456 544 l 2496 544 l 2483 596 l 2349 596 l 2361 544 l 2403 544 z m 2633 299 b 2699 306 2656 293 2682 293 b 2703 404 2726 325 2711 369 l 2679 490 b 2622 589 2671 522 2661 568 b 2554 596 2600 600 2574 600 b 2528 532 2529 585 2522 558 b 2538 488 2531 517 2535 501 l 2561 404 b 2574 360 2564 390 2568 375 b 2633 299 2582 333 2603 308 z m 2654 340 b 2629 351 2644 339 2632 346 b 2607 410 2617 369 2611 394 l 2589 482 b 2578 543 2583 499 2576 522 b 2597 553 2578 546 2588 553 b 2618 533 2607 549 2614 544 b 2631 490 2625 519 2626 506 l 2654 404 b 2664 360 2657 389 2664 374 b 2654 340 2668 346 2661 346 z m 2778 296 l 2826 296 l 2814 447 l 2881 296 l 2931 296 l 2889 596 l 2840 596 l 2876 400 l 2793 596 l 2760 596 l 2778 400 l 2711 596 l 2664 596 z m 2981 296 l 3028 296 l 2989 443 l 3078 296 l 3117 296 l 3038 596 l 2990 596 l 3028 453 l 2939 596 l 2901 596 z "}," ":{"ha":486,"x_min":0,"x_max":0,"o":""},"A":{"ha":825,"x_min":0,"x_max":0,"o":"m 713 1308 b 579 1379 689 1339 639 1364 b 478 1374 539 1389 511 1388 b 407 1304 453 1363 444 1356 b 306 1135 363 1246 346 1219 b 171 760 250 1018 200 879 b 149 714 168 750 158 728 b 97 676 132 690 126 688 b 47 663 78 671 56 664 b -8 626 10 656 -4 646 b -10 594 -11 615 -12 601 b 56 497 -6 578 21 539 b 110 393 86 461 106 422 b 108 304 111 374 110 318 b 107 49 104 281 104 96 b 183 -4 108 25 135 7 b 307 10 235 -17 294 -10 b 310 58 310 15 311 36 b 310 236 308 115 308 193 b 319 363 313 299 317 358 b 325 404 319 365 324 383 b 438 501 331 468 369 501 b 525 479 475 501 511 492 b 544 451 531 475 540 463 b 558 290 558 429 558 424 l 561 175 l 558 94 b 561 58 557 79 558 64 b 735 42 582 28 692 15 b 760 200 761 57 760 58 l 758 290 b 758 349 758 306 757 332 b 761 404 758 367 760 392 b 765 689 761 567 763 572 b 761 1089 768 822 767 1001 b 713 1308 756 1196 736 1278 z m 560 967 b 540 681 563 710 561 692 b 468 681 526 672 514 672 b 394 718 431 689 403 701 b 411 817 389 729 394 764 b 424 863 417 833 424 854 l 451 935 b 551 1094 514 1090 535 1125 b 560 967 557 1088 558 1038 z "},"":{"ha":825,"x_min":0,"x_max":0,"o":"m 713 1308 b 579 1379 689 1339 639 1364 b 478 1374 539 1389 511 1388 b 407 1304 453 1363 444 1356 b 306 1135 363 1246 346 1219 b 171 760 250 1018 200 879 b 149 714 168 750 158 728 b 97 676 132 690 126 688 b 47 663 78 671 56 664 b -8 626 10 656 -4 646 b -10 594 -11 615 -12 601 b 56 497 -6 578 21 539 b 110 393 86 461 106 422 b 108 304 111 374 110 318 b 107 49 104 281 104 96 b 183 -4 108 25 135 7 b 307 10 235 -17 294 -10 b 310 58 310 15 311 36 b 310 236 308 115 308 193 b 319 363 313 299 317 358 b 325 404 319 365 324 383 b 438 501 331 468 369 501 b 525 479 475 501 511 492 b 544 451 531 475 540 463 b 558 290 558 429 558 424 l 561 175 l 558 94 b 561 58 557 79 558 64 b 735 42 582 28 692 15 b 760 200 761 57 760 58 l 758 290 b 758 349 758 306 757 332 b 761 404 758 367 760 392 b 765 689 761 567 763 572 b 761 1089 768 822 767 1001 b 713 1308 756 1196 736 1278 z m 560 967 b 540 681 563 710 561 692 b 468 681 526 672 514 672 b 394 718 431 689 403 701 b 411 817 389 729 394 764 b 424 863 417 833 424 854 l 451 935 b 551 1094 514 1090 535 1125 b 560 967 557 1088 558 1038 z m 646 1757 b 632 1760 639 1758 635 1760 b 618 1749 626 1760 625 1757 b 483 1492 583 1704 479 1507 l 524 1454 b 561 1425 547 1432 556 1425 b 564 1426 563 1425 564 1425 b 696 1528 583 1438 650 1489 b 783 1622 771 1592 788 1604 b 774 1643 781 1628 778 1635 b 646 1757 751 1685 683 1746 z "},"":{"ha":825,"x_min":0,"x_max":0,"o":"m 713 1308 b 579 1379 689 1339 639 1364 b 478 1374 539 1389 511 1388 b 407 1304 453 1363 444 1356 b 306 1135 363 1246 346 1219 b 171 760 250 1018 200 879 b 149 714 168 750 158 728 b 97 676 132 690 126 688 b 47 663 78 671 56 664 b -8 626 10 656 -4 646 b -10 594 -11 615 -12 601 b 56 497 -6 578 21 539 b 110 393 86 461 106 422 b 108 304 111 374 110 318 b 107 49 104 281 104 96 b 183 -4 108 25 135 7 b 307 10 235 -17 294 -10 b 310 58 310 15 311 36 b 310 236 308 115 308 193 b 319 363 313 299 317 358 b 325 404 319 365 324 383 b 438 501 331 468 369 501 b 525 479 475 501 511 492 b 544 451 531 475 540 463 b 558 290 558 429 558 424 l 561 175 l 558 94 b 561 58 557 79 558 64 b 735 42 582 28 692 15 b 760 200 761 57 760 58 l 758 290 b 758 349 758 306 757 332 b 761 404 758 367 760 392 b 765 689 761 567 763 572 b 761 1089 768 822 767 1001 b 713 1308 756 1196 736 1278 z m 560 967 b 540 681 563 710 561 692 b 468 681 526 672 514 672 b 394 718 431 689 403 701 b 411 817 389 729 394 764 b 424 863 417 833 424 854 l 451 935 b 551 1094 514 1090 535 1125 b 560 967 557 1088 558 1038 z m 600 1578 b 540 1699 561 1578 528 1626 b 393 1663 546 1736 394 1707 b 589 1425 386 1511 467 1425 b 892 1651 757 1425 833 1496 b 706 1722 907 1693 717 1763 b 600 1578 690 1665 675 1578 z "},"":{"ha":825,"x_min":0,"x_max":0,"o":"m 713 1308 b 579 1379 689 1339 639 1364 b 478 1374 539 1389 511 1388 b 407 1304 453 1363 444 1356 b 306 1135 363 1246 346 1219 b 171 760 250 1018 200 879 b 149 714 168 750 158 728 b 97 676 132 690 126 688 b 47 663 78 671 56 664 b -8 626 10 656 -4 646 b -10 594 -11 615 -12 601 b 56 497 -6 578 21 539 b 110 393 86 461 106 422 b 108 304 111 374 110 318 b 107 49 104 281 104 96 b 183 -4 108 25 135 7 b 307 10 235 -17 294 -10 b 310 58 310 15 311 36 b 310 236 308 115 308 193 b 319 363 313 299 317 358 b 325 404 319 365 324 383 b 438 501 331 468 369 501 b 525 479 475 501 511 492 b 544 451 531 475 540 463 b 558 290 558 429 558 424 l 561 175 l 558 94 b 561 58 557 79 558 64 b 735 42 582 28 692 15 b 760 200 761 57 760 58 l 758 290 b 758 349 758 306 757 332 b 761 404 758 367 760 392 b 765 689 761 567 763 572 b 761 1089 768 822 767 1001 b 713 1308 756 1196 736 1278 z m 560 967 b 540 681 563 710 561 692 b 468 681 526 672 514 672 b 394 718 431 689 403 701 b 411 817 389 729 394 764 b 424 863 417 833 424 854 l 451 935 b 551 1094 514 1090 535 1125 b 560 967 557 1088 558 1038 z m 600 1578 b 540 1699 561 1578 528 1626 b 393 1663 546 1736 394 1707 b 589 1425 386 1511 467 1425 b 892 1651 757 1425 833 1496 b 706 1722 907 1693 717 1763 b 600 1578 690 1665 675 1578 z m 689 2093 b 675 2096 682 2094 678 2096 b 661 2085 669 2096 668 2093 b 526 1828 626 2040 522 1843 l 567 1790 b 604 1761 590 1768 599 1761 b 607 1763 606 1761 607 1761 b 739 1864 626 1774 693 1825 b 826 1958 815 1928 831 1940 b 817 1979 825 1964 821 1971 b 689 2093 796 2021 726 2082 z "},"":{"ha":825,"x_min":0,"x_max":0,"o":"m 713 1308 b 579 1379 689 1339 639 1364 b 478 1374 539 1389 511 1388 b 407 1304 453 1363 444 1356 b 306 1135 363 1246 346 1219 b 171 760 250 1018 200 879 b 149 714 168 750 158 728 b 97 676 132 690 126 688 b 47 663 78 671 56 664 b -8 626 10 656 -4 646 b -10 594 -11 615 -12 601 b 56 497 -6 578 21 539 b 110 393 86 461 106 422 b 108 304 111 374 110 318 b 107 49 104 281 104 96 b 183 -4 108 25 135 7 b 307 10 235 -17 294 -10 b 310 58 310 15 311 36 b 310 236 308 115 308 193 b 319 363 313 299 317 358 b 325 404 319 365 324 383 b 438 501 331 468 369 501 b 525 479 475 501 511 492 b 544 451 531 475 540 463 b 558 290 558 429 558 424 l 561 175 l 558 94 b 561 58 557 79 558 64 b 735 42 582 28 692 15 b 760 200 761 57 760 58 l 758 290 b 758 349 758 306 757 332 b 761 404 758 367 760 392 b 765 689 761 567 763 572 b 761 1089 768 822 767 1001 b 713 1308 756 1196 736 1278 z m 560 967 b 540 681 563 710 561 692 b 468 681 526 672 514 672 b 394 718 431 689 403 701 b 411 817 389 729 394 764 b 424 863 417 833 424 854 l 451 935 b 551 1094 514 1090 535 1125 b 560 967 557 1088 558 1038 z m 288 -153 b 436 -269 311 -239 389 -269 b 521 -146 485 -269 540 -222 b 400 -29 507 -94 464 -46 b 288 -153 332 -4 264 -62 z m 600 1578 b 540 1699 561 1578 528 1626 b 393 1663 546 1736 394 1707 b 589 1425 386 1511 467 1425 b 892 1651 757 1425 833 1496 b 706 1722 907 1693 717 1763 b 600 1578 690 1665 675 1578 z "},"":{"ha":825,"x_min":0,"x_max":0,"o":"m 713 1308 b 579 1379 689 1339 639 1364 b 478 1374 539 1389 511 1388 b 407 1304 453 1363 444 1356 b 306 1135 363 1246 346 1219 b 171 760 250 1018 200 879 b 149 714 168 750 158 728 b 97 676 132 690 126 688 b 47 663 78 671 56 664 b -8 626 10 656 -4 646 b -10 594 -11 615 -12 601 b 56 497 -6 578 21 539 b 110 393 86 461 106 422 b 108 304 111 374 110 318 b 107 49 104 281 104 96 b 183 -4 108 25 135 7 b 307 10 235 -17 294 -10 b 310 58 310 15 311 36 b 310 236 308 115 308 193 b 319 363 313 299 317 358 b 325 404 319 365 324 383 b 438 501 331 468 369 501 b 525 479 475 501 511 492 b 544 451 531 475 540 463 b 558 290 558 429 558 424 l 561 175 l 558 94 b 561 58 557 79 558 64 b 735 42 582 28 692 15 b 760 200 761 57 760 58 l 758 290 b 758 349 758 306 757 332 b 761 404 758 367 760 392 b 765 689 761 567 763 572 b 761 1089 768 822 767 1001 b 713 1308 756 1196 736 1278 z m 560 967 b 540 681 563 710 561 692 b 468 681 526 672 514 672 b 394 718 431 689 403 701 b 411 817 389 729 394 764 b 424 863 417 833 424 854 l 451 935 b 551 1094 514 1090 535 1125 b 560 967 557 1088 558 1038 z m 600 1578 b 540 1699 561 1578 528 1626 b 393 1663 546 1736 394 1707 b 589 1425 386 1511 467 1425 b 892 1651 757 1425 833 1496 b 750 1733 903 1682 808 1725 b 768 1758 761 1744 769 1756 b 613 2026 768 1761 624 2010 b 556 2067 592 2058 578 2068 b 435 1978 510 2067 426 2022 b 507 1897 439 1961 463 1938 b 703 1710 514 1892 663 1746 b 600 1578 688 1654 669 1578 z "},"":{"ha":825,"x_min":0,"x_max":0,"o":"m 713 1308 b 579 1379 689 1339 639 1364 b 478 1374 539 1389 511 1388 b 407 1304 453 1363 444 1356 b 306 1135 363 1246 346 1219 b 171 760 250 1018 200 879 b 149 714 168 750 158 728 b 97 676 132 690 126 688 b 47 663 78 671 56 664 b -8 626 10 656 -4 646 b -10 594 -11 615 -12 601 b 56 497 -6 578 21 539 b 110 393 86 461 106 422 b 108 304 111 374 110 318 b 107 49 104 281 104 96 b 183 -4 108 25 135 7 b 307 10 235 -17 294 -10 b 310 58 310 15 311 36 b 310 236 308 115 308 193 b 319 363 313 299 317 358 b 325 404 319 365 324 383 b 438 501 331 468 369 501 b 525 479 475 501 511 492 b 544 451 531 475 540 463 b 558 290 558 429 558 424 l 561 175 l 558 94 b 561 58 557 79 558 64 b 735 42 582 28 692 15 b 760 200 761 57 760 58 l 758 290 b 758 349 758 306 757 332 b 761 404 758 367 760 392 b 765 689 761 567 763 572 b 761 1089 768 822 767 1001 b 713 1308 756 1196 736 1278 z m 560 967 b 540 681 563 710 561 692 b 468 681 526 672 514 672 b 394 718 431 689 403 701 b 411 817 389 729 394 764 b 424 863 417 833 424 854 l 451 935 b 551 1094 514 1090 535 1125 b 560 967 557 1088 558 1038 z m 600 1578 b 540 1699 561 1578 528 1626 b 393 1663 546 1736 394 1707 b 589 1425 386 1511 467 1425 b 892 1651 757 1425 833 1496 b 706 1722 907 1693 717 1763 b 600 1578 690 1665 675 1578 z m 579 1808 l 603 1783 b 863 1982 764 1813 872 1885 b 607 2161 860 2050 808 2156 b 561 2053 575 2163 532 2063 b 690 1944 674 2029 693 1953 b 579 1808 683 1890 649 1840 z "},"":{"ha":825,"x_min":0,"x_max":0,"o":"m 713 1308 b 579 1379 689 1339 639 1364 b 478 1374 539 1389 511 1388 b 407 1304 453 1363 444 1356 b 306 1135 363 1246 346 1219 b 171 760 250 1018 200 879 b 149 714 168 750 158 728 b 97 676 132 690 126 688 b 47 663 78 671 56 664 b -8 626 10 656 -4 646 b -10 594 -11 615 -12 601 b 56 497 -6 578 21 539 b 110 393 86 461 106 422 b 108 304 111 374 110 318 b 107 49 104 281 104 96 b 183 -4 108 25 135 7 b 307 10 235 -17 294 -10 b 310 58 310 15 311 36 b 310 236 308 115 308 193 b 319 363 313 299 317 358 b 325 404 319 365 324 383 b 438 501 331 468 369 501 b 525 479 475 501 511 492 b 544 451 531 475 540 463 b 558 290 558 429 558 424 l 561 175 l 558 94 b 561 58 557 79 558 64 b 735 42 582 28 692 15 b 760 200 761 57 760 58 l 758 290 b 758 349 758 306 757 332 b 761 404 758 367 760 392 b 765 689 761 567 763 572 b 761 1089 768 822 767 1001 b 713 1308 756 1196 736 1278 z m 560 967 b 540 681 563 710 561 692 b 468 681 526 672 514 672 b 394 718 431 689 403 701 b 411 817 389 729 394 764 b 424 863 417 833 424 854 l 451 935 b 551 1094 514 1090 535 1125 b 560 967 557 1088 558 1038 z m 600 1578 b 540 1699 561 1578 528 1626 b 393 1663 546 1736 394 1707 b 589 1425 386 1511 467 1425 b 892 1651 757 1425 833 1496 b 706 1722 907 1693 717 1763 b 600 1578 690 1665 675 1578 z m 839 1981 b 774 1914 814 1981 801 1914 b 700 1942 761 1914 738 1911 b 539 2032 653 1981 593 2032 b 490 2018 521 2032 506 2028 b 435 1840 446 1990 421 1893 b 460 1807 440 1824 447 1813 b 468 1806 463 1806 465 1806 b 507 1833 482 1806 497 1817 b 551 1878 513 1844 539 1878 b 750 1768 601 1878 710 1768 b 799 1775 771 1768 790 1769 b 851 1843 822 1789 838 1808 b 869 1946 869 1883 876 1921 b 839 1981 865 1964 850 1981 z "},"":{"ha":825,"x_min":0,"x_max":0,"o":"m 713 1308 b 579 1379 689 1339 639 1364 b 478 1374 539 1389 511 1388 b 407 1304 453 1363 444 1356 b 306 1135 363 1246 346 1219 b 171 760 250 1018 200 879 b 149 714 168 750 158 728 b 97 676 132 690 126 688 b 47 663 78 671 56 664 b -8 626 10 656 -4 646 b -10 594 -11 615 -12 601 b 56 497 -6 578 21 539 b 110 393 86 461 106 422 b 108 304 111 374 110 318 b 107 49 104 281 104 96 b 183 -4 108 25 135 7 b 307 10 235 -17 294 -10 b 310 58 310 15 311 36 b 310 236 308 115 308 193 b 319 363 313 299 317 358 b 325 404 319 365 324 383 b 438 501 331 468 369 501 b 525 479 475 501 511 492 b 544 451 531 475 540 463 b 558 290 558 429 558 424 l 561 175 l 558 94 b 561 58 557 79 558 64 b 735 42 582 28 692 15 b 760 200 761 57 760 58 l 758 290 b 758 349 758 306 757 332 b 761 404 758 367 760 392 b 765 689 761 567 763 572 b 761 1089 768 822 767 1001 b 713 1308 756 1196 736 1278 z m 560 967 b 540 681 563 710 561 692 b 468 681 526 672 514 672 b 394 718 431 689 403 701 b 411 817 389 729 394 764 b 424 863 417 833 424 854 l 451 935 b 551 1094 514 1090 535 1125 b 560 967 557 1088 558 1038 z m 708 1429 b 893 1664 747 1472 871 1632 l 911 1693 l 868 1729 b 814 1768 843 1751 818 1768 l 813 1768 b 660 1668 800 1768 739 1728 l 611 1632 l 543 1717 b 465 1813 507 1764 471 1806 b 456 1817 463 1814 457 1817 b 406 1797 447 1817 433 1810 l 358 1774 l 369 1749 b 518 1436 388 1701 507 1453 b 596 1413 529 1421 535 1419 b 672 1404 633 1406 668 1404 l 675 1404 b 708 1429 679 1404 694 1417 z "},"":{"ha":825,"x_min":0,"x_max":0,"o":"m 713 1308 b 579 1379 689 1339 639 1364 b 478 1374 539 1389 511 1388 b 407 1304 453 1363 444 1356 b 306 1135 363 1246 346 1219 b 171 760 250 1018 200 879 b 149 714 168 750 158 728 b 97 676 132 690 126 688 b 47 663 78 671 56 664 b -8 626 10 656 -4 646 b -10 594 -11 615 -12 601 b 56 497 -6 578 21 539 b 110 393 86 461 106 422 b 108 304 111 374 110 318 b 107 49 104 281 104 96 b 183 -4 108 25 135 7 b 307 10 235 -17 294 -10 b 310 58 310 15 311 36 b 310 236 308 115 308 193 b 319 363 313 299 317 358 b 325 404 319 365 324 383 b 438 501 331 468 369 501 b 525 479 475 501 511 492 b 544 451 531 475 540 463 b 558 290 558 429 558 424 l 561 175 l 558 94 b 561 58 557 79 558 64 b 735 42 582 28 692 15 b 760 200 761 57 760 58 l 758 290 b 758 349 758 306 757 332 b 761 404 758 367 760 392 b 765 689 761 567 763 572 b 761 1089 768 822 767 1001 b 713 1308 756 1196 736 1278 z m 560 967 b 540 681 563 710 561 692 b 468 681 526 672 514 672 b 394 718 431 689 403 701 b 411 817 389 729 394 764 b 424 863 417 833 424 854 l 451 935 b 551 1094 514 1090 535 1125 b 560 967 557 1088 558 1038 z m 638 1832 b 568 1842 624 1840 615 1842 l 514 1842 l 421 1717 b 326 1583 369 1649 328 1589 b 326 1576 326 1582 326 1579 b 413 1483 333 1554 372 1511 l 436 1467 l 461 1490 b 544 1553 478 1503 513 1532 l 600 1594 l 614 1583 b 663 1535 621 1579 642 1557 l 729 1465 b 763 1435 746 1449 761 1435 b 874 1485 767 1435 872 1482 b 764 1656 871 1493 824 1568 b 638 1832 674 1792 651 1824 z "},"":{"ha":825,"x_min":0,"x_max":0,"o":"m 713 1308 b 579 1379 689 1339 639 1364 b 478 1374 539 1389 511 1388 b 407 1304 453 1363 444 1356 b 306 1135 363 1246 346 1219 b 171 760 250 1018 200 879 b 149 714 168 750 158 728 b 97 676 132 690 126 688 b 47 663 78 671 56 664 b -8 626 10 656 -4 646 b -10 594 -11 615 -12 601 b 56 497 -6 578 21 539 b 110 393 86 461 106 422 b 108 304 111 374 110 318 b 107 49 104 281 104 96 b 183 -4 108 25 135 7 b 307 10 235 -17 294 -10 b 310 58 310 15 311 36 b 310 236 308 115 308 193 b 319 363 313 299 317 358 b 325 404 319 365 324 383 b 438 501 331 468 369 501 b 525 479 475 501 511 492 b 544 451 531 475 540 463 b 558 290 558 429 558 424 l 561 175 l 558 94 b 561 58 557 79 558 64 b 735 42 582 28 692 15 b 760 200 761 57 760 58 l 758 290 b 758 349 758 306 757 332 b 761 404 758 367 760 392 b 765 689 761 567 763 572 b 761 1089 768 822 767 1001 b 713 1308 756 1196 736 1278 z m 560 967 b 540 681 563 710 561 692 b 468 681 526 672 514 672 b 394 718 431 689 403 701 b 411 817 389 729 394 764 b 424 863 417 833 424 854 l 451 935 b 551 1094 514 1090 535 1125 b 560 967 557 1088 558 1038 z m 638 1832 b 568 1842 624 1840 615 1842 l 514 1842 l 421 1717 b 326 1583 369 1649 328 1589 b 326 1576 326 1582 326 1579 b 413 1483 333 1554 372 1511 l 436 1467 l 461 1490 b 544 1553 478 1503 513 1532 l 600 1594 l 614 1583 b 663 1535 621 1579 642 1557 l 729 1465 b 763 1435 746 1449 761 1435 b 874 1485 767 1435 872 1482 b 764 1656 871 1493 824 1568 b 638 1832 674 1792 651 1824 z m 676 2200 b 664 2203 671 2201 667 2203 b 650 2192 658 2203 656 2200 b 514 1935 614 2147 510 1950 l 554 1897 b 592 1868 579 1875 586 1868 b 596 1869 593 1868 594 1868 b 726 1971 615 1881 682 1932 b 814 2065 803 2035 819 2047 b 804 2086 813 2071 810 2078 b 676 2200 783 2128 714 2189 z "},"":{"ha":825,"x_min":0,"x_max":0,"o":"m 713 1308 b 579 1379 689 1339 639 1364 b 478 1374 539 1389 511 1388 b 407 1304 453 1363 444 1356 b 306 1135 363 1246 346 1219 b 171 760 250 1018 200 879 b 149 714 168 750 158 728 b 97 676 132 690 126 688 b 47 663 78 671 56 664 b -8 626 10 656 -4 646 b -10 594 -11 615 -12 601 b 56 497 -6 578 21 539 b 110 393 86 461 106 422 b 108 304 111 374 110 318 b 107 49 104 281 104 96 b 183 -4 108 25 135 7 b 307 10 235 -17 294 -10 b 310 58 310 15 311 36 b 310 236 308 115 308 193 b 319 363 313 299 317 358 b 325 404 319 365 324 383 b 438 501 331 468 369 501 b 525 479 475 501 511 492 b 544 451 531 475 540 463 b 558 290 558 429 558 424 l 561 175 l 558 94 b 561 58 557 79 558 64 b 735 42 582 28 692 15 b 760 200 761 57 760 58 l 758 290 b 758 349 758 306 757 332 b 761 404 758 367 760 392 b 765 689 761 567 763 572 b 761 1089 768 822 767 1001 b 713 1308 756 1196 736 1278 z m 560 967 b 540 681 563 710 561 692 b 468 681 526 672 514 672 b 394 718 431 689 403 701 b 411 817 389 729 394 764 b 424 863 417 833 424 854 l 451 935 b 551 1094 514 1090 535 1125 b 560 967 557 1088 558 1038 z m 288 -153 b 436 -269 311 -239 389 -269 b 521 -146 485 -269 540 -222 b 400 -29 507 -94 464 -46 b 288 -153 332 -4 264 -62 z m 638 1832 b 568 1842 624 1840 615 1842 l 514 1842 l 421 1717 b 326 1583 369 1649 328 1589 b 326 1576 326 1582 326 1579 b 413 1483 333 1554 372 1511 l 436 1467 l 461 1490 b 544 1553 478 1503 513 1532 l 600 1594 l 614 1583 b 663 1535 621 1579 642 1557 l 729 1465 b 763 1435 746 1449 761 1435 b 874 1485 767 1435 872 1482 b 764 1656 871 1493 824 1568 b 638 1832 674 1792 651 1824 z "},"":{"ha":825,"x_min":0,"x_max":0,"o":"m 713 1308 b 579 1379 689 1339 639 1364 b 478 1374 539 1389 511 1388 b 407 1304 453 1363 444 1356 b 306 1135 363 1246 346 1219 b 171 760 250 1018 200 879 b 149 714 168 750 158 728 b 97 676 132 690 126 688 b 47 663 78 671 56 664 b -8 626 10 656 -4 646 b -10 594 -11 615 -12 601 b 56 497 -6 578 21 539 b 110 393 86 461 106 422 b 108 304 111 374 110 318 b 107 49 104 281 104 96 b 183 -4 108 25 135 7 b 307 10 235 -17 294 -10 b 310 58 310 15 311 36 b 310 236 308 115 308 193 b 319 363 313 299 317 358 b 325 404 319 365 324 383 b 438 501 331 468 369 501 b 525 479 475 501 511 492 b 544 451 531 475 540 463 b 558 290 558 429 558 424 l 561 175 l 558 94 b 561 58 557 79 558 64 b 735 42 582 28 692 15 b 760 200 761 57 760 58 l 758 290 b 758 349 758 306 757 332 b 761 404 758 367 760 392 b 765 689 761 567 763 572 b 761 1089 768 822 767 1001 b 713 1308 756 1196 736 1278 z m 560 967 b 540 681 563 710 561 692 b 468 681 526 672 514 672 b 394 718 431 689 403 701 b 411 817 389 729 394 764 b 424 863 417 833 424 854 l 451 935 b 551 1094 514 1090 535 1125 b 560 967 557 1088 558 1038 z m 638 1832 b 568 1842 624 1840 615 1842 l 514 1842 l 421 1717 b 326 1583 369 1649 328 1589 b 326 1576 326 1582 326 1579 b 413 1483 333 1554 372 1511 l 436 1467 l 461 1490 b 544 1553 478 1503 513 1532 l 600 1594 l 614 1583 b 663 1535 621 1579 642 1557 l 729 1465 b 763 1435 746 1449 761 1435 b 874 1485 767 1435 872 1482 b 764 1656 871 1493 824 1568 b 638 1832 674 1792 651 1824 z m 757 1865 b 600 2133 756 1868 611 2117 b 543 2174 581 2165 565 2175 b 422 2085 497 2174 415 2129 b 496 2004 428 2068 450 2044 b 700 1810 501 1999 693 1810 b 757 1865 714 1814 758 1858 z "},"":{"ha":825,"x_min":0,"x_max":0,"o":"m 713 1308 b 579 1379 689 1339 639 1364 b 478 1374 539 1389 511 1388 b 407 1304 453 1363 444 1356 b 306 1135 363 1246 346 1219 b 171 760 250 1018 200 879 b 149 714 168 750 158 728 b 97 676 132 690 126 688 b 47 663 78 671 56 664 b -8 626 10 656 -4 646 b -10 594 -11 615 -12 601 b 56 497 -6 578 21 539 b 110 393 86 461 106 422 b 108 304 111 374 110 318 b 107 49 104 281 104 96 b 183 -4 108 25 135 7 b 307 10 235 -17 294 -10 b 310 58 310 15 311 36 b 310 236 308 115 308 193 b 319 363 313 299 317 358 b 325 404 319 365 324 383 b 438 501 331 468 369 501 b 525 479 475 501 511 492 b 544 451 531 475 540 463 b 558 290 558 429 558 424 l 561 175 l 558 94 b 561 58 557 79 558 64 b 735 42 582 28 692 15 b 760 200 761 57 760 58 l 758 290 b 758 349 758 306 757 332 b 761 404 758 367 760 392 b 765 689 761 567 763 572 b 761 1089 768 822 767 1001 b 713 1308 756 1196 736 1278 z m 560 967 b 540 681 563 710 561 692 b 468 681 526 672 514 672 b 394 718 431 689 403 701 b 411 817 389 729 394 764 b 424 863 417 833 424 854 l 451 935 b 551 1094 514 1090 535 1125 b 560 967 557 1088 558 1038 z m 638 1832 b 568 1842 624 1840 615 1842 l 514 1842 l 421 1717 b 326 1583 369 1649 328 1589 b 326 1576 326 1582 326 1579 b 413 1483 333 1554 372 1511 l 436 1467 l 461 1490 b 544 1553 478 1503 513 1532 l 600 1594 l 614 1583 b 663 1535 621 1579 642 1557 l 729 1465 b 763 1435 746 1449 761 1435 b 874 1485 767 1435 872 1482 b 764 1656 871 1493 824 1568 b 638 1832 674 1792 651 1824 z m 567 1915 l 592 1890 b 851 2089 751 1919 860 1992 b 594 2268 847 2157 796 2263 b 550 2160 564 2269 519 2169 b 679 2051 661 2136 681 2060 b 567 1915 671 1997 638 1947 z "},"":{"ha":825,"x_min":0,"x_max":0,"o":"m 713 1308 b 579 1379 689 1339 639 1364 b 478 1374 539 1389 511 1388 b 407 1304 453 1363 444 1356 b 306 1135 363 1246 346 1219 b 171 760 250 1018 200 879 b 149 714 168 750 158 728 b 97 676 132 690 126 688 b 47 663 78 671 56 664 b -8 626 10 656 -4 646 b -10 594 -11 615 -12 601 b 56 497 -6 578 21 539 b 110 393 86 461 106 422 b 108 304 111 374 110 318 b 107 49 104 281 104 96 b 183 -4 108 25 135 7 b 307 10 235 -17 294 -10 b 310 58 310 15 311 36 b 310 236 308 115 308 193 b 319 363 313 299 317 358 b 325 404 319 365 324 383 b 438 501 331 468 369 501 b 525 479 475 501 511 492 b 544 451 531 475 540 463 b 558 290 558 429 558 424 l 561 175 l 558 94 b 561 58 557 79 558 64 b 735 42 582 28 692 15 b 760 200 761 57 760 58 l 758 290 b 758 349 758 306 757 332 b 761 404 758 367 760 392 b 765 689 761 567 763 572 b 761 1089 768 822 767 1001 b 713 1308 756 1196 736 1278 z m 560 967 b 540 681 563 710 561 692 b 468 681 526 672 514 672 b 394 718 431 689 403 701 b 411 817 389 729 394 764 b 424 863 417 833 424 854 l 451 935 b 551 1094 514 1090 535 1125 b 560 967 557 1088 558 1038 z m 638 1832 b 568 1842 624 1840 615 1842 l 514 1842 l 421 1717 b 326 1583 369 1649 328 1589 b 326 1576 326 1582 326 1579 b 413 1483 333 1554 372 1511 l 436 1467 l 461 1490 b 544 1553 478 1503 513 1532 l 600 1594 l 614 1583 b 663 1535 621 1579 642 1557 l 729 1465 b 763 1435 746 1449 761 1435 b 874 1485 767 1435 872 1482 b 764 1656 871 1493 824 1568 b 638 1832 674 1792 651 1824 z m 828 2088 b 763 2021 803 2088 790 2021 b 688 2049 750 2021 725 2018 b 528 2139 642 2088 582 2139 b 479 2125 510 2139 494 2135 b 424 1947 433 2097 410 2000 b 447 1914 428 1931 435 1919 b 457 1913 451 1913 454 1913 b 494 1940 471 1913 485 1924 b 540 1985 500 1951 528 1985 b 739 1875 590 1985 699 1875 b 786 1882 760 1875 779 1876 b 839 1950 811 1896 825 1915 b 857 2053 858 1990 864 2028 b 828 2088 853 2071 839 2088 z "},"":{"ha":825,"x_min":0,"x_max":0,"o":"m 713 1308 b 579 1379 689 1339 639 1364 b 478 1374 539 1389 511 1388 b 407 1304 453 1363 444 1356 b 306 1135 363 1246 346 1219 b 171 760 250 1018 200 879 b 149 714 168 750 158 728 b 97 676 132 690 126 688 b 47 663 78 671 56 664 b -8 626 10 656 -4 646 b -10 594 -11 615 -12 601 b 56 497 -6 578 21 539 b 110 393 86 461 106 422 b 108 304 111 374 110 318 b 107 49 104 281 104 96 b 183 -4 108 25 135 7 b 307 10 235 -17 294 -10 b 310 58 310 15 311 36 b 310 236 308 115 308 193 b 319 363 313 299 317 358 b 325 404 319 365 324 383 b 438 501 331 468 369 501 b 525 479 475 501 511 492 b 544 451 531 475 540 463 b 558 290 558 429 558 424 l 561 175 l 558 94 b 561 58 557 79 558 64 b 735 42 582 28 692 15 b 760 200 761 57 760 58 l 758 290 b 758 349 758 306 757 332 b 761 404 758 367 760 392 b 765 689 761 567 763 572 b 761 1089 768 822 767 1001 b 713 1308 756 1196 736 1278 z m 560 967 b 540 681 563 710 561 692 b 468 681 526 672 514 672 b 394 718 431 689 403 701 b 411 817 389 729 394 764 b 424 863 417 833 424 854 l 451 935 b 551 1094 514 1090 535 1125 b 560 967 557 1088 558 1038 z m 569 1551 b 421 1668 547 1638 468 1668 b 338 1544 372 1668 317 1621 b 457 1428 350 1493 393 1444 b 569 1551 525 1403 594 1461 z m 715 1667 b 622 1542 653 1667 606 1604 b 783 1413 639 1479 721 1413 b 869 1536 846 1413 889 1464 b 715 1667 849 1615 778 1667 z "},"":{"ha":825,"x_min":0,"x_max":0,"o":"m 713 1308 b 579 1379 689 1339 639 1364 b 478 1374 539 1389 511 1388 b 407 1304 453 1363 444 1356 b 306 1135 363 1246 346 1219 b 171 760 250 1018 200 879 b 149 714 168 750 158 728 b 97 676 132 690 126 688 b 47 663 78 671 56 664 b -8 626 10 656 -4 646 b -10 594 -11 615 -12 601 b 56 497 -6 578 21 539 b 110 393 86 461 106 422 b 108 304 111 374 110 318 b 107 49 104 281 104 96 b 183 -4 108 25 135 7 b 307 10 235 -17 294 -10 b 310 58 310 15 311 36 b 310 236 308 115 308 193 b 319 363 313 299 317 358 b 325 404 319 365 324 383 b 438 501 331 468 369 501 b 525 479 475 501 511 492 b 544 451 531 475 540 463 b 558 290 558 429 558 424 l 561 175 l 558 94 b 561 58 557 79 558 64 b 735 42 582 28 692 15 b 760 200 761 57 760 58 l 758 290 b 758 349 758 306 757 332 b 761 404 758 367 760 392 b 765 689 761 567 763 572 b 761 1089 768 822 767 1001 b 713 1308 756 1196 736 1278 z m 560 967 b 540 681 563 710 561 692 b 468 681 526 672 514 672 b 394 718 431 689 403 701 b 411 817 389 729 394 764 b 424 863 417 833 424 854 l 451 935 b 551 1094 514 1090 535 1125 b 560 967 557 1088 558 1038 z m 569 1551 b 421 1668 547 1638 468 1668 b 338 1544 372 1668 317 1621 b 457 1428 350 1493 393 1444 b 569 1551 525 1403 594 1461 z m 715 1667 b 622 1542 653 1667 606 1604 b 783 1413 639 1479 721 1413 b 869 1536 846 1413 889 1464 b 715 1667 849 1615 778 1667 z m 469 1908 l 435 1906 b 432 1746 407 1885 379 1775 b 836 1740 621 1744 646 1742 b 846 1906 878 1750 882 1888 b 622 1913 843 1908 728 1913 b 469 1908 557 1913 497 1913 z "},"":{"ha":825,"x_min":0,"x_max":0,"o":"m 713 1308 b 579 1379 689 1339 639 1364 b 478 1374 539 1389 511 1388 b 407 1304 453 1363 444 1356 b 306 1135 363 1246 346 1219 b 171 760 250 1018 200 879 b 149 714 168 750 158 728 b 97 676 132 690 126 688 b 47 663 78 671 56 664 b -8 626 10 656 -4 646 b -10 594 -11 615 -12 601 b 56 497 -6 578 21 539 b 110 393 86 461 106 422 b 108 304 111 374 110 318 b 107 49 104 281 104 96 b 183 -4 108 25 135 7 b 307 10 235 -17 294 -10 b 310 58 310 15 311 36 b 310 236 308 115 308 193 b 319 363 313 299 317 358 b 325 404 319 365 324 383 b 438 501 331 468 369 501 b 525 479 475 501 511 492 b 544 451 531 475 540 463 b 558 290 558 429 558 424 l 561 175 l 558 94 b 561 58 557 79 558 64 b 735 42 582 28 692 15 b 760 200 761 57 760 58 l 758 290 b 758 349 758 306 757 332 b 761 404 758 367 760 392 b 765 689 761 567 763 572 b 761 1089 768 822 767 1001 b 713 1308 756 1196 736 1278 z m 560 967 b 540 681 563 710 561 692 b 468 681 526 672 514 672 b 394 718 431 689 403 701 b 411 817 389 729 394 764 b 424 863 417 833 424 854 l 451 935 b 551 1094 514 1090 535 1125 b 560 967 557 1088 558 1038 z m 288 -153 b 436 -269 311 -239 389 -269 b 521 -146 485 -269 540 -222 b 400 -29 507 -94 464 -46 b 288 -153 332 -4 264 -62 z "},"":{"ha":825,"x_min":0,"x_max":0,"o":"m 713 1308 b 579 1379 689 1339 639 1364 b 478 1374 539 1389 511 1388 b 407 1304 453 1363 444 1356 b 306 1135 363 1246 346 1219 b 171 760 250 1018 200 879 b 149 714 168 750 158 728 b 97 676 132 690 126 688 b 47 663 78 671 56 664 b -8 626 10 656 -4 646 b -10 594 -11 615 -12 601 b 56 497 -6 578 21 539 b 110 393 86 461 106 422 b 108 304 111 374 110 318 b 107 49 104 281 104 96 b 183 -4 108 25 135 7 b 307 10 235 -17 294 -10 b 310 58 310 15 311 36 b 310 236 308 115 308 193 b 319 363 313 299 317 358 b 325 404 319 365 324 383 b 438 501 331 468 369 501 b 525 479 475 501 511 492 b 544 451 531 475 540 463 b 558 290 558 429 558 424 l 561 175 l 558 94 b 561 58 557 79 558 64 b 735 42 582 28 692 15 b 760 200 761 57 760 58 l 758 290 b 758 349 758 306 757 332 b 761 404 758 367 760 392 b 765 689 761 567 763 572 b 761 1089 768 822 767 1001 b 713 1308 756 1196 736 1278 z m 560 967 b 540 681 563 710 561 692 b 468 681 526 672 514 672 b 394 718 431 689 403 701 b 411 817 389 729 394 764 b 424 863 417 833 424 854 l 451 935 b 551 1094 514 1090 535 1125 b 560 967 557 1088 558 1038 z m 725 1422 b 568 1690 725 1425 581 1674 b 513 1731 549 1722 533 1732 b 392 1642 467 1731 383 1686 b 464 1561 396 1625 419 1601 b 669 1367 469 1556 663 1367 b 725 1422 682 1371 726 1415 z "},"":{"ha":825,"x_min":0,"x_max":0,"o":"m 713 1308 b 579 1379 689 1339 639 1364 b 478 1374 539 1389 511 1388 b 407 1304 453 1363 444 1356 b 306 1135 363 1246 346 1219 b 171 760 250 1018 200 879 b 149 714 168 750 158 728 b 97 676 132 690 126 688 b 47 663 78 671 56 664 b -8 626 10 656 -4 646 b -10 594 -11 615 -12 601 b 56 497 -6 578 21 539 b 110 393 86 461 106 422 b 108 304 111 374 110 318 b 107 49 104 281 104 96 b 183 -4 108 25 135 7 b 307 10 235 -17 294 -10 b 310 58 310 15 311 36 b 310 236 308 115 308 193 b 319 363 313 299 317 358 b 325 404 319 365 324 383 b 438 501 331 468 369 501 b 525 479 475 501 511 492 b 544 451 531 475 540 463 b 558 290 558 429 558 424 l 561 175 l 558 94 b 561 58 557 79 558 64 b 735 42 582 28 692 15 b 760 200 761 57 760 58 l 758 290 b 758 349 758 306 757 332 b 761 404 758 367 760 392 b 765 689 761 567 763 572 b 761 1089 768 822 767 1001 b 713 1308 756 1196 736 1278 z m 560 967 b 540 681 563 710 561 692 b 468 681 526 672 514 672 b 394 718 431 689 403 701 b 411 817 389 729 394 764 b 424 863 417 833 424 854 l 451 935 b 551 1094 514 1090 535 1125 b 560 967 557 1088 558 1038 z m 535 1472 l 560 1447 b 819 1646 721 1476 829 1549 b 563 1825 817 1714 764 1819 b 518 1717 532 1826 488 1726 b 647 1608 631 1693 650 1617 b 535 1472 640 1554 606 1504 z "},"":{"ha":810,"x_min":0,"x_max":0,"o":"m 217 201 b 653 43 399 89 525 43 l 675 43 b 750 78 732 46 747 53 b 746 117 753 86 750 100 b 715 192 739 143 726 174 l 701 213 l 711 283 b 753 851 733 453 751 711 b 710 1314 756 1014 733 1225 b 701 1342 707 1325 704 1335 b 625 1386 693 1363 667 1378 b 581 1400 608 1390 589 1397 b 556 1408 572 1404 561 1408 b 411 1326 543 1408 431 1344 b 383 1308 408 1324 396 1317 b 356 1286 371 1300 360 1290 b 336 1272 354 1283 344 1276 b 300 1243 329 1268 311 1256 b 268 1218 286 1233 272 1221 l 204 1163 l 154 1110 b 49 953 122 1075 64 990 b 25 908 44 947 35 928 b -36 699 -1 854 -26 767 b -18 490 -44 633 -36 558 b 43 353 -4 436 18 388 b 217 201 88 297 151 242 z m 111 588 b 149 749 113 619 139 732 b 157 765 151 753 157 761 b 231 879 161 778 199 836 b 335 993 257 915 293 956 l 365 1022 b 388 1040 375 1033 386 1040 b 403 1051 390 1040 396 1046 b 440 1081 408 1057 426 1069 b 486 1099 458 1093 472 1099 b 515 1092 496 1099 504 1097 b 539 1061 531 1085 533 1083 b 508 389 557 993 542 642 b 485 300 500 328 499 318 b 431 275 469 282 456 275 b 407 276 424 275 415 275 b 288 318 371 279 342 290 b 135 468 210 358 168 401 b 119 513 128 483 124 497 b 111 588 113 536 110 561 z "},"":{"ha":825,"x_min":0,"x_max":0,"o":"m 713 1308 b 579 1379 689 1339 639 1364 b 478 1374 539 1389 511 1388 b 407 1304 453 1363 444 1356 b 306 1135 363 1246 346 1219 b 171 760 250 1018 200 879 b 149 714 168 750 158 728 b 97 676 132 690 126 688 b 47 663 78 671 56 664 b -8 626 10 656 -4 646 b -10 594 -11 615 -12 601 b 56 497 -6 578 21 539 b 110 393 86 461 106 422 b 108 304 111 374 110 318 b 107 49 104 281 104 96 b 183 -4 108 25 135 7 b 307 10 235 -17 294 -10 b 310 58 310 15 311 36 b 310 236 308 115 308 193 b 319 363 313 299 317 358 b 325 404 319 365 324 383 b 438 501 331 468 369 501 b 525 479 475 501 511 492 b 544 451 531 475 540 463 b 558 290 558 429 558 424 l 561 175 l 558 94 b 561 58 557 79 558 64 b 735 42 582 28 692 15 b 760 200 761 57 760 58 l 758 290 b 758 349 758 306 757 332 b 761 404 758 367 760 392 b 765 689 761 567 763 572 b 761 1089 768 822 767 1001 b 713 1308 756 1196 736 1278 z m 560 967 b 540 681 563 710 561 692 b 468 681 526 672 514 672 b 394 718 431 689 403 701 b 411 817 389 729 394 764 b 424 863 417 833 424 854 l 451 935 b 551 1094 514 1090 535 1125 b 560 967 557 1088 558 1038 z m 446 1642 l 410 1639 b 407 1479 382 1618 356 1508 b 811 1474 596 1478 622 1475 b 821 1639 853 1483 858 1621 b 597 1646 819 1642 703 1646 b 446 1642 532 1646 472 1646 z "},"":{"ha":825,"x_min":0,"x_max":0,"o":"m 713 1308 b 579 1379 689 1339 639 1364 b 478 1374 539 1389 511 1388 b 407 1304 453 1363 444 1356 b 306 1135 363 1246 346 1219 b 171 760 250 1018 200 879 b 149 714 168 750 158 728 b 97 676 132 690 126 688 b 47 663 78 671 56 664 b -8 626 10 656 -4 646 b -10 594 -11 615 -12 601 b 56 497 -6 578 21 539 b 110 393 86 461 106 422 b 108 304 111 374 110 318 b 107 49 104 281 104 96 b 183 -4 108 25 135 7 b 307 10 235 -17 294 -10 b 310 58 310 15 311 36 b 310 236 308 115 308 193 b 319 363 313 299 317 358 b 325 404 319 365 324 383 b 438 501 331 468 369 501 b 525 479 475 501 511 492 b 544 451 531 475 540 463 b 558 290 558 429 558 424 l 561 175 l 558 94 b 561 58 557 79 558 64 b 574 47 564 54 568 51 b 432 -118 482 10 426 -47 b 689 -297 435 -186 488 -292 b 733 -189 719 -299 764 -199 b 604 -81 621 -165 603 -89 b 668 28 610 -40 631 -3 b 735 42 694 28 719 32 b 760 200 761 57 760 58 l 758 290 b 758 349 758 306 757 332 b 761 404 758 367 760 392 b 765 689 761 567 763 572 b 761 1089 768 822 767 1001 b 713 1308 756 1196 736 1278 z m 560 967 b 540 681 563 710 561 692 b 468 681 526 672 514 672 b 394 718 431 689 403 701 b 411 817 389 729 394 764 b 424 863 417 833 424 854 l 451 935 b 551 1094 514 1090 535 1125 b 560 967 557 1088 558 1038 z "},"":{"ha":825,"x_min":0,"x_max":0,"o":"m 713 1308 b 579 1379 689 1339 639 1364 b 478 1374 539 1389 511 1388 b 407 1304 453 1363 444 1356 b 306 1135 363 1246 346 1219 b 171 760 250 1018 200 879 b 149 714 168 750 158 728 b 97 676 132 690 126 688 b 47 663 78 671 56 664 b -8 626 10 656 -4 646 b -10 594 -11 615 -12 601 b 56 497 -6 578 21 539 b 110 393 86 461 106 422 b 108 304 111 374 110 318 b 107 49 104 281 104 96 b 183 -4 108 25 135 7 b 307 10 235 -17 294 -10 b 310 58 310 15 311 36 b 310 236 308 115 308 193 b 319 363 313 299 317 358 b 325 404 319 365 324 383 b 438 501 331 468 369 501 b 525 479 475 501 511 492 b 544 451 531 475 540 463 b 558 290 558 429 558 424 l 561 175 l 558 94 b 561 58 557 79 558 64 b 735 42 582 28 692 15 b 760 200 761 57 760 58 l 758 290 b 758 349 758 306 757 332 b 761 404 758 367 760 392 b 765 689 761 567 763 572 b 761 1089 768 822 767 1001 b 713 1308 756 1196 736 1278 z m 560 967 b 540 681 563 710 561 692 b 468 681 526 672 514 672 b 394 718 431 689 403 701 b 411 817 389 729 394 764 b 424 863 417 833 424 854 l 451 935 b 551 1094 514 1090 535 1125 b 560 967 557 1088 558 1038 z m 563 1803 b 414 1604 446 1800 382 1722 b 663 1399 449 1474 574 1399 b 811 1604 769 1399 842 1490 b 563 1803 783 1708 663 1804 z m 613 1671 b 647 1543 683 1671 710 1543 b 561 1592 613 1543 568 1568 b 613 1671 550 1638 575 1671 z "},"":{"ha":825,"x_min":0,"x_max":0,"o":"m 713 1308 b 579 1379 689 1339 639 1364 b 478 1374 539 1389 511 1388 b 407 1304 453 1363 444 1356 b 306 1135 363 1246 346 1219 b 171 760 250 1018 200 879 b 149 714 168 750 158 728 b 97 676 132 690 126 688 b 47 663 78 671 56 664 b -8 626 10 656 -4 646 b -10 594 -11 615 -12 601 b 56 497 -6 578 21 539 b 110 393 86 461 106 422 b 108 304 111 374 110 318 b 107 49 104 281 104 96 b 183 -4 108 25 135 7 b 307 10 235 -17 294 -10 b 310 58 310 15 311 36 b 310 236 308 115 308 193 b 319 363 313 299 317 358 b 325 404 319 365 324 383 b 438 501 331 468 369 501 b 525 479 475 501 511 492 b 544 451 531 475 540 463 b 558 290 558 429 558 424 l 561 175 l 558 94 b 561 58 557 79 558 64 b 735 42 582 28 692 15 b 760 200 761 57 760 58 l 758 290 b 758 349 758 306 757 332 b 761 404 758 367 760 392 b 765 689 761 567 763 572 b 761 1089 768 822 767 1001 b 713 1308 756 1196 736 1278 z m 560 967 b 540 681 563 710 561 692 b 468 681 526 672 514 672 b 394 718 431 689 403 701 b 411 817 389 729 394 764 b 424 863 417 833 424 854 l 451 935 b 551 1094 514 1090 535 1125 b 560 967 557 1088 558 1038 z m 796 1644 b 731 1578 771 1644 758 1578 b 657 1606 718 1578 694 1575 b 496 1696 610 1644 550 1696 b 447 1682 478 1696 463 1692 b 392 1504 401 1654 378 1557 b 417 1471 397 1488 404 1476 b 425 1469 419 1469 422 1469 b 464 1497 439 1469 454 1481 b 508 1542 469 1508 496 1542 b 707 1432 558 1542 667 1432 b 756 1439 728 1432 747 1433 b 808 1507 779 1453 793 1472 b 826 1610 826 1547 833 1585 b 796 1644 821 1628 807 1644 z "},"":{"ha":1438,"x_min":0,"x_max":0,"o":"m 1339 1275 b 1253 1353 1310 1321 1289 1340 b 1097 1368 1221 1363 1165 1368 b 883 1356 1035 1368 960 1364 b 689 1326 811 1346 743 1336 b 576 1378 663 1347 622 1365 b 529 1383 558 1382 543 1383 b 474 1371 510 1383 492 1379 b 401 1303 447 1360 440 1353 b 301 1132 358 1243 342 1217 b 167 758 246 1017 196 876 b 143 713 163 747 153 726 b 92 675 129 689 121 685 b 42 660 74 668 51 661 b -14 624 4 654 -8 644 b -15 592 -17 614 -17 599 b 51 496 -10 575 15 536 b 101 407 75 467 94 433 b 104 392 103 401 104 396 b 103 301 107 372 106 315 b 101 47 100 279 99 94 l 103 42 b 181 -7 110 19 135 3 b 229 -12 197 -11 214 -12 b 301 8 264 -12 293 -4 b 306 57 304 13 306 35 b 306 233 304 114 306 190 b 315 361 308 296 313 357 b 319 401 317 363 318 382 b 433 499 325 467 364 499 b 519 478 469 499 506 490 b 540 450 526 474 536 461 b 550 429 544 443 547 438 b 554 289 554 413 554 382 l 556 172 l 554 92 b 556 60 553 79 554 65 l 557 57 b 660 25 569 38 617 25 b 731 40 688 25 714 31 b 756 129 751 51 756 54 b 767 121 760 126 764 124 b 868 61 806 89 821 81 b 1013 17 929 35 958 26 b 1082 11 1032 13 1056 11 b 1281 39 1153 11 1236 22 b 1318 88 1310 50 1322 68 b 1258 149 1313 106 1285 133 l 1232 163 l 1128 163 b 892 222 989 164 954 172 b 818 344 857 249 842 271 b 806 388 813 363 808 376 b 796 442 800 407 799 419 b 821 536 794 489 801 515 b 932 569 838 556 864 563 l 978 571 b 1064 565 1000 571 1025 569 b 1154 557 1113 560 1138 557 b 1183 569 1174 557 1178 561 b 1185 615 1190 579 1190 596 b 1068 771 1169 672 1113 753 b 979 776 1057 775 1031 776 b 828 838 867 778 846 786 l 826 842 b 838 992 818 871 821 910 b 904 1117 853 1069 865 1090 b 1079 1158 946 1146 978 1151 l 1153 1160 b 1231 1146 1194 1160 1214 1156 b 1307 1118 1261 1126 1286 1118 b 1333 1124 1317 1118 1326 1119 b 1365 1183 1354 1133 1364 1151 b 1364 1222 1368 1197 1367 1210 b 1339 1275 1360 1236 1351 1253 z m 463 679 b 390 715 426 686 399 700 l 389 717 b 406 814 386 731 390 764 b 419 860 411 832 418 851 l 449 932 b 536 1103 497 1054 521 1103 b 547 1093 540 1103 543 1100 l 547 1089 b 556 964 551 1075 554 1029 b 535 679 557 708 556 690 b 511 674 528 675 522 674 b 463 679 501 674 486 675 z "},"":{"ha":1438,"x_min":0,"x_max":0,"o":"m 1339 1275 b 1253 1353 1310 1321 1289 1340 b 1097 1368 1221 1363 1165 1368 b 883 1356 1035 1368 960 1364 b 689 1326 811 1346 743 1336 b 576 1378 663 1347 622 1365 b 529 1383 558 1382 543 1383 b 474 1371 510 1383 492 1379 b 401 1303 447 1360 440 1353 b 301 1132 358 1243 342 1217 b 167 758 246 1017 196 876 b 143 713 163 747 153 726 b 92 675 129 689 121 685 b 42 660 74 668 51 661 b -14 624 4 654 -8 644 b -15 592 -17 614 -17 599 b 51 496 -10 575 15 536 b 101 407 75 467 94 433 b 104 392 103 401 104 396 b 103 301 107 372 106 315 b 101 47 100 279 99 94 l 103 42 b 181 -7 110 19 135 3 b 229 -12 197 -11 214 -12 b 301 8 264 -12 293 -4 b 306 57 304 13 306 35 b 306 233 304 114 306 190 b 315 361 308 296 313 357 b 319 401 317 363 318 382 b 433 499 325 467 364 499 b 519 478 469 499 506 490 b 540 450 526 474 536 461 b 550 429 544 443 547 438 b 554 289 554 413 554 382 l 556 172 l 554 92 b 556 60 553 79 554 65 l 557 57 b 660 25 569 38 617 25 b 731 40 688 25 714 31 b 756 129 751 51 756 54 b 767 121 760 126 764 124 b 868 61 806 89 821 81 b 1013 17 929 35 958 26 b 1082 11 1032 13 1056 11 b 1281 39 1153 11 1236 22 b 1318 88 1310 50 1322 68 b 1258 149 1313 106 1285 133 l 1232 163 l 1128 163 b 892 222 989 164 954 172 b 818 344 857 249 842 271 b 806 388 813 363 808 376 b 796 442 800 407 799 419 b 821 536 794 489 801 515 b 932 569 838 556 864 563 l 978 571 b 1064 565 1000 571 1025 569 b 1154 557 1113 560 1138 557 b 1183 569 1174 557 1178 561 b 1185 615 1190 579 1190 596 b 1068 771 1169 672 1113 753 b 979 776 1057 775 1031 776 b 828 838 867 778 846 786 l 826 842 b 838 992 818 871 821 910 b 904 1117 853 1069 865 1090 b 1079 1158 946 1146 978 1151 l 1153 1160 b 1231 1146 1194 1160 1214 1156 b 1307 1118 1261 1126 1286 1118 b 1333 1124 1317 1118 1326 1119 b 1365 1183 1354 1133 1364 1151 b 1364 1222 1368 1197 1367 1210 b 1339 1275 1360 1236 1351 1253 z m 463 679 b 390 715 426 686 399 700 l 389 717 b 406 814 386 731 390 764 b 419 860 411 832 418 851 l 449 932 b 536 1103 497 1054 521 1103 b 547 1093 540 1103 543 1100 l 547 1089 b 556 964 551 1075 554 1029 b 535 679 557 708 556 690 b 511 674 528 675 522 674 b 463 679 501 674 486 675 z m 621 1656 l 586 1653 b 582 1493 558 1632 531 1522 b 988 1488 772 1492 797 1489 b 997 1653 1029 1497 1033 1635 b 772 1660 994 1656 878 1660 b 621 1656 707 1660 647 1660 z "},"B":{"ha":807,"x_min":0,"x_max":0,"o":"m 571 1306 b 553 1313 569 1306 560 1308 b 315 1364 514 1336 383 1364 b 260 1375 293 1364 278 1368 b 200 1386 244 1381 222 1385 b 149 1371 167 1388 167 1388 b 101 1344 138 1360 124 1351 b 25 1299 58 1332 28 1315 b 94 1135 18 1265 53 1182 b 114 1022 118 1107 121 1085 l 101 899 b 85 811 94 822 93 811 b 72 801 82 811 78 806 b 76 751 67 793 67 788 b 83 614 86 714 86 701 b 81 261 79 471 78 315 l 86 174 b 100 63 89 129 93 90 b 125 10 108 26 111 21 b 165 -10 132 3 150 -4 b 213 -33 185 -14 199 -21 b 253 -54 226 -46 239 -53 b 496 -26 293 -62 418 -49 b 757 89 593 1 696 47 b 910 376 847 154 906 263 b 872 532 911 414 890 499 b 679 707 832 604 764 664 b 633 763 649 722 635 739 b 682 838 632 786 646 808 b 772 960 717 867 767 931 b 772 1083 783 1000 781 1047 b 675 1236 754 1150 725 1194 b 571 1306 643 1263 579 1306 z m 683 324 b 471 193 631 268 568 231 b 307 225 360 153 325 160 b 308 569 289 294 289 508 b 346 626 318 596 332 619 b 522 611 364 639 431 632 b 683 324 703 569 782 429 z m 501 979 l 414 933 b 333 917 361 910 347 906 b 324 992 319 929 319 936 b 381 1153 335 1081 354 1138 b 536 1144 407 1169 493 1164 b 556 1138 546 1140 553 1138 b 579 1125 557 1138 568 1132 b 501 979 631 1090 603 1036 z "},"":{"ha":807,"x_min":0,"x_max":0,"o":"m 571 1306 b 553 1313 569 1306 560 1308 b 315 1364 514 1336 383 1364 b 260 1375 293 1364 278 1368 b 200 1386 244 1381 222 1385 b 149 1371 167 1388 167 1388 b 101 1344 138 1360 124 1351 b 25 1299 58 1332 28 1315 b 94 1135 18 1265 53 1182 b 114 1022 118 1107 121 1085 l 101 899 b 85 811 94 822 93 811 b 72 801 82 811 78 806 b 76 751 67 793 67 788 b 83 614 86 714 86 701 b 81 261 79 471 78 315 l 86 174 b 100 63 89 129 93 90 b 125 10 108 26 111 21 b 165 -10 132 3 150 -4 b 213 -33 185 -14 199 -21 b 253 -54 226 -46 239 -53 l 254 -54 b 239 -153 238 -78 228 -112 b 388 -269 263 -239 340 -269 b 472 -146 436 -269 492 -222 b 396 -47 461 -107 435 -71 b 496 -26 432 -42 467 -35 b 757 89 593 1 696 47 b 910 376 847 154 906 263 b 872 532 911 414 890 499 b 679 707 832 604 764 664 b 633 763 649 722 635 739 b 682 838 632 786 646 808 b 772 960 717 867 767 931 b 772 1083 783 1000 781 1047 b 675 1236 754 1150 725 1194 b 571 1306 643 1263 579 1306 z m 683 324 b 471 193 631 268 568 231 b 307 225 360 153 325 160 b 308 569 289 294 289 508 b 346 626 318 596 332 619 b 522 611 364 639 431 632 b 683 324 703 569 782 429 z m 501 979 l 414 933 b 333 917 361 910 347 906 b 324 992 319 929 319 936 b 381 1153 335 1081 354 1138 b 536 1144 407 1169 493 1164 b 556 1138 546 1140 553 1138 b 579 1125 557 1138 568 1132 b 501 979 631 1090 603 1036 z "},"":{"ha":807,"x_min":0,"x_max":0,"o":"m 571 1306 b 553 1313 569 1306 560 1308 b 315 1364 514 1336 383 1364 b 260 1375 293 1364 278 1368 b 200 1386 244 1381 222 1385 b 149 1371 167 1388 167 1388 b 101 1344 138 1360 124 1351 b 25 1299 58 1332 28 1315 b 94 1135 18 1265 53 1182 b 114 1022 118 1107 121 1085 l 101 899 b 85 811 94 822 93 811 b 72 801 82 811 78 806 b 76 751 67 793 67 788 b 83 614 86 714 86 701 b 81 261 79 471 78 315 l 86 174 b 100 63 89 129 93 90 b 125 10 108 26 111 21 b 165 -10 132 3 150 -4 b 213 -33 185 -14 199 -21 b 253 -54 226 -46 239 -53 b 496 -26 293 -62 418 -49 b 757 89 593 1 696 47 b 910 376 847 154 906 263 b 872 532 911 414 890 499 b 719 685 838 592 786 644 b 713 739 719 703 717 722 b 681 794 706 764 694 785 b 643 799 678 797 668 799 b 682 838 651 811 664 824 b 772 960 717 867 767 931 b 772 1083 783 1000 781 1047 b 675 1236 754 1150 725 1194 b 571 1306 643 1263 579 1306 z m 683 324 b 471 193 631 268 568 231 b 307 225 360 153 325 160 b 308 569 289 294 289 508 b 326 607 313 583 319 597 l 538 607 b 683 324 707 561 778 426 z m 501 979 l 414 933 b 333 917 361 910 347 906 b 324 992 319 929 319 936 b 381 1153 335 1081 354 1138 b 536 1144 407 1169 493 1164 b 556 1138 546 1140 553 1138 b 579 1125 557 1138 568 1132 b 501 979 631 1090 603 1036 z "},"C":{"ha":689,"x_min":0,"x_max":0,"o":"m 274 1367 b 88 1129 206 1340 133 1251 b 38 303 -14 867 -29 589 b 132 86 65 193 85 150 b 322 -43 186 14 246 -26 b 497 -36 381 -57 454 -54 b 585 38 533 -22 574 13 l 604 75 b 618 103 613 88 618 100 l 626 136 b 640 174 635 154 640 171 b 650 208 640 178 644 193 b 672 301 656 222 665 265 b 700 421 681 338 694 390 b 707 485 708 458 711 478 b 572 526 694 510 626 531 b 510 501 539 525 513 514 l 483 385 b 414 149 444 214 435 179 b 343 119 390 117 379 111 b 247 261 296 132 272 167 b 222 804 200 439 192 618 b 293 1058 236 886 267 996 l 310 1096 b 368 1178 321 1126 351 1168 b 426 1168 393 1194 408 1192 b 472 947 450 1139 463 1068 b 488 868 476 881 476 881 b 635 824 515 842 582 821 b 681 861 671 826 685 836 l 676 925 b 650 1094 674 997 667 1033 b 525 1303 626 1190 589 1250 b 274 1367 467 1351 329 1386 z "},"":{"ha":689,"x_min":0,"x_max":0,"o":"m 274 1367 b 88 1129 206 1340 133 1251 b 38 303 -14 867 -29 589 b 132 86 65 193 85 150 b 322 -43 186 14 246 -26 b 497 -36 381 -57 454 -54 b 585 38 533 -22 574 13 l 604 75 b 618 103 613 88 618 100 l 626 136 b 640 174 635 154 640 171 b 650 208 640 178 644 193 b 672 301 656 222 665 265 b 700 421 681 338 694 390 b 707 485 708 458 711 478 b 572 526 694 510 626 531 b 510 501 539 525 513 514 l 483 385 b 414 149 444 214 435 179 b 343 119 390 117 379 111 b 247 261 296 132 272 167 b 222 804 200 439 192 618 b 293 1058 236 886 267 996 l 310 1096 b 368 1178 321 1126 351 1168 b 426 1168 393 1194 408 1192 b 472 947 450 1139 463 1068 b 488 868 476 881 476 881 b 635 824 515 842 582 821 b 681 861 671 826 685 836 l 676 925 b 650 1094 674 997 667 1033 b 525 1303 626 1190 589 1250 b 274 1367 467 1351 329 1386 z m 446 1771 b 432 1774 440 1772 435 1774 b 418 1763 426 1774 425 1771 b 283 1506 383 1718 279 1521 l 324 1468 b 361 1439 349 1446 356 1439 b 365 1440 363 1439 364 1439 b 496 1542 383 1451 451 1503 b 583 1636 572 1606 588 1618 b 574 1657 582 1642 578 1649 b 446 1771 553 1699 483 1760 z "},"":{"ha":689,"x_min":0,"x_max":0,"o":"m 274 1367 b 88 1129 206 1340 133 1251 b 38 303 -14 867 -29 589 b 132 86 65 193 85 150 b 322 -43 186 14 246 -26 b 497 -36 381 -57 454 -54 b 585 38 533 -22 574 13 l 604 75 b 618 103 613 88 618 100 l 626 136 b 640 174 635 154 640 171 b 650 208 640 178 644 193 b 672 301 656 222 665 265 b 700 421 681 338 694 390 b 707 485 708 458 711 478 b 572 526 694 510 626 531 b 510 501 539 525 513 514 l 483 385 b 414 149 444 214 435 179 b 343 119 390 117 379 111 b 247 261 296 132 272 167 b 222 804 200 439 192 618 b 293 1058 236 886 267 996 l 310 1096 b 368 1178 321 1126 351 1168 b 426 1168 393 1194 408 1192 b 472 947 450 1139 463 1068 b 488 868 476 881 476 881 b 635 824 515 842 582 821 b 681 861 671 826 685 836 l 676 925 b 650 1094 674 997 667 1033 b 525 1303 626 1190 589 1250 b 274 1367 467 1351 329 1386 z m 508 1443 b 694 1678 549 1486 671 1646 l 711 1707 l 668 1743 b 615 1782 643 1765 619 1782 l 614 1782 b 460 1682 601 1782 539 1742 l 411 1646 l 344 1731 b 265 1826 308 1778 271 1819 b 256 1831 263 1828 257 1831 b 206 1811 247 1831 235 1824 l 160 1788 l 169 1763 b 319 1450 189 1715 308 1467 b 396 1426 331 1435 335 1433 b 472 1418 435 1419 468 1418 l 475 1418 b 508 1443 479 1418 496 1431 z "},"":{"ha":689,"x_min":0,"x_max":0,"o":"m 274 1367 b 88 1129 206 1340 133 1251 b 38 303 -14 867 -29 589 b 132 86 65 193 85 150 b 229 -6 163 46 194 15 b 192 -192 192 -99 188 -174 b 211 -204 194 -200 201 -204 b 231 -201 217 -204 222 -201 b 244 -200 236 -201 240 -200 b 315 -240 274 -200 300 -214 b 332 -275 324 -251 329 -265 b 286 -340 340 -310 325 -333 l 275 -340 b 167 -321 242 -340 183 -331 b 156 -317 165 -318 161 -317 b 125 -329 147 -317 138 -321 b 118 -351 117 -333 117 -343 b 136 -379 121 -360 126 -369 b 374 -478 171 -411 306 -468 b 407 -483 389 -482 404 -483 b 446 -478 408 -483 424 -482 b 513 -449 481 -472 515 -457 b 522 -446 513 -446 518 -446 b 565 -374 536 -446 557 -404 b 564 -325 571 -353 569 -343 l 560 -310 b 497 -219 549 -275 529 -251 b 382 -158 468 -193 439 -178 b 329 -128 349 -147 333 -142 b 365 -50 328 -119 361 -68 b 497 -36 414 -54 464 -50 b 585 38 533 -22 574 13 l 604 75 b 618 103 613 88 618 100 l 626 136 b 640 174 635 154 640 171 b 650 208 640 178 644 193 b 672 301 656 222 665 265 b 700 421 681 338 694 390 b 707 485 708 458 711 478 b 572 526 694 510 626 531 b 510 501 539 525 513 514 l 483 385 b 414 149 444 214 435 179 b 343 119 390 117 379 111 b 247 261 296 132 272 167 b 222 804 200 439 192 618 b 293 1058 236 886 267 996 l 310 1096 b 368 1178 321 1126 351 1168 b 426 1168 393 1194 408 1192 b 472 947 450 1139 463 1068 b 488 868 476 881 476 881 b 635 824 515 842 582 821 b 681 861 671 826 685 836 l 676 925 b 650 1094 674 997 667 1033 b 525 1303 626 1190 589 1250 b 274 1367 467 1351 329 1386 z "},"":{"ha":689,"x_min":0,"x_max":0,"o":"m 274 1367 b 88 1129 206 1340 133 1251 b 38 303 -14 867 -29 589 b 132 86 65 193 85 150 b 322 -43 186 14 246 -26 b 497 -36 381 -57 454 -54 b 585 38 533 -22 574 13 l 604 75 b 618 103 613 88 618 100 l 626 136 b 640 174 635 154 640 171 b 650 208 640 178 644 193 b 672 301 656 222 665 265 b 700 421 681 338 694 390 b 707 485 708 458 711 478 b 572 526 694 510 626 531 b 510 501 539 525 513 514 l 483 385 b 414 149 444 214 435 179 b 343 119 390 117 379 111 b 247 261 296 132 272 167 b 222 804 200 439 192 618 b 293 1058 236 886 267 996 l 310 1096 b 368 1178 321 1126 351 1168 b 426 1168 393 1194 408 1192 b 472 947 450 1139 463 1068 b 488 868 476 881 476 881 b 635 824 515 842 582 821 b 681 861 671 826 685 836 l 676 925 b 650 1094 674 997 667 1033 b 525 1303 626 1190 589 1250 b 274 1367 467 1351 329 1386 z m 438 1846 b 369 1856 425 1854 417 1856 l 315 1856 l 222 1731 b 126 1597 171 1663 128 1603 b 128 1590 128 1596 126 1593 b 214 1497 133 1568 172 1525 l 236 1481 l 261 1504 b 344 1567 278 1517 313 1546 l 400 1608 l 414 1597 b 464 1549 421 1593 442 1571 l 529 1479 b 563 1449 546 1463 561 1449 b 674 1499 567 1449 672 1496 b 564 1669 672 1507 624 1582 b 438 1846 474 1806 451 1838 z "},"":{"ha":689,"x_min":0,"x_max":0,"o":"m 274 1367 b 88 1129 206 1340 133 1251 b 38 303 -14 867 -29 589 b 132 86 65 193 85 150 b 322 -43 186 14 246 -26 b 497 -36 381 -57 454 -54 b 585 38 533 -22 574 13 l 604 75 b 618 103 613 88 618 100 l 626 136 b 640 174 635 154 640 171 b 650 208 640 178 644 193 b 672 301 656 222 665 265 b 700 421 681 338 694 390 b 707 485 708 458 711 478 b 572 526 694 510 626 531 b 510 501 539 525 513 514 l 483 385 b 414 149 444 214 435 179 b 343 119 390 117 379 111 b 247 261 296 132 272 167 b 222 804 200 439 192 618 b 293 1058 236 886 267 996 l 310 1096 b 368 1178 321 1126 351 1168 b 426 1168 393 1194 408 1192 b 472 947 450 1139 463 1068 b 488 868 476 881 476 881 b 635 824 515 842 582 821 b 681 861 671 826 685 836 l 676 925 b 650 1094 674 997 667 1033 b 525 1303 626 1190 589 1250 b 274 1367 467 1351 329 1386 z m 513 1565 b 363 1682 489 1651 410 1682 b 279 1558 314 1682 258 1635 b 399 1442 293 1507 335 1458 b 513 1565 467 1417 536 1475 z "},"D":{"ha":810,"x_min":0,"x_max":0,"o":"m 596 1210 b 160 1368 413 1322 288 1368 l 138 1368 b 61 1333 81 1365 64 1358 b 67 1294 60 1325 63 1311 b 97 1219 74 1268 86 1238 l 111 1199 l 101 1128 b 60 560 79 958 60 700 b 103 97 57 397 79 186 b 111 69 106 86 108 76 b 188 25 119 49 146 33 b 231 11 203 21 224 14 b 257 3 240 7 251 3 b 401 85 269 3 382 67 b 429 103 404 88 415 94 b 456 125 442 111 453 121 b 476 139 458 128 468 135 b 513 168 483 143 500 156 b 544 193 526 178 540 190 l 608 249 l 657 301 b 764 458 690 336 747 421 b 788 503 768 464 778 483 b 849 713 814 557 839 644 b 831 921 856 778 849 853 b 768 1058 815 975 794 1024 b 596 1210 725 1114 661 1169 z m 701 824 b 664 663 700 792 672 679 b 656 646 660 658 656 650 b 582 532 650 633 614 575 b 478 418 556 496 519 456 l 446 389 b 425 371 438 378 426 371 b 410 360 422 371 417 365 b 372 331 404 354 386 342 b 326 313 354 318 340 313 b 297 319 317 313 308 314 b 274 350 282 326 279 328 b 303 1022 256 418 271 769 b 328 1111 313 1083 314 1093 b 381 1136 343 1129 356 1136 b 406 1135 388 1136 396 1136 b 525 1093 442 1132 469 1121 b 678 943 601 1053 644 1010 b 693 899 685 928 689 914 b 701 824 700 875 703 850 z "},"":{"ha":810,"x_min":0,"x_max":0,"o":"m 596 1210 b 160 1368 413 1322 288 1368 l 138 1368 b 61 1333 81 1365 64 1358 b 67 1294 60 1325 63 1311 b 97 1219 74 1268 86 1238 l 111 1199 l 101 1128 b 60 560 79 958 60 700 b 103 97 57 397 79 186 b 111 69 106 86 108 76 b 188 25 119 49 146 33 b 231 11 203 21 224 14 b 257 3 240 7 251 3 b 401 85 269 3 382 67 b 429 103 404 88 415 94 b 456 125 442 111 453 121 b 476 139 458 128 468 135 b 513 168 483 143 500 156 b 544 193 526 178 540 190 l 608 249 l 657 301 b 764 458 690 336 747 421 b 788 503 768 464 778 483 b 849 713 814 557 839 644 b 831 921 856 778 849 853 b 768 1058 815 975 794 1024 b 596 1210 725 1114 661 1169 z m 701 824 b 664 663 700 792 672 679 b 656 646 660 658 656 650 b 582 532 650 633 614 575 b 478 418 556 496 519 456 l 446 389 b 425 371 438 378 426 371 b 410 360 422 371 417 365 b 372 331 404 354 386 342 b 326 313 354 318 340 313 b 297 319 317 313 308 314 b 274 350 282 326 279 328 b 303 1022 256 418 271 769 b 328 1111 313 1083 314 1093 b 381 1136 343 1129 356 1136 b 406 1135 388 1136 396 1136 b 525 1093 442 1132 469 1121 b 678 943 601 1053 644 1010 b 693 899 685 928 689 914 b 701 824 700 875 703 850 z m 569 1443 b 756 1678 610 1486 732 1646 l 772 1707 l 729 1743 b 676 1782 704 1765 681 1782 l 675 1782 b 521 1682 663 1782 600 1742 l 472 1646 l 406 1731 b 326 1826 369 1778 332 1819 b 317 1831 324 1828 318 1831 b 267 1811 308 1831 296 1824 l 221 1788 l 231 1763 b 381 1450 250 1715 369 1467 b 457 1426 392 1435 396 1433 b 533 1418 496 1419 529 1418 l 536 1418 b 569 1443 540 1418 557 1431 z "},"":{"ha":810,"x_min":0,"x_max":0,"o":"m 596 1210 b 160 1368 413 1322 288 1368 l 138 1368 b 61 1333 81 1365 64 1358 b 67 1294 60 1325 63 1311 b 97 1219 74 1268 86 1238 l 111 1199 l 101 1128 b 60 560 79 958 60 700 b 103 97 57 397 79 186 b 111 69 106 86 108 76 b 188 25 119 49 146 33 b 231 11 203 21 224 14 b 257 3 240 7 251 3 b 401 85 269 3 382 67 b 429 103 404 88 415 94 b 456 125 442 111 453 121 b 476 139 458 128 468 135 b 513 168 483 143 500 156 b 544 193 526 178 540 190 l 608 249 l 657 301 b 764 458 690 336 747 421 b 788 503 768 464 778 483 b 849 713 814 557 839 644 b 831 921 856 778 849 853 b 768 1058 815 975 794 1024 b 596 1210 725 1114 661 1169 z m 701 824 b 664 663 700 792 672 679 b 656 646 660 658 656 650 b 582 532 650 633 614 575 b 478 418 556 496 519 456 l 446 389 b 425 371 438 378 426 371 b 410 360 422 371 417 365 b 372 331 404 354 386 342 b 326 313 354 318 340 313 b 297 319 317 313 308 314 b 274 350 282 326 279 328 b 303 1022 256 418 271 769 b 328 1111 313 1083 314 1093 b 381 1136 343 1129 356 1136 b 406 1135 388 1136 396 1136 b 525 1093 442 1132 469 1121 b 678 943 601 1053 644 1010 b 693 899 685 928 689 914 b 701 824 700 875 703 850 z m 243 -31 b 58 -265 204 -74 82 -233 l 40 -294 l 83 -331 b 138 -369 110 -353 133 -369 l 139 -369 b 292 -269 151 -369 213 -329 l 342 -233 l 408 -318 b 486 -414 444 -365 481 -407 b 496 -418 490 -415 494 -418 b 546 -399 504 -418 518 -411 l 593 -375 l 582 -350 b 433 -37 564 -303 444 -54 b 356 -14 422 -22 418 -21 b 281 -6 318 -7 285 -6 l 278 -6 b 243 -31 274 -6 257 -18 z "},"":{"ha":810,"x_min":0,"x_max":0,"o":"m 765 1017 b 593 1168 722 1072 658 1128 b 156 1328 411 1282 285 1328 l 135 1326 b 58 1292 78 1324 61 1317 b 64 1253 57 1285 60 1269 b 94 1178 71 1228 83 1196 l 108 1157 l 99 1086 b 72 818 89 1010 78 913 l -26 819 l -125 824 l -133 811 b -135 700 -147 790 -146 742 b -104 636 -126 674 -117 650 l -92 625 l -7 622 l 60 621 b 57 518 57 583 57 549 b 100 57 54 357 76 144 b 108 28 103 44 106 35 b 185 -17 117 7 143 -8 b 228 -31 201 -21 221 -28 b 254 -39 238 -35 249 -39 b 399 43 267 -39 379 25 b 426 61 401 46 413 53 b 453 83 439 69 450 79 b 474 97 456 86 465 93 b 510 126 481 101 499 114 b 542 151 524 136 538 149 l 606 207 l 654 260 b 761 417 688 294 744 379 b 785 461 765 422 775 442 b 846 671 811 515 836 603 b 828 879 853 736 846 811 b 765 1017 813 933 792 983 z m 699 782 b 661 621 697 750 671 638 b 653 604 658 617 653 608 b 579 490 647 592 611 533 b 475 376 553 454 517 414 l 444 347 b 422 329 435 336 424 329 b 407 318 419 329 414 324 b 369 289 401 313 383 300 b 324 271 351 276 338 271 b 294 278 315 271 306 274 b 271 308 279 285 276 286 b 269 619 261 347 261 472 l 479 618 l 486 629 b 485 739 499 653 499 689 b 460 799 474 779 472 788 b 425 813 453 808 444 811 b 283 817 414 814 358 815 b 300 981 288 874 293 929 b 325 1069 310 1042 311 1051 b 378 1094 339 1089 353 1094 b 403 1093 385 1094 393 1094 b 522 1051 439 1090 467 1079 b 675 901 599 1011 642 968 b 690 858 681 888 686 872 b 699 782 697 833 699 810 z "}}}
